BesixdouzeSans-Bold.sfdir
StartChar: numbersign
Encoding: 372 35 372
GlifName: numbersign
Width: 1700
VWidth: 0
Flags: W
LayerCount: 2
Fore
SplineSet
1352 902 m 257
 1347 861 1347 861 1342.5 825 c 128
 1338 789 1338 789 1333 753 c 128
 1328 717 1328 717 1323.5 679 c 128
 1319 641 1319 641 1314 598 c 257
 1619 598 l 257
 1592 380 l 257
 1289 380 l 257
 1241 6 l 257
 888 -27 l 257
 940 380 l 257
 662 380 l 257
 617 6 l 257
 265 -27 l 257
 315 380 l 257
 40 380 l 257
 40 598 l 257
 340 598 l 257
 378 902 l 257
 36 902 l 257
 63 1120 l 257
 405 1120 l 257
 422 1258 l 257
 422 1494 l 257
 803 1526 l 257
 752 1120 l 257
 1031 1120 l 257
 1076 1494 l 257
 1428 1527 l 257
 1379 1120 l 257
 1615 1120 l 257
 1615 902 l 257
 1352 902 l 257
1004 902 m 257
 727 902 l 257
 722 861 722 861 717.5 825 c 128
 713 789 713 789 708 753 c 128
 703 717 703 717 698.5 679 c 128
 694 641 694 641 689 598 c 257
 966 598 l 257
 1004 902 l 257
EndSplineSet
EndChar
StartChar: dollar
Encoding: 226 36 226
GlifName: dollar
Width: 1100
VWidth: 0
Flags: W
LayerCount: 2
Fore
SplineSet
399 -14 m 257
 293 -6 293 -6 201.5 28 c 128
 110 62 110 62 16 121 c 257
 154 348 l 257
 176 333 176 333 204.5 316 c 128
 233 299 233 299 265 283 c 128
 297 267 297 267 331.5 253.5 c 128
 366 240 366 240 399 233 c 257
 399 712 l 257
 330 745 330 745 263.5 781 c 128
 197 817 197 817 145 862 c 128
 93 907 93 907 61 964.5 c 128
 29 1022 29 1022 29 1097 c 257
 29 1179 29 1179 58.5 1245.5 c 128
 88 1312 88 1312 138.5 1363 c 128
 189 1414 189 1414 256.5 1448.5 c 128
 324 1483 324 1483 399 1500 c 257
 399 1681 l 257
 699 1719 l 257
 699 1499 l 257
 773 1482 773 1482 844.5 1450 c 128
 916 1418 916 1418 989 1369 c 257
 839 1178 l 257
 797 1202 797 1202 762.5 1220 c 128
 728 1238 728 1238 699 1252 c 257
 699 866 l 257
 764 835 764 835 826 797 c 128
 888 759 888 759 936.5 709.5 c 128
 985 660 985 660 1014.5 596 c 128
 1044 532 1044 532 1044 448 c 257
 1044 363 1044 363 1016.5 293.5 c 128
 989 224 989 224 941 170 c 128
 893 116 893 116 828.5 77.5 c 128
 764 39 764 39 689 16 c 257
 689 -190 l 257
 399 -190 l 257
 399 -14 l 257
758 430 m 257
 758 484 758 484 725 524 c 128
 692 564 692 564 641 596 c 257
 641 249 l 257
 665 258 665 258 686.5 272.5 c 128
 708 287 708 287 724 308.5 c 128
 740 330 740 330 749 360 c 128
 758 390 758 390 758 430 c 257
335 1125 m 257
 335 1096 335 1096 344.5 1073 c 128
 354 1050 354 1050 370.5 1031.5 c 128
 387 1013 387 1013 409 998.5 c 128
 431 984 431 984 457 972 c 257
 457 1268 l 257
 432 1260 432 1260 410 1248.5 c 128
 388 1237 388 1237 371.5 1219.5 c 128
 355 1202 355 1202 345 1178.5 c 128
 335 1155 335 1155 335 1125 c 257
EndSplineSet
EndChar
StartChar: ampersand
Encoding: 111 38 111
GlifName: ampersand
Width: 1400
VWidth: 0
Flags: W
LayerCount: 2
Fore
SplineSet
1335 760 m 257
 1335 609 1335 609 1297 474.5 c 128
 1259 340 1259 340 1179 229 c 257
 1365 -19 l 257
 997 -19 l 257
 953 42 l 257
 887 10 887 10 814 -4.5 c 128
 741 -19 741 -19 656 -19 c 257
 582 -19 582 -19 508.5 -2.5 c 128
 435 14 435 14 368 45.5 c 128
 301 77 301 77 244 121.5 c 128
 187 166 187 166 145.5 222.5 c 128
 104 279 104 279 80 346 c 128
 56 413 56 413 56 488 c 257
 56 549 56 549 75 607.5 c 128
 94 666 94 666 128 719.5 c 128
 162 773 162 773 208.5 820.5 c 128
 255 868 255 868 309 907 c 257
 274 965 274 965 252.5 1028 c 128
 231 1091 231 1091 231 1154 c 257
 231 1241 231 1241 262.5 1309 c 128
 294 1377 294 1377 351 1423.5 c 128
 408 1470 408 1470 486.5 1494.5 c 128
 565 1519 565 1519 660 1519 c 257
 739 1519 739 1519 803.5 1501.5 c 128
 868 1484 868 1484 920 1454.5 c 128
 972 1425 972 1425 1012 1387 c 128
 1052 1349 1052 1349 1082 1308 c 257
 940 1098 l 257
 915 1125 915 1125 882 1158 c 128
 849 1191 849 1191 812 1220.5 c 128
 775 1250 775 1250 736 1270 c 128
 697 1290 697 1290 660 1290 c 257
 640 1290 640 1290 620 1281.5 c 128
 600 1273 600 1273 584 1256 c 128
 568 1239 568 1239 558.5 1213 c 128
 549 1187 549 1187 549 1153 c 257
 549 1141 549 1141 550.5 1128.5 c 128
 552 1116 552 1116 556 1104 c 257
 560 1090 560 1090 566.5 1074 c 128
 573 1058 573 1058 588 1033 c 128
 603 1008 603 1008 630 969 c 128
 657 930 657 930 702 868.5 c 128
 747 807 747 807 813 718.5 c 128
 879 630 879 630 972 507 c 257
 986 558 986 558 991.5 610 c 128
 997 662 997 662 999 725 c 257
 1335 760 l 257
659 217 m 257
 694 217 694 217 727 224 c 128
 760 231 760 231 795 251 c 257
 468 691 l 257
 369 595 369 595 369 489 c 257
 369 428 369 428 393 379 c 128
 417 330 417 330 457 294.5 c 128
 497 259 497 259 549.5 239 c 128
 602 219 602 219 659 217 c 257
EndSplineSet
EndChar
StartChar: parenleft
Encoding: 402 40 402
GlifName: parenleft
Width: 900
VWidth: 0
Flags: W
LayerCount: 2
Fore
SplineSet
144 1158 m 257
 144 1251 144 1251 154 1331.5 c 128
 164 1412 164 1412 199.5 1472 c 128
 235 1532 235 1532 302.5 1566 c 128
 370 1600 370 1600 484 1600 c 257
 509 1600 509 1600 537.5 1596.5 c 128
 566 1593 566 1593 594.5 1586 c 128
 623 1579 623 1579 649 1568.5 c 128
 675 1558 675 1558 696 1545 c 257
 606 1431 l 257
 588 1431 588 1431 563.5 1426 c 128
 539 1421 539 1421 517 1400.5 c 128
 495 1380 495 1380 480 1339 c 128
 465 1298 465 1298 465 1227 c 257
 465 -46 l 257
 465 -119 465 -119 480.5 -159.5 c 128
 496 -200 496 -200 517 -219 c 128
 538 -238 538 -238 560.5 -241.5 c 128
 583 -245 583 -245 598 -245 c 257
 696 -365 l 257
 675 -378 675 -378 649 -388.5 c 128
 623 -399 623 -399 594.5 -406 c 128
 566 -413 566 -413 537.5 -416.5 c 128
 509 -420 509 -420 484 -420 c 257
 370 -420 370 -420 302.5 -383.5 c 128
 235 -347 235 -347 199.5 -284 c 128
 164 -221 164 -221 154 -138 c 128
 144 -55 144 -55 144 38 c 257
 144 1158 l 257
EndSplineSet
EndChar
StartChar: parenright
Encoding: 405 41 405
GlifName: parenright
Width: 900
VWidth: 0
Flags: W
LayerCount: 2
Fore
SplineSet
730 38 m 257
 730 -55 730 -55 720 -138 c 128
 710 -221 710 -221 674.5 -284 c 128
 639 -347 639 -347 571.5 -383.5 c 128
 504 -420 504 -420 390 -420 c 257
 365 -420 365 -420 336.5 -416.5 c 128
 308 -413 308 -413 279.5 -406 c 128
 251 -399 251 -399 225 -388.5 c 128
 199 -378 199 -378 178 -365 c 257
 276 -245 l 257
 291 -245 291 -245 313.5 -241.5 c 128
 336 -238 336 -238 357 -219 c 128
 378 -200 378 -200 393.5 -159.5 c 128
 409 -119 409 -119 409 -46 c 257
 409 1227 l 257
 409 1298 409 1298 394 1339 c 128
 379 1380 379 1380 357 1400.5 c 128
 335 1421 335 1421 310.5 1426 c 128
 286 1431 286 1431 268 1431 c 257
 178 1545 l 257
 199 1558 199 1558 225 1568.5 c 128
 251 1579 251 1579 279.5 1586 c 128
 308 1593 308 1593 336.5 1596.5 c 128
 365 1600 365 1600 390 1600 c 257
 504 1600 504 1600 571.5 1566 c 128
 639 1532 639 1532 674.5 1472 c 128
 710 1412 710 1412 720 1331.5 c 128
 730 1251 730 1251 730 1158 c 257
 730 38 l 257
EndSplineSet
EndChar
StartChar: asterisk
Encoding: 137 42 137
GlifName: asterisk
Width: 1100
VWidth: 0
Flags: W
LayerCount: 2
Fore
SplineSet
741 926 m 257
 833 805 l 257
 665 654 l 257
 553 800 l 257
 498 990 l 257
 448 800 l 257
 347 656 l 257
 148 781 l 257
 270 950 l 257
 431 1041 l 257
 221 1041 l 257
 70 1090 l 257
 114 1309 l 257
 299 1259 l 257
 458 1120 l 257
 391 1315 l 257
 391 1446 l 257
 620 1470 l 257
 620 1309 l 257
 543 1117 l 257
 690 1247 l 257
 834 1294 l 257
 928 1083 l 257
 790 1037 l 257
 567 1037 l 257
 741 926 l 257
EndSplineSet
EndChar
StartChar: plus
Encoding: 425 43 425
GlifName: plus
Width: 1200
VWidth: 0
Flags: W
LayerCount: 2
Fore
SplineSet
80 700 m 257
 440 700 l 257
 440 1130 l 257
 660 1130 l 257
 660 700 l 257
 1020 700 l 257
 1020 500 l 257
 660 500 l 257
 660 100 l 257
 440 100 l 257
 440 500 l 257
 80 500 l 257
 80 700 l 257
EndSplineSet
EndChar
StartChar: comma
Encoding: 203 44 203
GlifName: comma
Width: 500
VWidth: 0
Flags: W
LayerCount: 2
Fore
SplineSet
56 169 m 257
 56 205 56 205 69 238.5 c 128
 82 272 82 272 107 298 c 128
 132 324 132 324 168 340 c 128
 204 356 204 356 250 356 c 257
 296 356 296 356 332 338 c 128
 368 320 368 320 393 291 c 128
 418 262 418 262 431 224.5 c 128
 444 187 444 187 444 148 c 257
 444 97 444 97 428 35 c 128
 412 -27 412 -27 383 -89.5 c 128
 354 -152 354 -152 313 -208 c 128
 272 -264 272 -264 223 -303 c 257
 69 -238 l 257
 111 -182 111 -182 134.5 -121 c 128
 158 -60 158 -60 165 0 c 257
 116 21 116 21 86 62.5 c 128
 56 104 56 104 56 169 c 257
EndSplineSet
EndChar
StartChar: hyphen
Encoding: 309 45 309
GlifName: hyphen
Width: 900
VWidth: 0
Flags: W
LayerCount: 2
Fore
SplineSet
124 624 m 257
 751 624 l 257
 751 400 l 257
 124 400 l 257
 124 624 l 257
EndSplineSet
EndChar
StartChar: zero
Encoding: 587 48 587
GlifName: zero
Width: 1300
VWidth: 0
Flags: W
LayerCount: 2
Fore
SplineSet
598 -16 m 257
 505 -16 505 -16 427 16.5 c 128
 349 49 349 49 287 105 c 128
 225 161 225 161 178 236 c 128
 131 311 131 311 100 396 c 128
 69 481 69 481 53.5 572 c 128
 38 663 38 663 38 750 c 257
 38 840 38 840 51 931.5 c 128
 64 1023 64 1023 92.5 1108.5 c 128
 121 1194 121 1194 165.5 1268 c 128
 210 1342 210 1342 272 1397.5 c 128
 334 1453 334 1453 415 1484.5 c 128
 496 1516 496 1516 598 1516 c 257
 691 1516 691 1516 769 1483.5 c 128
 847 1451 847 1451 909 1395 c 128
 971 1339 971 1339 1018 1264 c 128
 1065 1189 1065 1189 1096 1104 c 128
 1127 1019 1127 1019 1142.5 928 c 128
 1158 837 1158 837 1158 750 c 257
 1158 660 1158 660 1144.5 568.5 c 128
 1131 477 1131 477 1103 391.5 c 128
 1075 306 1075 306 1030.5 232 c 128
 986 158 986 158 923.5 102.5 c 128
 861 47 861 47 780 15.5 c 128
 699 -16 699 -16 598 -16 c 257
386 791 m 257
 386 740 386 740 389 678 c 128
 392 616 392 616 400.5 553.5 c 128
 409 491 409 491 424 432 c 128
 439 373 439 373 463.5 327 c 128
 488 281 488 281 522.5 253.5 c 128
 557 226 557 226 605 226 c 257
 647 226 647 226 678.5 246.5 c 128
 710 267 710 267 733 302.5 c 128
 756 338 756 338 771 385.5 c 128
 786 433 786 433 794.5 487 c 128
 803 541 803 541 806.5 597.5 c 128
 810 654 810 654 810 709 c 257
 810 760 810 760 807 822 c 128
 804 884 804 884 795.5 946.5 c 128
 787 1009 787 1009 772 1068 c 128
 757 1127 757 1127 732.5 1172.5 c 128
 708 1218 708 1218 673 1245.5 c 128
 638 1273 638 1273 590 1273 c 257
 548 1273 548 1273 516.5 1252.5 c 128
 485 1232 485 1232 462 1196.5 c 128
 439 1161 439 1161 424.5 1113.5 c 128
 410 1066 410 1066 401.5 1012.5 c 128
 393 959 393 959 389.5 902 c 128
 386 845 386 845 386 791 c 257
EndSplineSet
EndChar
StartChar: two
Encoding: 535 50 535
GlifName: two
Width: 1300
VWidth: 0
Flags: W
LayerCount: 2
Fore
SplineSet
112 0 m 257
 112 190 l 257
 159 264 159 264 220.5 345.5 c 128
 282 427 282 427 347 505.5 c 128
 412 584 412 584 474 654 c 128
 536 724 536 724 583 775 c 257
 637 833 637 833 675 873 c 128
 713 913 713 913 736 947 c 128
 759 981 759 981 769.5 1015.5 c 128
 780 1050 780 1050 780 1097 c 257
 780 1134 780 1134 767.5 1170.5 c 128
 755 1207 755 1207 732 1236 c 128
 709 1265 709 1265 676.5 1282.5 c 128
 644 1300 644 1300 603 1300 c 257
 521 1300 521 1300 459 1245 c 128
 397 1190 397 1190 349 1096 c 257
 116 1183 l 257
 145 1260 145 1260 191 1321.5 c 128
 237 1383 237 1383 299.5 1426.5 c 128
 362 1470 362 1470 441.5 1493.5 c 128
 521 1517 521 1517 618 1517 c 257
 732 1517 732 1517 821 1479.5 c 128
 910 1442 910 1442 971.5 1381 c 128
 1033 1320 1033 1320 1065 1242.5 c 128
 1097 1165 1097 1165 1097 1086 c 257
 1097 1016 1097 1016 1075 957 c 128
 1053 898 1053 898 1016 843.5 c 128
 979 789 979 789 932 735 c 128
 885 681 885 681 835 621 c 257
 785 561 785 561 731.5 499 c 128
 678 437 678 437 629.5 381 c 128
 581 325 581 325 541.5 278 c 128
 502 231 502 231 480 200 c 257
 1122 200 l 257
 1122 0 l 257
 112 0 l 257
EndSplineSet
EndChar
StartChar: three
Encoding: 520 51 520
GlifName: three
Width: 1300
VWidth: 0
Flags: W
LayerCount: 2
Fore
SplineSet
263 938 m 257
 292 959 292 959 333 989 c 128
 374 1019 374 1019 420.5 1055 c 128
 467 1091 467 1091 515.5 1130.5 c 128
 564 1170 564 1170 608.5 1211.5 c 128
 653 1253 653 1253 690 1294.5 c 128
 727 1336 727 1336 751 1374 c 257
 491 1300 l 257
 160 1300 l 257
 181 1500 l 257
 1023 1500 l 257
 1023 1327 l 257
 992 1248 992 1248 934 1182 c 128
 876 1116 876 1116 805 1052 c 257
 649 969 l 257
 754 969 754 969 840.5 941.5 c 128
 927 914 927 914 988 863 c 128
 1049 812 1049 812 1082.5 738.5 c 128
 1116 665 1116 665 1116 573 c 257
 1116 474 1116 474 1075 393 c 128
 1034 312 1034 312 964 248.5 c 128
 894 185 894 185 799.5 138 c 128
 705 91 705 91 597.5 60.5 c 128
 490 30 490 30 375.5 15 c 128
 261 0 261 0 150 0 c 257
 150 200 l 257
 268 204 268 204 380 231 c 128
 492 258 492 258 580 304.5 c 128
 668 351 668 351 721.5 416.5 c 128
 775 482 775 482 775 563 c 257
 775 621 775 621 750.5 660.5 c 128
 726 700 726 700 684 724.5 c 128
 642 749 642 749 586.5 759.5 c 128
 531 770 531 770 469 770 c 257
 454 770 454 770 425 768.5 c 128
 396 767 396 767 365 765.5 c 128
 334 764 334 764 305.5 762.5 c 128
 277 761 277 761 263 760 c 257
 263 938 l 257
EndSplineSet
EndChar
StartChar: six
Encoding: 481 54 481
GlifName: six
Width: 1300
VWidth: 0
Flags: W
LayerCount: 2
Fore
SplineSet
993 1280 m 257
 967 1294 967 1294 936.5 1297 c 128
 906 1300 906 1300 882 1300 c 257
 813 1300 813 1300 739.5 1266.5 c 128
 666 1233 666 1233 601 1169 c 128
 536 1105 536 1105 487.5 1012 c 128
 439 919 439 919 421 800 c 257
 586 945 l 257
 613 950 613 950 638.5 953 c 128
 664 956 664 956 687 956 c 257
 784 956 784 956 874.5 931.5 c 128
 965 907 965 907 1035 854.5 c 128
 1105 802 1105 802 1147 720.5 c 128
 1189 639 1189 639 1189 525 c 257
 1189 414 1189 414 1149 315.5 c 128
 1109 217 1109 217 1036.5 143 c 128
 964 69 964 69 862 26 c 128
 760 -17 760 -17 637 -17 c 257
 529 -17 529 -17 446.5 15 c 128
 364 47 364 47 302.5 99.5 c 128
 241 152 241 152 199 219.5 c 128
 157 287 157 287 131.5 358.5 c 128
 106 430 106 430 95 500 c 128
 84 570 84 570 84 627 c 257
 84 745 84 745 109.5 857 c 128
 135 969 135 969 183.5 1067.5 c 128
 232 1166 232 1166 302.5 1249 c 128
 373 1332 373 1332 462.5 1391.5 c 128
 552 1451 552 1451 660 1484 c 128
 768 1517 768 1517 891 1517 c 257
 909 1517 909 1517 942.5 1514.5 c 128
 976 1512 976 1512 1027 1498 c 257
 993 1280 l 257
673 756 m 257
 637 756 637 756 600.5 741 c 128
 564 726 564 726 530.5 703 c 128
 497 680 497 680 468.5 652.5 c 128
 440 625 440 625 421 601 c 257
 421 575 421 575 421.5 553.5 c 128
 422 532 422 532 424 512.5 c 128
 426 493 426 493 429 474 c 128
 432 455 432 455 438 434 c 257
 450 387 450 387 469.5 344.5 c 128
 489 302 489 302 514.5 270 c 128
 540 238 540 238 571.5 219 c 128
 603 200 603 200 640 200 c 257
 694 200 694 200 734 228.5 c 128
 774 257 774 257 800.5 302.5 c 128
 827 348 827 348 839.5 404.5 c 128
 852 461 852 461 852 516 c 257
 852 566 852 566 838.5 610 c 128
 825 654 825 654 801 686.5 c 128
 777 719 777 719 744 737.5 c 128
 711 756 711 756 673 756 c 257
EndSplineSet
EndChar
StartChar: equal
Encoding: 249 61 249
GlifName: equal
Width: 1000
VWidth: 0
Flags: W
LayerCount: 2
Fore
SplineSet
100 800 m 257
 900 800 l 257
 900 581 l 257
 100 581 l 257
 100 800 l 257
100 400 m 257
 900 400 l 257
 900 181 l 257
 100 181 l 257
 100 400 l 257
EndSplineSet
EndChar
StartChar: at
Encoding: 140 64 140
GlifName: at
Width: 2000
VWidth: 0
Flags: W
LayerCount: 2
Fore
SplineSet
1013 -12 m 257
 1005 -14 1005 -14 994 -15.5 c 128
 983 -17 983 -17 962 -17 c 257
 876 -17 876 -17 800.5 14.5 c 128
 725 46 725 46 669 102 c 128
 613 158 613 158 580 234 c 128
 547 310 547 310 547 400 c 257
 547 496 547 496 587 558.5 c 128
 627 621 627 621 691 658.5 c 128
 755 696 755 696 833.5 711 c 128
 912 726 912 726 989 726 c 257
 1034 726 1034 726 1069.5 723 c 128
 1105 720 1105 720 1132 715 c 257
 1131 755 1131 755 1126 788.5 c 128
 1121 822 1121 822 1108 847 c 128
 1095 872 1095 872 1073 886 c 128
 1051 900 1051 900 1017 900 c 257
 975 900 975 900 939.5 896.5 c 128
 904 893 904 893 872.5 886.5 c 128
 841 880 841 880 810.5 870.5 c 128
 780 861 780 861 749 850 c 257
 653 1031 l 257
 699 1049 699 1049 742.5 1065 c 128
 786 1081 786 1081 831 1092.5 c 128
 876 1104 876 1104 924 1110.5 c 128
 972 1117 972 1117 1026 1117 c 257
 1156 1117 1156 1117 1232 1085.5 c 128
 1308 1054 1308 1054 1347.5 996.5 c 128
 1387 939 1387 939 1398 858.5 c 128
 1409 778 1409 778 1409 681 c 257
 1409 205 l 257
 1409 188 1409 188 1419.5 173.5 c 128
 1430 159 1430 159 1452 159 c 257
 1464 159 1464 159 1473.5 181.5 c 128
 1483 204 1483 204 1490.5 239 c 128
 1498 274 1498 274 1503.5 317 c 128
 1509 360 1509 360 1512.5 400.5 c 128
 1516 441 1516 441 1518 474.5 c 128
 1520 508 1520 508 1520 525 c 257
 1520 726 1520 726 1487 870 c 128
 1454 1014 1454 1014 1386 1106.5 c 128
 1318 1199 1318 1199 1215 1243 c 128
 1112 1287 1112 1287 971 1287 c 257
 705 1287 705 1287 573.5 1113.5 c 128
 442 940 442 940 442 605 c 257
 442 437 442 437 470.5 292 c 128
 499 147 499 147 561.5 40 c 128
 624 -67 624 -67 723.5 -128 c 128
 823 -189 823 -189 966 -189 c 257
 1025 -189 1025 -189 1070 -185.5 c 128
 1115 -182 1115 -182 1152 -173.5 c 128
 1189 -165 1189 -165 1221.5 -152 c 128
 1254 -139 1254 -139 1289 -120 c 257
 1393 -321 l 257
 1337 -351 1337 -351 1287.5 -369.5 c 128
 1238 -388 1238 -388 1189.5 -398.5 c 128
 1141 -409 1141 -409 1089.5 -413 c 128
 1038 -417 1038 -417 978 -417 c 257
 833 -417 833 -417 712.5 -380.5 c 128
 592 -344 592 -344 496 -278 c 128
 400 -212 400 -212 328 -121 c 128
 256 -30 256 -30 208 78.5 c 128
 160 187 160 187 136 310 c 128
 112 433 112 433 112 562 c 257
 112 694 112 694 137 816.5 c 128
 162 939 162 939 211.5 1045 c 128
 261 1151 261 1151 334 1238 c 128
 407 1325 407 1325 503.5 1387 c 128
 600 1449 600 1449 718.5 1483 c 128
 837 1517 837 1517 978 1517 c 257
 1111 1517 1111 1517 1227 1483.5 c 128
 1343 1450 1343 1450 1439 1390 c 128
 1535 1330 1535 1330 1609.5 1245.5 c 128
 1684 1161 1684 1161 1735.5 1059 c 128
 1787 957 1787 957 1814 840.5 c 128
 1841 724 1841 724 1841 599 c 257
 1841 517 1841 517 1835.5 439 c 128
 1830 361 1830 361 1814.5 292.5 c 128
 1799 224 1799 224 1771.5 167 c 128
 1744 110 1744 110 1700.5 69 c 128
 1657 28 1657 28 1595 5.5 c 128
 1533 -17 1533 -17 1449 -17 c 257
 1393 -17 1393 -17 1341.5 -2.5 c 128
 1290 12 1290 12 1248.5 36.5 c 128
 1207 61 1207 61 1177 93.5 c 128
 1147 126 1147 126 1133 162 c 257
 1013 -12 l 257
1133 515 m 257
 1109 518 1109 518 1080.5 520.5 c 128
 1052 523 1052 523 1026 523 c 257
 990 523 990 523 955.5 513 c 128
 921 503 921 503 894 483 c 128
 867 463 867 463 850 432 c 128
 833 401 833 401 833 359 c 257
 833 325 833 325 844 296 c 128
 855 267 855 267 873 245.5 c 128
 891 224 891 224 913.5 212 c 128
 936 200 936 200 959 200 c 257
 988 200 988 200 1014.5 209 c 128
 1041 218 1041 218 1063.5 231.5 c 128
 1086 245 1086 245 1103.5 261 c 128
 1121 277 1121 277 1133 290 c 257
 1133 515 l 257
EndSplineSet
EndChar
StartChar: A
Encoding: 1 65 1
GlifName: A_
Width: 1300
VWidth: 0
Flags: W
LayerCount: 2
Fore
SplineSet
6 0 m 257
 404 1284 l 257
 439 1494 l 257
 817 1525 l 257
 1296 0 l 257
 954 0 l 257
 838 427 l 257
 446 427 l 257
 333 0 l 257
 6 0 l 257
642 1361 m 257
 589 990 l 257
 505 646 l 257
 779 646 l 257
 694 990 l 257
 642 1361 l 257
EndSplineSet
EndChar
StartChar: C
Encoding: 12 67 12
GlifName: C_
Width: 1200
VWidth: 0
Flags: W
LayerCount: 2
Fore
SplineSet
1144 133 m 257
 1043 52 1043 52 930.5 17.5 c 128
 818 -17 818 -17 688 -17 c 257
 533 -17 533 -17 410 45.5 c 128
 287 108 287 108 201 215 c 128
 115 322 115 322 69.5 465 c 128
 24 608 24 608 24 769 c 257
 24 920 24 920 65 1056 c 128
 106 1192 106 1192 190.5 1294.5 c 128
 275 1397 275 1397 404 1457 c 128
 533 1517 533 1517 709 1517 c 257
 838 1517 838 1517 955.5 1472.5 c 128
 1073 1428 1073 1428 1161 1344 c 257
 1013 1170 l 257
 980 1192 980 1192 944 1212 c 128
 908 1232 908 1232 870.5 1247 c 128
 833 1262 833 1262 796 1271 c 128
 759 1280 759 1280 725 1280 c 257
 630 1280 630 1280 563.5 1239.5 c 128
 497 1199 497 1199 455 1129.5 c 128
 413 1060 413 1060 393.5 967.5 c 128
 374 875 374 875 374 772 c 257
 374 711 374 711 382.5 646.5 c 128
 391 582 391 582 408.5 520.5 c 128
 426 459 426 459 453.5 405 c 128
 481 351 481 351 518.5 310 c 128
 556 269 556 269 604 245 c 128
 652 221 652 221 712 221 c 257
 746 221 746 221 779 226.5 c 128
 812 232 812 232 848.5 244.5 c 128
 885 257 885 257 928 277.5 c 128
 971 298 971 298 1025 328 c 257
 1144 133 l 257
EndSplineSet
EndChar
StartChar: D
Encoding: 15 68 15
GlifName: D_
Width: 1300
VWidth: 0
Flags: W
LayerCount: 2
Fore
SplineSet
98 1493 m 257
 147 1498 147 1498 202 1501 c 128
 257 1504 257 1504 310.5 1506 c 128
 364 1508 364 1508 411.5 1509 c 128
 459 1510 459 1510 492 1510 c 257
 660 1510 660 1510 802.5 1470.5 c 128
 945 1431 945 1431 1049 1346.5 c 128
 1153 1262 1153 1262 1212 1128.5 c 128
 1271 995 1271 995 1271 807 c 257
 1271 662 1271 662 1242 545.5 c 128
 1213 429 1213 429 1160.5 339.5 c 128
 1108 250 1108 250 1035 185.5 c 128
 962 121 962 121 874.5 80 c 128
 787 39 787 39 688 19.5 c 128
 589 0 589 0 484 0 c 257
 132 0 l 257
 132 1262 l 257
 98 1493 l 257
483 1127 m 257
 483 230 l 257
 588 237 588 237 661.5 266.5 c 128
 735 296 735 296 783.5 340.5 c 128
 832 385 832 385 859.5 440.5 c 128
 887 496 887 496 900.5 555 c 128
 914 614 914 614 917 671.5 c 128
 920 729 920 729 920 778 c 257
 920 890 920 890 902.5 984 c 128
 885 1078 885 1078 837 1146 c 128
 789 1214 789 1214 704 1251.5 c 128
 619 1289 619 1289 484 1289 c 257
 479 1289 479 1289 473.5 1289 c 128
 468 1289 468 1289 462 1288 c 257
 483 1127 l 257
EndSplineSet
EndChar
StartChar: G
Encoding: 31 71 31
GlifName: G_
Width: 1300
VWidth: 0
Flags: W
LayerCount: 2
Fore
SplineSet
1231 221 m 257
 1186 171 1186 171 1129.5 127.5 c 128
 1073 84 1073 84 1005.5 52 c 128
 938 20 938 20 859 1.5 c 128
 780 -17 780 -17 688 -17 c 257
 533 -17 533 -17 410 45.5 c 128
 287 108 287 108 201 215 c 128
 115 322 115 322 69.5 465 c 128
 24 608 24 608 24 769 c 257
 24 920 24 920 65 1056 c 128
 106 1192 106 1192 190.5 1294.5 c 128
 275 1397 275 1397 404.5 1457 c 128
 534 1517 534 1517 710 1517 c 257
 839 1517 839 1517 956.5 1472.5 c 128
 1074 1428 1074 1428 1162 1344 c 257
 1014 1170 l 257
 981 1192 981 1192 945 1212 c 128
 909 1232 909 1232 871.5 1247 c 128
 834 1262 834 1262 797 1271 c 128
 760 1280 760 1280 725 1280 c 257
 630 1280 630 1280 563.5 1239.5 c 128
 497 1199 497 1199 455 1129.5 c 128
 413 1060 413 1060 394 967.5 c 128
 375 875 375 875 375 772 c 257
 375 711 375 711 383.5 646.5 c 128
 392 582 392 582 409.5 520.5 c 128
 427 459 427 459 454.5 405 c 128
 482 351 482 351 519.5 310 c 128
 557 269 557 269 605.5 245 c 128
 654 221 654 221 713 221 c 257
 738 221 738 221 764.5 227 c 128
 791 233 791 233 815.5 242.5 c 128
 840 252 840 252 861.5 264 c 128
 883 276 883 276 899 289 c 257
 899 616 l 257
 605 635 l 257
 605 840 l 257
 1231 840 l 257
 1231 221 l 257
EndSplineSet
EndChar
StartChar: H
Encoding: 33 72 33
GlifName: H_
Width: 1400
VWidth: 0
Flags: W
LayerCount: 2
Fore
SplineSet
904 0 m 257
 904 688 l 257
 458 688 l 257
 458 0 l 257
 111 0 l 257
 111 1263 l 257
 80 1494 l 257
 458 1526 l 257
 458 916 l 257
 904 916 l 257
 904 1496 l 257
 1250 1527 l 257
 1250 0 l 257
 904 0 l 257
EndSplineSet
EndChar
StartChar: I
Encoding: 34 73 34
GlifName: I_
Width: 600
VWidth: 0
Flags: W
LayerCount: 2
Fore
SplineSet
111 0 m 257
 111 1263 l 257
 78 1494 l 257
 463 1525 l 257
 463 0 l 257
 111 0 l 257
EndSplineSet
EndChar
StartChar: N
Encoding: 48 78 48
GlifName: N_
Width: 1500
VWidth: 0
Flags: W
LayerCount: 2
Fore
SplineSet
1323 1527 m 257
 1323 0 l 257
 1007 0 l 257
 589 700 l 257
 441 1038 l 257
 435 1037 l 257
 473 691 l 257
 473 0 l 257
 131 0 l 257
 131 1263 l 257
 98 1494 l 257
 454 1524 l 257
 879 810 l 257
 1028 449 l 257
 1034 450 l 257
 986 816 l 257
 986 1493 l 257
 1323 1527 l 257
EndSplineSet
EndChar
StartChar: R
Encoding: 69 82 69
GlifName: R_
Width: 1300
VWidth: 0
Flags: W
LayerCount: 2
Fore
SplineSet
474 1130 m 257
 474 802 l 257
 538 802 l 257
 605 802 605 802 654.5 823.5 c 128
 704 845 704 845 736.5 881 c 128
 769 917 769 917 785 965 c 128
 801 1013 801 1013 801 1066 c 257
 801 1136 801 1136 777.5 1182 c 128
 754 1228 754 1228 717 1255.5 c 128
 680 1283 680 1283 633.5 1294 c 128
 587 1305 587 1305 542 1305 c 257
 522 1305 522 1305 510 1305 c 128
 498 1305 498 1305 489.5 1305 c 128
 481 1305 481 1305 473.5 1304.5 c 128
 466 1304 466 1304 457 1303 c 257
 474 1130 l 257
521 564 m 257
 510 578 510 578 496 580.5 c 128
 482 583 482 583 474 583 c 257
 474 0 l 257
 122 0 l 257
 122 1262 l 257
 84 1482 l 257
 129 1487 129 1487 186 1492.5 c 128
 243 1498 243 1498 302 1502 c 128
 361 1506 361 1506 417.5 1508.5 c 128
 474 1511 474 1511 518 1511 c 257
 655 1511 655 1511 767.5 1483.5 c 128
 880 1456 880 1456 960.5 1401.5 c 128
 1041 1347 1041 1347 1085.5 1266.5 c 128
 1130 1186 1130 1186 1130 1081 c 257
 1130 973 1130 973 1096.5 895.5 c 128
 1063 818 1063 818 1006 763.5 c 128
 949 709 949 709 874.5 674 c 128
 800 639 800 639 719 617 c 257
 859 584 l 257
 1295 0 l 257
 927 0 l 257
 521 564 l 257
EndSplineSet
EndChar
StartChar: T
Encoding: 77 84 77
GlifName: T_
Width: 1200
VWidth: 0
Flags: W
LayerCount: 2
Fore
SplineSet
408 0 m 257
 408 1272 l 257
 14 1272 l 257
 14 1500 l 257
 1149 1500 l 257
 1149 1272 l 257
 759 1272 l 257
 759 0 l 257
 408 0 l 257
EndSplineSet
EndChar
StartChar: U
Encoding: 85 85 85
GlifName: U_
Width: 1400
VWidth: 0
Flags: W
LayerCount: 2
Fore
SplineSet
1250 1500 m 257
 1250 534 l 257
 1250 395 1250 395 1205.5 291.5 c 128
 1161 188 1161 188 1082.5 119.5 c 128
 1004 51 1004 51 897.5 17 c 128
 791 -17 791 -17 667 -17 c 257
 533 -17 533 -17 429.5 26 c 128
 326 69 326 69 255.5 148 c 128
 185 227 185 227 148 337.5 c 128
 111 448 111 448 111 582 c 257
 111 1263 l 257
 78 1494 l 257
 458 1526 l 257
 458 564 l 257
 458 483 458 483 475.5 419 c 128
 493 355 493 355 523 311 c 128
 553 267 553 267 592.5 244 c 128
 632 221 632 221 676 221 c 257
 781 221 781 221 842.5 295 c 128
 904 369 904 369 904 516 c 257
 904 1500 l 257
 1250 1500 l 257
EndSplineSet
EndChar
StartChar: V
Encoding: 92 86 92
GlifName: V_
Width: 1300
VWidth: 0
Flags: W
LayerCount: 2
Fore
SplineSet
1290 1500 m 257
 880 204 l 257
 851 -25 l 257
 461 5 l 257
 -16 1492 l 257
 306 1526 l 257
 559 700 l 257
 653 260 l 257
 722 700 l 257
 970 1500 l 257
 1290 1500 l 257
EndSplineSet
EndChar
StartChar: X
Encoding: 94 88 94
GlifName: X_
Width: 1300
VWidth: 0
Flags: W
LayerCount: 2
Fore
SplineSet
700 375 m 257
 608 592 l 257
 550 400 l 257
 310 0 l 257
 -34 0 l 257
 445 797 l 257
 26 1492 l 257
 374 1524 l 257
 569 1198 l 257
 665 962 l 257
 707 1154 l 257
 913 1500 l 257
 1259 1500 l 257
 823 775 l 257
 1288 0 l 257
 924 0 l 257
 700 375 l 257
EndSplineSet
EndChar
StartChar: Y
Encoding: 96 89 96
GlifName: Y_
Width: 1200
VWidth: 0
Flags: W
LayerCount: 2
Fore
SplineSet
511 1143 m 257
 618 773 l 257
 676 1143 l 257
 858 1500 l 257
 1193 1500 l 257
 760 650 l 257
 760 0 l 257
 409 0 l 257
 409 650 l 257
 -20 1492 l 257
 319 1525 l 257
 511 1143 l 257
EndSplineSet
EndChar
StartChar: Z
Encoding: 99 90 99
GlifName: Z_
Width: 1200
VWidth: 0
Flags: W
LayerCount: 2
Fore
SplineSet
1121 228 m 257
 1148 0 l 257
 30 0 l 257
 -4 86 l 257
 622 1187 l 257
 800 1310 l 257
 589 1272 l 257
 86 1272 l 257
 59 1500 l 257
 1087 1500 l 257
 1128 1441 l 257
 495 314 l 257
 300 190 l 257
 514 228 l 257
 1121 228 l 257
EndSplineSet
EndChar
StartChar: bracketleft
Encoding: 170 91 170
GlifName: bracketleft
Width: 900
VWidth: 0
Flags: W
LayerCount: 2
Fore
SplineSet
60 1287 m 257
 34 1519 l 257
 734 1519 l 257
 734 1301 l 257
 384 1301 l 257
 399 1153 l 257
 399 -32 l 257
 384 -180 l 257
 734 -180 l 257
 734 -399 l 257
 34 -399 l 257
 60 -167 l 257
 60 1287 l 257
EndSplineSet
EndChar
StartChar: backslash
Encoding: 144 92 144
GlifName: backslash
Width: 1100
VWidth: 0
Flags: W
LayerCount: 2
Fore
SplineSet
-8 1595 m 257
 334 1595 l 257
 1040 -95 l 257
 687 -95 l 257
 -8 1595 l 257
EndSplineSet
EndChar
StartChar: grave
Encoding: 293 96 293
GlifName: grave
Width: 1100
VWidth: 0
Flags: W
LayerCount: 2
Fore
SplineSet
704 1200 m 257
 446 1200 l 257
 182 1491 l 257
 529 1525 l 257
 704 1200 l 257
EndSplineSet
EndChar
StartChar: b
Encoding: 142 98 142
GlifName: b
Width: 1200
VWidth: 0
Flags: W
LayerCount: 2
Fore
SplineSet
457 212 m 257
 486 207 486 207 519 203.5 c 128
 552 200 552 200 582 200 c 257
 645 200 645 200 685.5 237.5 c 128
 726 275 726 275 749.5 333.5 c 128
 773 392 773 392 782.5 462.5 c 128
 792 533 792 533 792 598 c 257
 792 680 792 680 780 737.5 c 128
 768 795 768 795 748.5 831 c 128
 729 867 729 867 702.5 883.5 c 128
 676 900 676 900 648 900 c 257
 587 900 587 900 541 879 c 128
 495 858 495 858 457 826 c 257
 457 212 l 257
130 1398 m 257
 108 1601 l 257
 457 1632 l 257
 457 974 l 257
 554 1096 l 257
 583 1104 583 1104 615.5 1110.5 c 128
 648 1117 648 1117 676 1117 c 257
 768 1117 768 1117 848.5 1082.5 c 128
 929 1048 929 1048 989 981.5 c 128
 1049 915 1049 915 1084 817 c 128
 1119 719 1119 719 1119 593 c 257
 1119 456 1119 456 1078 343.5 c 128
 1037 231 1037 231 964.5 151 c 128
 892 71 892 71 791.5 27.5 c 128
 691 -16 691 -16 573 -16 c 257
 509 -16 509 -16 443.5 -9.5 c 128
 378 -3 378 -3 318.5 7 c 128
 259 17 259 17 209.5 29.5 c 128
 160 42 160 42 130 54 c 257
 130 1398 l 257
EndSplineSet
EndChar
StartChar: c
Encoding: 176 99 176
GlifName: c
Width: 1000
VWidth: 0
Flags: W
LayerCount: 2
Fore
SplineSet
788 814 m 257
 758 843 758 843 730.5 860 c 128
 703 877 703 877 678 886 c 128
 653 895 653 895 628.5 897.5 c 128
 604 900 604 900 580 900 c 257
 522 900 522 900 481.5 872 c 128
 441 844 441 844 415.5 797.5 c 128
 390 751 390 751 378.5 690 c 128
 367 629 367 629 367 563 c 257
 367 494 367 494 378 428.5 c 128
 389 363 389 363 414.5 312 c 128
 440 261 440 261 483 230.5 c 128
 526 200 526 200 590 200 c 257
 616 200 616 200 646 207 c 128
 676 214 676 214 706.5 226 c 128
 737 238 737 238 766.5 254 c 128
 796 270 796 270 822 288 c 257
 934 93 l 257
 861 43 861 43 772 13 c 128
 683 -17 683 -17 577 -17 c 257
 442 -17 442 -17 341 32.5 c 128
 240 82 240 82 172 164 c 128
 104 246 104 246 70 353 c 128
 36 460 36 460 36 575 c 257
 36 679 36 679 69 777 c 128
 102 875 102 875 169.5 950.5 c 128
 237 1026 237 1026 339.5 1071.5 c 128
 442 1117 442 1117 582 1117 c 257
 690 1117 690 1117 776 1081.5 c 128
 862 1046 862 1046 939 961 c 257
 788 814 l 257
EndSplineSet
EndChar
StartChar: i
Encoding: 311 105 311
GlifName: i
Width: 600
VWidth: 0
Flags: W
LayerCount: 2
Fore
SplineSet
442 0 m 257
 126 0 l 257
 126 1049 l 257
 442 1081 l 257
 442 0 l 257
120 1500 m 257
 448 1500 l 257
 448 1269 l 257
 120 1269 l 257
 120 1500 l 257
EndSplineSet
EndChar
StartChar: j
Encoding: 325 106 325
GlifName: j
Width: 600
VWidth: 0
Flags: W
LayerCount: 2
Fore
SplineSet
-70 -268 m 257
 -69 -268 -69 -268 -68.5 -268.5 c 128
 -68 -269 -68 -269 -67 -269 c 257
 -47 -277 -47 -277 -22 -284 c 128
 3 -291 3 -291 29 -291 c 257
 59 -291 59 -291 79 -277 c 128
 99 -263 99 -263 110 -237.5 c 128
 121 -212 121 -212 125.5 -176 c 128
 130 -140 130 -140 130 -97 c 257
 130 1049 l 257
 447 1081 l 257
 447 -89 l 257
 447 -180 447 -180 431.5 -258.5 c 128
 416 -337 416 -337 375.5 -394.5 c 128
 335 -452 335 -452 264.5 -484.5 c 128
 194 -517 194 -517 83 -517 c 257
 46 -517 46 -517 12.5 -511 c 128
 -21 -505 -21 -505 -48 -496.5 c 128
 -75 -488 -75 -488 -95 -479.5 c 128
 -115 -471 -115 -471 -126 -465 c 257
 -70 -268 l 257
124 1500 m 257
 452 1500 l 257
 452 1269 l 257
 124 1269 l 257
 124 1500 l 257
EndSplineSet
EndChar
StartChar: k
Encoding: 326 107 326
GlifName: k
Width: 1100
VWidth: 0
Flags: W
LayerCount: 2
Fore
SplineSet
130 0 m 257
 130 1397 l 257
 108 1600 l 257
 436 1631 l 257
 436 769 l 257
 701 1100 l 257
 1042 1100 l 257
 680 700 l 257
 476 627 l 257
 665 564 l 257
 1143 0 l 257
 795 0 l 257
 436 458 l 257
 436 0 l 257
 130 0 l 257
EndSplineSet
EndChar
StartChar: m
Encoding: 344 109 344
GlifName: m
Width: 1800
VWidth: 0
Flags: W
LayerCount: 2
Fore
SplineSet
456 0 m 257
 130 0 l 257
 130 1093 l 257
 456 1126 l 257
 456 937 l 257
 546 1088 l 257
 578 1099 578 1099 611.5 1108 c 128
 645 1117 645 1117 680 1117 c 257
 723 1117 723 1117 766.5 1110 c 128
 810 1103 810 1103 848.5 1091 c 128
 887 1079 887 1079 919.5 1061.5 c 128
 952 1044 952 1044 973 1023 c 257
 996 1039 996 1039 1026.5 1056 c 128
 1057 1073 1057 1073 1094.5 1086.5 c 128
 1132 1100 1132 1100 1175 1108.5 c 128
 1218 1117 1218 1117 1266 1117 c 257
 1357 1117 1357 1117 1429.5 1090 c 128
 1502 1063 1502 1063 1552.5 1013.5 c 128
 1603 964 1603 964 1630 893.5 c 128
 1657 823 1657 823 1657 736 c 257
 1657 0 l 257
 1331 0 l 257
 1331 757 l 257
 1331 798 1331 798 1321 825.5 c 128
 1311 853 1311 853 1294.5 869.5 c 128
 1278 886 1278 886 1257.5 893 c 128
 1237 900 1237 900 1215 900 c 257
 1201 900 1201 900 1182 893.5 c 128
 1163 887 1163 887 1141 875.5 c 128
 1119 864 1119 864 1096 848.5 c 128
 1073 833 1073 833 1053 814 c 257
 1055 790 1055 790 1055.5 772.5 c 128
 1056 755 1056 755 1056 727 c 257
 1056 0 l 257
 730 0 l 257
 730 757 l 257
 730 798 730 798 722.5 825.5 c 128
 715 853 715 853 702 869.5 c 128
 689 886 689 886 670.5 893 c 128
 652 900 652 900 630 900 c 257
 613 900 613 900 591.5 894 c 128
 570 888 570 888 547 877.5 c 128
 524 867 524 867 500.5 851 c 128
 477 835 477 835 456 816 c 257
 456 0 l 257
EndSplineSet
EndChar
StartChar: o
Encoding: 373 111 373
GlifName: o
Width: 1200
VWidth: 0
Flags: W
LayerCount: 2
Fore
SplineSet
604 -17 m 257
 484 -17 484 -17 385 26.5 c 128
 286 70 286 70 214.5 146.5 c 128
 143 223 143 223 103.5 327 c 128
 64 431 64 431 64 553 c 257
 64 674 64 674 102 777.5 c 128
 140 881 140 881 210.5 956.5 c 128
 281 1032 281 1032 380.5 1074.5 c 128
 480 1117 480 1117 604 1117 c 257
 724 1117 724 1117 823.5 1074.5 c 128
 923 1032 923 1032 994.5 956.5 c 128
 1066 881 1066 881 1105.5 777.5 c 128
 1145 674 1145 674 1145 553 c 257
 1145 431 1145 431 1107 327 c 128
 1069 223 1069 223 998.5 146.5 c 128
 928 70 928 70 828 26.5 c 128
 728 -17 728 -17 604 -17 c 257
819 528 m 257
 819 596 819 596 807 662 c 128
 795 728 795 728 768.5 780.5 c 128
 742 833 742 833 700.5 865 c 128
 659 897 659 897 600 897 c 257
 545 897 545 897 505 869.5 c 128
 465 842 465 842 439.5 796 c 128
 414 750 414 750 402 691.5 c 128
 390 633 390 633 390 571 c 257
 390 502 390 502 402 436 c 128
 414 370 414 370 440.5 318.5 c 128
 467 267 467 267 508 235 c 128
 549 203 549 203 607 203 c 257
 662 203 662 203 702 230.5 c 128
 742 258 742 258 768 304 c 128
 794 350 794 350 806.5 408 c 128
 819 466 819 466 819 528 c 257
EndSplineSet
EndChar
StartChar: r
Encoding: 447 114 447
GlifName: r
Width: 800
VWidth: 0
Flags: W
LayerCount: 2
Fore
SplineSet
789 867 m 257
 769 877 769 877 753 883.5 c 128
 737 890 737 890 721 894 c 128
 705 898 705 898 687.5 899 c 128
 670 900 670 900 647 900 c 257
 619 900 619 900 590.5 886.5 c 128
 562 873 562 873 535.5 850 c 128
 509 827 509 827 487 797.5 c 128
 465 768 465 768 450 736 c 257
 450 0 l 257
 124 0 l 257
 124 1093 l 257
 450 1126 l 257
 450 895 l 257
 544 1100 l 257
 560 1106 560 1106 589.5 1111.5 c 128
 619 1117 619 1117 645 1117 c 257
 700 1117 700 1117 735.5 1108.5 c 128
 771 1100 771 1100 803 1084 c 257
 789 867 l 257
EndSplineSet
EndChar
StartChar: s
Encoding: 463 115 463
GlifName: s
Width: 900
VWidth: 0
Flags: W
LayerCount: 2
Fore
SplineSet
690 822 m 257
 659 841 659 841 625.5 855.5 c 128
 592 870 592 870 560.5 880 c 128
 529 890 529 890 502 895 c 128
 475 900 475 900 459 900 c 257
 342 900 342 900 342 822 c 257
 342 796 342 796 364 776 c 128
 386 756 386 756 422 738 c 128
 458 720 458 720 504.5 702 c 128
 551 684 551 684 599 662 c 128
 647 640 647 640 693.5 613.5 c 128
 740 587 740 587 776 551.5 c 128
 812 516 812 516 834 470 c 128
 856 424 856 424 856 364 c 257
 856 260 856 260 820 188 c 128
 784 116 784 116 721 70 c 128
 658 24 658 24 572.5 3.5 c 128
 487 -17 487 -17 389 -17 c 257
 351 -17 351 -17 300 -8 c 128
 249 1 249 1 196.5 16 c 128
 144 31 144 31 95 51.5 c 128
 46 72 46 72 12 96 c 257
 112 286 l 257
 148 268 148 268 187.5 252 c 128
 227 236 227 236 265 224.5 c 128
 303 213 303 213 338 206.5 c 128
 373 200 373 200 400 200 c 257
 428 200 428 200 454.5 208 c 128
 481 216 481 216 501 232.5 c 128
 521 249 521 249 533 274.5 c 128
 545 300 545 300 545 336 c 257
 545 372 545 372 523.5 398.5 c 128
 502 425 502 425 466.5 447 c 128
 431 469 431 469 385.5 488 c 128
 340 507 340 507 292.5 528.5 c 128
 245 550 245 550 199.5 575 c 128
 154 600 154 600 118.5 633.5 c 128
 83 667 83 667 61.5 710.5 c 128
 40 754 40 754 40 813 c 257
 40 894 40 894 70.5 952 c 128
 101 1010 101 1010 156.5 1046.5 c 128
 212 1083 212 1083 290 1100 c 128
 368 1117 368 1117 462 1117 c 257
 506 1117 506 1117 550.5 1108.5 c 128
 595 1100 595 1100 637 1086.5 c 128
 679 1073 679 1073 715.5 1056 c 128
 752 1039 752 1039 779 1021 c 257
 690 822 l 257
EndSplineSet
EndChar
StartChar: w
Encoding: 557 119 557
GlifName: w
Width: 1500
VWidth: 0
Flags: W
LayerCount: 2
Fore
SplineSet
954 800 m 257
 1029 272 l 257
 1089 800 l 257
 1160 1094 l 257
 1465 1124 l 257
 1154 0 l 257
 893 0 l 257
 818 300 l 257
 751 820 l 257
 678 300 l 257
 610 0 l 257
 349 0 l 257
 48 1093 l 257
 354 1126 l 257
 428 800 l 257
 494 270 l 257
 564 800 l 257
 638 1100 l 257
 885 1100 l 257
 954 800 l 257
EndSplineSet
EndChar
StartChar: x
Encoding: 580 120 580
GlifName: x
Width: 1100
VWidth: 0
Flags: W
LayerCount: 2
Fore
SplineSet
597 272 m 257
 531 474 l 257
 463 272 l 257
 295 0 l 257
 -44 0 l 257
 367 585 l 257
 11 1093 l 257
 353 1120 l 257
 494 900 l 257
 556 699 l 257
 616 900 l 257
 755 1096 l 257
 1111 1124 l 257
 731 581 l 257
 1139 0 l 257
 778 0 l 257
 597 272 l 257
EndSplineSet
EndChar
StartChar: y
Encoding: 582 121 582
GlifName: y
Width: 1100
VWidth: 0
Flags: W
LayerCount: 2
Fore
SplineSet
471 670 m 257
 550 190 l 257
 627 670 l 257
 788 1095 l 257
 1110 1124 l 257
 702 8 l 257
 672 -75 672 -75 634 -161.5 c 128
 596 -248 596 -248 546 -319 c 128
 496 -390 496 -390 431.5 -435 c 128
 367 -480 367 -480 283 -480 c 257
 216 -480 216 -480 150.5 -452 c 128
 85 -424 85 -424 27 -374 c 257
 150 -194 l 257
 173 -209 173 -209 199 -221.5 c 128
 225 -234 225 -234 252 -234 c 257
 295 -234 295 -234 329.5 -184 c 128
 364 -134 364 -134 401 -47 c 257
 -16 1093 l 257
 307 1121 l 257
 471 670 l 257
EndSplineSet
EndChar
StartChar: z
Encoding: 586 122 586
GlifName: z
Width: 1000
VWidth: 0
Flags: W
LayerCount: 2
Fore
SplineSet
544 200 m 257
 917 200 l 257
 944 0 l 257
 41 0 l 257
 8 85 l 257
 408 757 l 257
 639 935 l 257
 368 900 l 257
 94 900 l 257
 67 1100 l 257
 863 1100 l 257
 895 1017 l 257
 500 339 l 257
 273 165 l 257
 544 200 l 257
EndSplineSet
EndChar
StartChar: braceleft
Encoding: 168 123 168
GlifName: braceleft
Width: 1298
VWidth: 0
Flags: W
LayerCount: 2
Fore
SplineSet
1003 1260 m 257
 969 1280 969 1280 925.5 1292.5 c 128
 882 1305 882 1305 847 1305 c 257
 817 1303 817 1303 799 1288.5 c 128
 781 1274 781 1274 772 1248 c 128
 763 1222 763 1222 760 1184.5 c 128
 757 1147 757 1147 757 1099 c 257
 757 864 l 257
 757 808 757 808 741.5 759 c 128
 726 710 726 710 702 670.5 c 128
 678 631 678 631 649 600.5 c 128
 620 570 620 570 593 550 c 257
 620 530 620 530 649 500 c 128
 678 470 678 470 702 430 c 128
 726 390 726 390 741.5 341.5 c 128
 757 293 757 293 757 238 c 257
 757 -2 l 257
 757 -50 757 -50 760 -88 c 128
 763 -126 763 -126 772 -153 c 128
 781 -180 781 -180 799 -194 c 128
 817 -208 817 -208 847 -208 c 257
 882 -208 882 -208 925.5 -195.5 c 128
 969 -183 969 -183 1003 -163 c 257
 1099 -348 l 257
 1066 -363 1066 -363 1035.5 -376.5 c 128
 1005 -390 1005 -390 971 -399.5 c 128
 937 -409 937 -409 896.5 -414.5 c 128
 856 -420 856 -420 804 -420 c 257
 691 -420 691 -420 616 -388 c 128
 541 -356 541 -356 496.5 -300 c 128
 452 -244 452 -244 433.5 -167.5 c 128
 415 -91 415 -91 415 -2 c 257
 415 238 l 257
 415 327 415 327 399.5 379.5 c 128
 384 432 384 432 338 442 c 257
 200 462 l 257
 200 640 l 257
 338 660 l 257
 384 671 384 671 399.5 723.5 c 128
 415 776 415 776 415 864 c 257
 415 1099 l 257
 415 1188 415 1188 433.5 1264.5 c 128
 452 1341 452 1341 496.5 1397 c 128
 541 1453 541 1453 616 1485 c 128
 691 1517 691 1517 804 1517 c 257
 856 1517 856 1517 896.5 1511.5 c 128
 937 1506 937 1506 971 1496.5 c 128
 1005 1487 1005 1487 1035.5 1474 c 128
 1066 1461 1066 1461 1099 1445 c 257
 1003 1260 l 257
EndSplineSet
EndChar
StartChar: asciitilde
Encoding: 136 126 136
GlifName: asciitilde
Width: 1500
VWidth: 0
Flags: W
LayerCount: 2
Fore
SplineSet
126 441 m 257
 132 508 132 508 158.5 578 c 128
 185 648 185 648 234.5 705 c 128
 284 762 284 762 359.5 798.5 c 128
 435 835 435 835 539 835 c 257
 593 835 593 835 633 825 c 128
 673 815 673 815 704.5 800.5 c 128
 736 786 736 786 761 769 c 128
 786 752 786 752 810.5 737.5 c 128
 835 723 835 723 861.5 713 c 128
 888 703 888 703 922 703 c 257
 991 703 991 703 1033.5 731 c 128
 1076 759 1076 759 1086 818 c 257
 1361 802 l 257
 1356 729 1356 729 1333.5 657 c 128
 1311 585 1311 585 1264 528 c 128
 1217 471 1217 471 1142 435.5 c 128
 1067 400 1067 400 957 400 c 257
 907 400 907 400 870 410 c 128
 833 420 833 420 803.5 434.5 c 128
 774 449 774 449 749.5 466 c 128
 725 483 725 483 699 497.5 c 128
 673 512 673 512 644 522 c 128
 615 532 615 532 576 532 c 257
 518 532 518 532 478.5 506 c 128
 439 480 439 480 426 430 c 257
 126 441 l 257
EndSplineSet
EndChar
StartChar: exclamdown
Encoding: 258 161 258
GlifName: exclamdown
Width: 700
VWidth: 0
Flags: W
LayerCount: 2
Fore
SplineSet
100 -399 m 257
 100 692 l 257
 400 657 l 257
 400 -399 l 257
 100 -399 l 257
103 964 m 257
 103 995 103 995 114.5 1022.5 c 128
 126 1050 126 1050 146 1070.5 c 128
 166 1091 166 1091 193.5 1103 c 128
 221 1115 221 1115 252 1115 c 257
 282 1115 282 1115 309 1103 c 128
 336 1091 336 1091 355.5 1070.5 c 128
 375 1050 375 1050 386.5 1022.5 c 128
 398 995 398 995 398 964 c 257
 398 934 398 934 386.5 907 c 128
 375 880 375 880 355 859.5 c 128
 335 839 335 839 307.5 827.5 c 128
 280 816 280 816 250 816 c 257
 220 816 220 816 193 827.5 c 128
 166 839 166 839 146 859.5 c 128
 126 880 126 880 114.5 907 c 128
 103 934 103 934 103 964 c 257
EndSplineSet
EndChar
StartChar: sterling
Encoding: 506 163 506
GlifName: sterling
Width: 1100
VWidth: 0
Flags: W
LayerCount: 2
Fore
SplineSet
678 216 m 257
 999 216 l 257
 999 0 l 257
 50 0 l 257
 79 216 l 257
 212 216 l 257
 214 218 214 218 217 224.5 c 128
 220 231 220 231 225 249 c 257
 233 277 233 277 254 378 c 128
 275 479 275 479 302 665 c 257
 174 665 l 257
 174 883 l 257
 333 883 l 257
 371 1150 l 257
 383 1229 383 1229 408 1296.5 c 128
 433 1364 433 1364 477 1413 c 128
 521 1462 521 1462 587 1489.5 c 128
 653 1517 653 1517 746 1517 c 257
 800 1517 800 1517 842.5 1510.5 c 128
 885 1504 885 1504 922 1489.5 c 128
 959 1475 959 1475 993.5 1451.5 c 128
 1028 1428 1028 1428 1066 1395 c 257
 936 1228 l 257
 886 1273 886 1273 853 1288 c 128
 820 1303 820 1303 790 1303 c 257
 767 1303 767 1303 750.5 1289.5 c 128
 734 1276 734 1276 722.5 1251.5 c 128
 711 1227 711 1227 703.5 1192.5 c 128
 696 1158 696 1158 690 1116 c 257
 657 883 l 257
 852 883 l 257
 825 665 l 257
 627 665 l 257
 619 601 619 601 613.5 556 c 128
 608 511 608 511 602 474.5 c 128
 596 438 596 438 589 404.5 c 128
 582 371 582 371 572 331 c 257
 430 157 l 257
 678 216 l 257
EndSplineSet
EndChar
StartChar: currency
Encoding: 213 164 213
GlifName: currency
Width: 1200
VWidth: 0
Flags: W
LayerCount: 2
Fore
SplineSet
1103 249 m 257
 927 72 l 257
 761 238 l 257
 681 205 681 205 586 205 c 257
 538 205 538 205 493.5 213 c 128
 449 221 449 221 410 238 c 257
 245 72 l 257
 68 249 l 257
 220 400 l 257
 163 496 163 496 163 590 c 257
 163 635 163 635 177 683 c 128
 191 731 191 731 220 779 c 257
 68 930 l 257
 244 1109 l 257
 410 942 l 257
 450 959 450 959 494 966.5 c 128
 538 974 538 974 586 974 c 257
 633 974 633 974 677 966.5 c 128
 721 959 721 959 761 942 c 257
 928 1109 l 257
 1103 930 l 257
 952 779 l 257
 1008 682 1008 682 1008 590 c 257
 1008 544 1008 544 994 495.5 c 128
 980 447 980 447 952 400 c 257
 1103 249 l 257
421 590 m 257
 421 542 421 542 436.5 508.5 c 128
 452 475 452 475 476 455 c 128
 500 435 500 435 529.5 426 c 128
 559 417 559 417 586 417 c 257
 613 417 613 417 642 426 c 128
 671 435 671 435 695 455 c 128
 719 475 719 475 734.5 508.5 c 128
 750 542 750 542 750 590 c 257
 750 638 750 638 734.5 671 c 128
 719 704 719 704 695 724 c 128
 671 744 671 744 642 752.5 c 128
 613 761 613 761 586 761 c 257
 559 761 559 761 529.5 752.5 c 128
 500 744 500 744 476 724 c 128
 452 704 452 704 436.5 671 c 128
 421 638 421 638 421 590 c 257
EndSplineSet
EndChar
StartChar: yen
Encoding: 585 165 585
GlifName: yen
Width: 1200
VWidth: 0
Flags: W
LayerCount: 2
Fore
SplineSet
100 589 m 257
 409 589 l 257
 409 650 l 257
 383 700 l 257
 100 700 l 257
 100 889 l 257
 287 889 l 257
 -20 1492 l 257
 319 1525 l 257
 511 1143 l 257
 618 773 l 257
 676 1143 l 257
 858 1500 l 257
 1193 1500 l 257
 882 889 l 257
 1100 889 l 257
 1100 700 l 257
 785 700 l 257
 760 650 l 257
 760 589 l 257
 1100 589 l 257
 1100 400 l 257
 760 400 l 257
 760 0 l 257
 409 0 l 257
 409 400 l 257
 100 400 l 257
 100 589 l 257
EndSplineSet
EndChar
StartChar: brokenbar
Encoding: 173 166 173
GlifName: brokenbar
Width: 400
VWidth: 0
Flags: W
LayerCount: 2
Fore
SplineSet
366 1527 m 257
 366 700 l 257
 24 700 l 257
 24 1493 l 257
 366 1527 l 257
366 362 m 257
 366 -400 l 257
 24 -400 l 257
 24 362 l 257
 366 362 l 257
EndSplineSet
EndChar
StartChar: dieresis
Encoding: 223 168 223
GlifName: dieresis
Width: 1100
VWidth: 0
Flags: W
LayerCount: 2
Fore
SplineSet
224 1500 m 257
 500 1500 l 257
 500 1234 l 257
 224 1234 l 257
 224 1500 l 257
624 1500 m 257
 900 1500 l 257
 900 1234 l 257
 624 1234 l 257
 624 1500 l 257
EndSplineSet
EndChar
StartChar: registered
Encoding: 454 174 454
GlifName: registered
Width: 1100
VWidth: 0
Flags: W
LayerCount: 2
Fore
SplineSet
550 1517 m 257
 647 1517 647 1517 732.5 1480 c 128
 818 1443 818 1443 882 1379 c 128
 946 1315 946 1315 983 1229.5 c 128
 1020 1144 1020 1144 1020 1047 c 257
 1020 949 1020 949 983 863.5 c 128
 946 778 946 778 882 714.5 c 128
 818 651 818 651 732.5 614 c 128
 647 577 647 577 550 577 c 257
 453 577 453 577 367.5 614 c 128
 282 651 282 651 218 714.5 c 128
 154 778 154 778 117 863.5 c 128
 80 949 80 949 80 1047 c 257
 80 1144 80 1144 117 1229.5 c 128
 154 1315 154 1315 218 1379 c 128
 282 1443 282 1443 367.5 1480 c 128
 453 1517 453 1517 550 1517 c 257
550 701 m 257
 620 701 620 701 682.5 728.5 c 128
 745 756 745 756 792.5 803 c 128
 840 850 840 850 868 913 c 128
 896 976 896 976 896 1047 c 257
 896 1119 896 1119 869 1182 c 128
 842 1245 842 1245 795 1292 c 128
 748 1339 748 1339 685 1366 c 128
 622 1393 622 1393 550 1393 c 257
 478 1393 478 1393 415 1366 c 128
 352 1339 352 1339 305 1292 c 128
 258 1245 258 1245 231 1182 c 128
 204 1119 204 1119 204 1047 c 257
 204 977 204 977 231.5 914.5 c 128
 259 852 259 852 306 804.5 c 128
 353 757 353 757 416 729 c 128
 479 701 479 701 550 701 c 257
512 1174 m 257
 512 1065 l 257
 532 1065 l 257
 554 1065 554 1065 569.5 1072.5 c 128
 585 1080 585 1080 595.5 1092 c 128
 606 1104 606 1104 611 1119.5 c 128
 616 1135 616 1135 616 1153 c 257
 616 1176 616 1176 608.5 1191 c 128
 601 1206 601 1206 589.5 1215.5 c 128
 578 1225 578 1225 563 1228.5 c 128
 548 1232 548 1232 533 1232 c 257
 527 1232 527 1232 523 1232 c 128
 519 1232 519 1232 516.5 1232 c 128
 514 1232 514 1232 511.5 1232 c 128
 509 1232 509 1232 506 1231 c 257
 512 1174 l 257
527 987 m 257
 523 991 523 991 518.5 992 c 128
 514 993 514 993 512 993 c 257
 512 800 l 257
 399 800 l 257
 399 1218 l 257
 387 1291 l 257
 401 1292 401 1292 419.5 1294 c 128
 438 1296 438 1296 457 1297 c 128
 476 1298 476 1298 494 1299 c 128
 512 1300 512 1300 526 1300 c 257
 570 1300 570 1300 606 1291 c 128
 642 1282 642 1282 667.5 1264 c 128
 693 1246 693 1246 707.5 1219.5 c 128
 722 1193 722 1193 722 1158 c 257
 722 1122 722 1122 711 1096.5 c 128
 700 1071 700 1071 682 1053 c 128
 664 1035 664 1035 640 1023.5 c 128
 616 1012 616 1012 590 1004 c 257
 635 993 l 257
 774 800 l 257
 657 800 l 257
 527 987 l 257
EndSplineSet
EndChar
StartChar: macron
Encoding: 345 175 345
GlifName: macron
Width: 1100
VWidth: 0
Flags: W
LayerCount: 2
Fore
SplineSet
200 1500 m 257
 900 1500 l 257
 900 1282 l 257
 200 1282 l 257
 200 1500 l 257
EndSplineSet
EndChar
StartChar: degree
Encoding: 219 176 219
GlifName: degree
Width: 600
VWidth: 0
Flags: W
LayerCount: 2
Fore
SplineSet
300 1517 m 257
 361 1517 361 1517 415 1496 c 128
 469 1475 469 1475 509.5 1438 c 128
 550 1401 550 1401 573 1352 c 128
 596 1303 596 1303 596 1247 c 257
 596 1191 596 1191 573 1142 c 128
 550 1093 550 1093 509.5 1056.5 c 128
 469 1020 469 1020 415 998.5 c 128
 361 977 361 977 300 977 c 257
 238 977 238 977 184.5 998.5 c 128
 131 1020 131 1020 90.5 1056.5 c 128
 50 1093 50 1093 27 1142 c 128
 4 1191 4 1191 4 1247 c 257
 4 1303 4 1303 27 1352 c 128
 50 1401 50 1401 90.5 1438 c 128
 131 1475 131 1475 184.5 1496 c 128
 238 1517 238 1517 300 1517 c 257
300 1145 m 257
 323 1145 323 1145 343.5 1153 c 128
 364 1161 364 1161 379 1175 c 128
 394 1189 394 1189 403 1207.5 c 128
 412 1226 412 1226 412 1247 c 257
 412 1268 412 1268 403 1286.5 c 128
 394 1305 394 1305 379 1319 c 128
 364 1333 364 1333 343.5 1341 c 128
 323 1349 323 1349 300 1349 c 257
 277 1349 277 1349 256.5 1341 c 128
 236 1333 236 1333 221 1319 c 128
 206 1305 206 1305 197 1286.5 c 128
 188 1268 188 1268 188 1247 c 257
 188 1226 188 1226 197 1207.5 c 128
 206 1189 206 1189 221 1175 c 128
 236 1161 236 1161 256.5 1153 c 128
 277 1145 277 1145 300 1145 c 257
EndSplineSet
EndChar
StartChar: twosuperior
Encoding: 540 178 540
GlifName: twosuperior
Width: 600
VWidth: 0
Flags: W
LayerCount: 2
Fore
SplineSet
56 720 m 257
 56 815 l 257
 79 852 79 852 110 892.5 c 128
 141 933 141 933 173.5 972.5 c 128
 206 1012 206 1012 237 1047 c 128
 268 1082 268 1082 291 1107 c 257
 318 1136 318 1136 337 1156 c 128
 356 1176 356 1176 367.5 1193 c 128
 379 1210 379 1210 384.5 1227.5 c 128
 390 1245 390 1245 390 1268 c 257
 390 1287 390 1287 383.5 1305 c 128
 377 1323 377 1323 365.5 1337.5 c 128
 354 1352 354 1352 338 1361 c 128
 322 1370 322 1370 301 1370 c 257
 260 1370 260 1370 229 1342.5 c 128
 198 1315 198 1315 174 1268 c 257
 58 1311 l 257
 72 1350 72 1350 95 1380.5 c 128
 118 1411 118 1411 149.5 1433 c 128
 181 1455 181 1455 220.5 1466.5 c 128
 260 1478 260 1478 309 1478 c 257
 366 1478 366 1478 410.5 1459.5 c 128
 455 1441 455 1441 485.5 1410.5 c 128
 516 1380 516 1380 532 1341 c 128
 548 1302 548 1302 548 1263 c 257
 548 1228 548 1228 537 1198.5 c 128
 526 1169 526 1169 507.5 1141.5 c 128
 489 1114 489 1114 465.5 1087 c 128
 442 1060 442 1060 417 1030 c 257
 392 1000 392 1000 365.5 969 c 128
 339 938 339 938 314.5 910 c 128
 290 882 290 882 270.5 858.5 c 128
 251 835 251 835 240 820 c 257
 561 820 l 257
 561 720 l 257
 56 720 l 257
EndSplineSet
EndChar
StartChar: acute
Encoding: 104 180 104
GlifName: acute
Width: 1100
VWidth: 0
Flags: W
LayerCount: 2
Fore
SplineSet
526 1496 m 257
 917 1528 l 257
 625 1200 l 257
 366 1200 l 257
 526 1496 l 257
EndSplineSet
EndChar
StartChar: mu
Encoding: 354 181 354
GlifName: mu
Width: 1300
VWidth: 0
Flags: W
LayerCount: 2
Fore
SplineSet
1269 51 m 257
 1254 37 1254 37 1237 25 c 128
 1220 13 1220 13 1195 3.5 c 128
 1170 -6 1170 -6 1136.5 -11.5 c 128
 1103 -17 1103 -17 1055 -17 c 257
 1021 -17 1021 -17 988 -5 c 128
 955 7 955 7 926 32 c 128
 897 57 897 57 872.5 96 c 128
 848 135 848 135 832 190 c 257
 785 72 l 257
 767 56 767 56 743.5 40 c 128
 720 24 720 24 690 11.5 c 128
 660 -1 660 -1 624 -9 c 128
 588 -17 588 -17 545 -17 c 257
 525 -17 525 -17 496 -12 c 128
 467 -7 467 -7 437.5 1.5 c 128
 408 10 408 10 383 20 c 128
 358 30 358 30 346 40 c 257
 411 -166 l 257
 411 -500 l 257
 100 -500 l 257
 100 1093 l 257
 411 1125 l 257
 411 362 l 257
 411 324 411 324 423.5 293.5 c 128
 436 263 436 263 456.5 242 c 128
 477 221 477 221 502.5 210 c 128
 528 199 528 199 555 199 c 257
 598 199 598 199 634.5 219.5 c 128
 671 240 671 240 700 268 c 257
 700 1093 l 257
 1011 1125 l 257
 1011 365 l 257
 1011 273 1011 273 1030 236 c 128
 1049 199 1049 199 1084 199 c 257
 1111 199 1111 199 1128 204.5 c 128
 1145 210 1145 210 1170 223 c 257
 1269 51 l 257
EndSplineSet
EndChar
StartChar: cedilla
Encoding: 181 184 181
GlifName: cedilla
Width: 1100
VWidth: 0
Flags: W
LayerCount: 2
Fore
SplineSet
562 0 m 257
 589 -20 589 -20 611 -46 c 257
 630 -69 630 -69 645.5 -100.5 c 128
 661 -132 661 -132 661 -171 c 257
 661 -221 661 -221 637.5 -264 c 128
 614 -307 614 -307 574 -338.5 c 128
 534 -370 534 -370 482 -388.5 c 128
 430 -407 430 -407 373 -407 c 257
 313 -407 313 -407 255.5 -389 c 128
 198 -371 198 -371 150 -349 c 257
 95 -323 95 -323 44 -290 c 257
 159 -131 l 257
 191 -151 191 -151 223 -166 c 257
 249 -179 249 -179 278.5 -189.5 c 128
 308 -200 308 -200 330 -200 c 257
 353 -200 353 -200 373.5 -187.5 c 128
 394 -175 394 -175 394 -147 c 257
 394 -126 394 -126 382 -102.5 c 128
 370 -79 370 -79 354 -58 c 128
 338 -37 338 -37 322.5 -21.5 c 128
 307 -6 307 -6 300 0 c 257
 562 0 l 257
EndSplineSet
EndChar
StartChar: onequarter
Encoding: 388 188 388
GlifName: onequarter
Width: 1500
VWidth: 0
Flags: W
LayerCount: 2
Fore
SplineSet
474 0 m 257
 289 0 l 257
 1064 1500 l 257
 1240 1500 l 257
 474 0 l 257
284 1162 m 257
 321 1343 l 257
 207 1208 l 257
 165 1171 l 257
 88 1263 l 257
 328 1484 l 257
 449 1468 l 257
 449 822 l 257
 571 822 l 257
 571 722 l 257
 162 722 l 257
 162 822 l 257
 284 822 l 257
 284 1162 l 257
1398 188 m 257
 1309 188 l 257
 1309 38 l 257
 1149 38 l 257
 1149 188 l 257
 849 188 l 257
 849 288 l 257
 1096 800 l 257
 1254 784 l 257
 1090 419 l 257
 1003 288 l 257
 1149 288 l 257
 1149 437 l 257
 1309 424 l 257
 1309 288 l 257
 1409 288 l 257
 1398 188 l 257
EndSplineSet
EndChar
StartChar: threequarters
Encoding: 524 190 524
GlifName: threequarters
Width: 1500
VWidth: 0
Flags: W
LayerCount: 2
Fore
SplineSet
474 0 m 257
 289 0 l 257
 1064 1500 l 257
 1240 1500 l 257
 474 0 l 257
150 1191 m 257
 165 1201 165 1201 185.5 1216 c 128
 206 1231 206 1231 229 1249 c 128
 252 1267 252 1267 276.5 1287 c 128
 301 1307 301 1307 323 1327.5 c 128
 345 1348 345 1348 363.5 1369 c 128
 382 1390 382 1390 394 1409 c 257
 264 1372 l 257
 99 1372 l 257
 109 1472 l 257
 530 1472 l 257
 530 1385 l 257
 515 1346 515 1346 486 1313 c 128
 457 1280 457 1280 421 1248 c 257
 343 1206 l 257
 396 1206 396 1206 439 1192.5 c 128
 482 1179 482 1179 512.5 1153.5 c 128
 543 1128 543 1128 560 1091 c 128
 577 1054 577 1054 577 1008 c 257
 577 959 577 959 556.5 918.5 c 128
 536 878 536 878 501 846 c 128
 466 814 466 814 418.5 790.5 c 128
 371 767 371 767 317.5 752 c 128
 264 737 264 737 206.5 729.5 c 128
 149 722 149 722 94 722 c 257
 94 822 l 257
 153 824 153 824 209 837.5 c 128
 265 851 265 851 309 874 c 128
 353 897 353 897 379.5 930 c 128
 406 963 406 963 406 1003 c 257
 406 1032 406 1032 394 1052 c 128
 382 1072 382 1072 361 1084 c 128
 340 1096 340 1096 312 1101.5 c 128
 284 1107 284 1107 253 1107 c 257
 246 1107 246 1107 231.5 1106 c 128
 217 1105 217 1105 201.5 1104.5 c 128
 186 1104 186 1104 171.5 1103 c 128
 157 1102 157 1102 150 1102 c 257
 150 1191 l 257
1398 188 m 257
 1309 188 l 257
 1309 38 l 257
 1149 38 l 257
 1149 188 l 257
 849 188 l 257
 849 288 l 257
 1096 800 l 257
 1254 784 l 257
 1090 419 l 257
 1003 288 l 257
 1149 288 l 257
 1149 437 l 257
 1309 424 l 257
 1309 288 l 257
 1409 288 l 257
 1398 188 l 257
EndSplineSet
EndChar
StartChar: questiondown
Encoding: 437 191 437
GlifName: questiondown
Width: 1100
VWidth: 0
Flags: W
LayerCount: 2
Fore
SplineSet
34 -22 m 257
 34 38 34 38 54 87.5 c 128
 74 137 74 137 106 180 c 128
 138 223 138 223 180 261 c 128
 222 299 222 299 265 337 c 257
 294 362 294 362 323.5 393.5 c 128
 353 425 353 425 376.5 465 c 128
 400 505 400 505 414.5 555 c 128
 429 605 429 605 429 668 c 257
 740 703 l 257
 739 616 739 616 726.5 540 c 128
 714 464 714 464 685 397 c 128
 656 330 656 330 609 271.5 c 128
 562 213 562 213 491 160 c 257
 469 141 469 141 448 121 c 128
 427 101 427 101 411 78.5 c 128
 395 56 395 56 385 29.5 c 128
 375 3 375 3 375 -30 c 257
 375 -70 375 -70 389.5 -98.5 c 128
 404 -127 404 -127 428.5 -145.5 c 128
 453 -164 453 -164 485 -172.5 c 128
 517 -181 517 -181 551 -181 c 257
 577 -181 577 -181 614.5 -172.5 c 128
 652 -164 652 -164 694.5 -144.5 c 128
 737 -125 737 -125 779.5 -93 c 128
 822 -61 822 -61 856 -15 c 257
 1038 -166 l 257
 981 -242 981 -242 916.5 -290.5 c 128
 852 -339 852 -339 785 -366.5 c 128
 718 -394 718 -394 652 -404.5 c 128
 586 -415 586 -415 527 -415 c 257
 432 -415 432 -415 343 -391.5 c 128
 254 -368 254 -368 185.5 -319.5 c 128
 117 -271 117 -271 75.5 -197 c 128
 34 -123 34 -123 34 -22 c 257
720 965 m 257
 720 935 720 935 708.5 908 c 128
 697 881 697 881 677 860.5 c 128
 657 840 657 840 630 828.5 c 128
 603 817 603 817 573 817 c 257
 543 817 543 817 515.5 828.5 c 128
 488 840 488 840 468 860.5 c 128
 448 881 448 881 436.5 908 c 128
 425 935 425 935 425 965 c 257
 425 996 425 996 436.5 1023.5 c 128
 448 1051 448 1051 467.5 1071.5 c 128
 487 1092 487 1092 514 1104 c 128
 541 1116 541 1116 571 1116 c 257
 602 1116 602 1116 629.5 1104 c 128
 657 1092 657 1092 677 1071.5 c 128
 697 1051 697 1051 708.5 1023.5 c 128
 720 996 720 996 720 965 c 257
EndSplineSet
EndChar
StartChar: Eth
Encoding: 26 208 26
GlifName: E_th
Width: 1300
VWidth: 0
Flags: W
LayerCount: 2
Fore
SplineSet
0 888 m 257
 130 888 l 257
 130 1263 l 257
 96 1493 l 257
 145 1498 145 1498 200 1501 c 128
 255 1504 255 1504 308.5 1506 c 128
 362 1508 362 1508 409.5 1509 c 128
 457 1510 457 1510 490 1510 c 257
 658 1510 658 1510 800.5 1470.5 c 128
 943 1431 943 1431 1047 1346.5 c 128
 1151 1262 1151 1262 1210 1128.5 c 128
 1269 995 1269 995 1269 807 c 257
 1269 662 1269 662 1240 545.5 c 128
 1211 429 1211 429 1158.5 339.5 c 128
 1106 250 1106 250 1033 185.5 c 128
 960 121 960 121 872.5 80 c 128
 785 39 785 39 686 19.5 c 128
 587 0 587 0 482 0 c 257
 130 0 l 257
 130 665 l 257
 0 665 l 257
 0 888 l 257
482 1289 m 257
 477 1289 477 1289 471.5 1289 c 128
 466 1289 466 1289 460 1288 c 257
 481 1127 l 257
 481 888 l 257
 661 888 l 257
 661 665 l 257
 481 665 l 257
 481 230 l 257
 586 236 586 236 659.5 266 c 128
 733 296 733 296 781.5 340.5 c 128
 830 385 830 385 857.5 440.5 c 128
 885 496 885 496 898.5 555 c 128
 912 614 912 614 915 671.5 c 128
 918 729 918 729 918 778 c 257
 918 890 918 890 900.5 984 c 128
 883 1078 883 1078 835 1146 c 128
 787 1214 787 1214 702 1251.5 c 128
 617 1289 617 1289 482 1289 c 257
EndSplineSet
EndChar
StartChar: multiply
Encoding: 356 215 356
GlifName: multiply
Width: 1600
VWidth: 0
Flags: W
LayerCount: 2
Fore
SplineSet
469 119 m 257
 282 269 l 257
 648 633 l 257
 282 998 l 257
 469 1149 l 257
 770 847 l 257
 840 729 l 257
 862 847 l 257
 1162 1149 l 257
 1349 998 l 257
 984 633 l 257
 1349 269 l 257
 1162 119 l 257
 862 419 l 257
 792 538 l 257
 770 419 l 257
 469 119 l 257
EndSplineSet
EndChar
StartChar: Thorn
Encoding: 81 222 81
GlifName: T_horn
Width: 1300
VWidth: 0
Flags: W
LayerCount: 2
Fore
SplineSet
106 1500 m 257
 470 1500 l 257
 470 1311 l 257
 584 1311 l 257
 635 1311 635 1311 692.5 1302 c 128
 750 1293 750 1293 805.5 1272.5 c 128
 861 1252 861 1252 912 1219 c 128
 963 1186 963 1186 1002 1138 c 128
 1041 1090 1041 1090 1064 1026.5 c 128
 1087 963 1087 963 1087 882 c 257
 1087 825 1087 825 1078.5 763.5 c 128
 1070 702 1070 702 1043 643 c 128
 1016 584 1016 584 966.5 531 c 128
 917 478 917 478 835 438 c 257
 809 426 809 426 780 415.5 c 128
 751 405 751 405 716 397.5 c 128
 681 390 681 390 639 385.5 c 128
 597 381 597 381 546 381 c 257
 470 381 l 257
 470 0 l 257
 128 0 l 257
 128 1267 l 257
 106 1500 l 257
470 1093 m 257
 470 605 l 257
 574 605 l 257
 623 605 623 605 659.5 626 c 128
 696 647 696 647 719 684.5 c 128
 742 722 742 722 753.5 772.5 c 128
 765 823 765 823 765 882 c 257
 765 983 765 983 708.5 1038 c 128
 652 1093 652 1093 555 1093 c 257
 470 1093 l 257
EndSplineSet
EndChar
StartChar: germandbls
Encoding: 291 223 291
GlifName: germandbls
Width: 1300
VWidth: 0
Flags: W
LayerCount: 2
Fore
SplineSet
469 -21 m 257
 126 5 l 257
 126 1073 l 257
 126 1176 126 1176 161.5 1254 c 128
 197 1332 197 1332 261.5 1384.5 c 128
 326 1437 326 1437 415 1463 c 128
 504 1489 504 1489 612 1489 c 257
 843 1489 843 1489 953 1373 c 257
 978 1346 978 1346 999 1319.5 c 128
 1020 1293 1020 1293 1035 1263.5 c 128
 1050 1234 1050 1234 1058.5 1200.5 c 128
 1067 1167 1067 1167 1067 1127 c 257
 1067 1074 1067 1074 1052 1027 c 128
 1037 980 1037 980 1009.5 940 c 128
 982 900 982 900 943.5 867.5 c 128
 905 835 905 835 858 811 c 257
 921 790 921 790 976.5 759 c 128
 1032 728 1032 728 1073 686 c 128
 1114 644 1114 644 1137.5 589.5 c 128
 1161 535 1161 535 1161 466 c 257
 1161 380 1161 380 1137 312 c 128
 1113 244 1113 244 1072 192 c 128
 1031 140 1031 140 976.5 103.5 c 128
 922 67 922 67 859.5 44 c 128
 797 21 797 21 730.5 10.5 c 128
 664 0 664 0 600 0 c 257
 519 224 l 257
 665 227 665 227 745 283 c 128
 825 339 825 339 825 457 c 257
 825 516 825 516 808 558.5 c 128
 791 601 791 601 760 628 c 128
 729 655 729 655 687 668 c 128
 645 681 645 681 594 681 c 257
 499 902 l 257
 553 907 553 907 597.5 921.5 c 128
 642 936 642 936 673.5 961 c 128
 705 986 705 986 722 1022 c 128
 739 1058 739 1058 739 1107 c 257
 739 1142 739 1142 728 1173 c 128
 717 1204 717 1204 699 1227 c 128
 681 1250 681 1250 657.5 1263 c 128
 634 1276 634 1276 609 1276 c 257
 538 1276 538 1276 503.5 1239.5 c 128
 469 1203 469 1203 469 1119 c 257
 469 -21 l 257
EndSplineSet
EndChar
StartChar: igrave
Encoding: 316 236 316
GlifName: igrave
Width: 600
VWidth: 0
Flags: W
LayerCount: 2
Fore
SplineSet
447 0 m 257
 121 0 l 257
 121 1052 l 257
 447 1084 l 257
 447 0 l 257
526 1237 m 257
 268 1237 l 257
 4 1528 l 257
 351 1562 l 257
 526 1237 l 257
EndSplineSet
EndChar
StartChar: iacute
Encoding: 312 237 312
GlifName: iacute
Width: 600
VWidth: 0
Flags: W
LayerCount: 2
Fore
SplineSet
450 0 m 257
 124 0 l 257
 124 1052 l 257
 450 1084 l 257
 450 0 l 257
305 1533 m 257
 696 1565 l 257
 404 1237 l 257
 145 1237 l 257
 305 1533 l 257
EndSplineSet
EndChar
StartChar: icircumflex
Encoding: 314 238 314
GlifName: icircumflex
Width: 600
VWidth: 0
Flags: W
LayerCount: 2
Fore
SplineSet
448 0 m 257
 122 0 l 257
 122 1052 l 257
 448 1084 l 257
 448 0 l 257
639 1257 m 257
 424 1257 l 257
 354 1360 l 257
 324 1487 l 257
 294 1360 l 257
 213 1257 l 257
 -17 1257 l 257
 156 1532 l 257
 452 1561 l 257
 639 1257 l 257
EndSplineSet
EndChar
StartChar: eth
Encoding: 256 240 256
GlifName: eth
Width: 1300
VWidth: 0
Flags: W
LayerCount: 2
Fore
SplineSet
352 1154 m 257
 554 1320 l 257
 410 1296 l 257
 366 1310 366 1310 331 1310 c 257
 304 1310 304 1310 279 1307.5 c 128
 254 1305 254 1305 231 1300 c 257
 195 1508 l 257
 228 1511 228 1511 250 1513 c 128
 272 1515 272 1515 287 1516 c 128
 302 1517 302 1517 312.5 1517 c 128
 323 1517 323 1517 332 1517 c 257
 432 1517 432 1517 520 1495 c 128
 608 1473 608 1473 683 1433 c 257
 832 1561 l 257
 972 1395 l 257
 787 1239 l 257
 915 1239 l 257
 967 1177 967 1177 1006 1103 c 128
 1045 1029 1045 1029 1070.5 948 c 128
 1096 867 1096 867 1108.5 781.5 c 128
 1121 696 1121 696 1121 612 c 257
 1121 558 1121 558 1111 491 c 128
 1101 424 1101 424 1077.5 354 c 128
 1054 284 1054 284 1014.5 217.5 c 128
 975 151 975 151 916 98.5 c 128
 857 46 857 46 776.5 14.5 c 128
 696 -17 696 -17 590 -17 c 257
 472 -17 472 -17 380.5 18.5 c 128
 289 54 289 54 227 118.5 c 128
 165 183 165 183 132.5 273 c 128
 100 363 100 363 100 472 c 257
 100 584 100 584 133 671 c 128
 166 758 166 758 226.5 816.5 c 128
 287 875 287 875 373.5 905.5 c 128
 460 936 460 936 568 936 c 257
 616 936 616 936 664.5 929 c 128
 713 922 713 922 761 904 c 257
 758 929 758 929 749 958.5 c 128
 740 988 740 988 726 1018 c 128
 712 1048 712 1048 693.5 1076 c 128
 675 1104 675 1104 653 1126 c 257
 495 993 l 257
 352 1154 l 257
799 596 m 257
 781 616 781 616 760 637 c 128
 739 658 739 658 712.5 674.5 c 128
 686 691 686 691 654 701.5 c 128
 622 712 622 712 582 712 c 257
 536 712 536 712 502 692 c 128
 468 672 468 672 445.5 637.5 c 128
 423 603 423 603 411.5 556 c 128
 400 509 400 509 400 455 c 257
 400 401 400 401 414.5 356 c 128
 429 311 429 311 454.5 278 c 128
 480 245 480 245 514.5 226.5 c 128
 549 208 549 208 589 208 c 257
 628 208 628 208 660.5 225.5 c 128
 693 243 693 243 718 272.5 c 128
 743 302 743 302 760 341.5 c 128
 777 381 777 381 786 426 c 257
 795 469 795 469 797 510 c 128
 799 551 799 551 799 596 c 257
EndSplineSet
EndChar
StartChar: oslash
Encoding: 395 248 395
GlifName: oslash
Width: 1200
VWidth: 0
Flags: W
LayerCount: 2
Fore
SplineSet
330 -100 m 257
 70 -100 l 257
 870 1209 l 257
 1120 1209 l 257
 330 -100 l 257
623 20 m 257
 503 20 503 20 404 63.5 c 128
 305 107 305 107 233.5 183.5 c 128
 162 260 162 260 122.5 364 c 128
 83 468 83 468 83 590 c 257
 83 711 83 711 121 814.5 c 128
 159 918 159 918 229.5 993.5 c 128
 300 1069 300 1069 399.5 1111.5 c 128
 499 1154 499 1154 623 1154 c 257
 743 1154 743 1154 842.5 1111.5 c 128
 942 1069 942 1069 1013.5 993.5 c 128
 1085 918 1085 918 1124.5 814.5 c 128
 1164 711 1164 711 1164 590 c 257
 1164 468 1164 468 1126 364 c 128
 1088 260 1088 260 1017.5 183.5 c 128
 947 107 947 107 847 63.5 c 128
 747 20 747 20 623 20 c 257
838 565 m 257
 838 633 838 633 826 699 c 128
 814 765 814 765 787.5 817.5 c 128
 761 870 761 870 719.5 902 c 128
 678 934 678 934 619 934 c 257
 564 934 564 934 524 906.5 c 128
 484 879 484 879 458.5 833 c 128
 433 787 433 787 421 728.5 c 128
 409 670 409 670 409 608 c 257
 409 539 409 539 421 473 c 128
 433 407 433 407 459.5 355.5 c 128
 486 304 486 304 527 272 c 128
 568 240 568 240 626 240 c 257
 681 240 681 240 721 267.5 c 128
 761 295 761 295 787 341 c 128
 813 387 813 387 825.5 445 c 128
 838 503 838 503 838 565 c 257
EndSplineSet
EndChar
StartChar: thorn
Encoding: 519 254 519
GlifName: thorn
Width: 1200
VWidth: 0
Flags: W
LayerCount: 2
Fore
SplineSet
815 528 m 257
 815 596 815 596 803 662 c 128
 791 728 791 728 764.5 780.5 c 128
 738 833 738 833 696.5 865 c 128
 655 897 655 897 596 897 c 257
 541 897 541 897 501 869.5 c 128
 461 842 461 842 435.5 796 c 128
 410 750 410 750 398 691.5 c 128
 386 633 386 633 386 571 c 257
 386 502 386 502 398 436 c 128
 410 370 410 370 436.5 318.5 c 128
 463 267 463 267 504 235 c 128
 545 203 545 203 603 203 c 257
 658 203 658 203 698 230.5 c 128
 738 258 738 258 764 304 c 128
 790 350 790 350 802.5 408 c 128
 815 466 815 466 815 528 c 257
402 1527 m 257
 402 1201 l 257
 320 1030 l 257
 501 1109 l 257
 525 1113 525 1113 549.5 1115 c 128
 574 1117 574 1117 600 1117 c 257
 720 1117 720 1117 819.5 1074.5 c 128
 919 1032 919 1032 990.5 956.5 c 128
 1062 881 1062 881 1101.5 777.5 c 128
 1141 674 1141 674 1141 553 c 257
 1141 431 1141 431 1103 327 c 128
 1065 223 1065 223 994.5 146.5 c 128
 924 70 924 70 824 26.5 c 128
 724 -17 724 -17 600 -17 c 257
 574 -17 574 -17 549.5 -15 c 128
 525 -13 525 -13 501 -9 c 257
 320 75 l 257
 402 -99 l 257
 402 -380 l 257
 60 -380 l 257
 60 1493 l 257
 402 1527 l 257
EndSplineSet
EndChar
StartChar: OE
Encoding: 54 338 54
GlifName: O_E_
Width: 2000
VWidth: 0
Flags: W
LayerCount: 2
Fore
SplineSet
915 0 m 257
 925 70 l 257
 799 -17 l 257
 626 -17 626 -17 490 41 c 128
 354 99 354 99 259.5 201.5 c 128
 165 304 165 304 115.5 444.5 c 128
 66 585 66 585 66 750 c 257
 66 915 66 915 114 1055.5 c 128
 162 1196 162 1196 255 1298.5 c 128
 348 1401 348 1401 484.5 1459 c 128
 621 1517 621 1517 798 1517 c 257
 925 1430 l 257
 915 1500 l 257
 1818 1500 l 257
 1818 1272 l 257
 1224 1272 l 257
 1239 1134 l 257
 1239 916 l 257
 1752 916 l 257
 1752 703 l 257
 1239 703 l 257
 1239 360 l 257
 1232 228 l 257
 1855 228 l 257
 1828 0 l 257
 915 0 l 257
789 221 m 257
 801 221 801 221 821.5 222 c 128
 842 223 842 223 864 224.5 c 128
 886 226 886 226 906.5 228.5 c 128
 927 231 927 231 939 234 c 257
 939 1261 l 257
 928 1265 928 1265 907.5 1268.5 c 128
 887 1272 887 1272 863.5 1274 c 128
 840 1276 840 1276 817 1277.5 c 128
 794 1279 794 1279 778 1279 c 257
 681 1279 681 1279 612.5 1237 c 128
 544 1195 544 1195 500 1125.5 c 128
 456 1056 456 1056 435.5 966.5 c 128
 415 877 415 877 415 783 c 257
 415 675 415 675 435.5 574 c 128
 456 473 456 473 501 394.5 c 128
 546 316 546 316 617 268.5 c 128
 688 221 688 221 789 221 c 257
EndSplineSet
EndChar
StartChar: florin
Encoding: 279 402 279
GlifName: florin
Width: 1400
VWidth: 0
Flags: W
LayerCount: 2
Fore
SplineSet
1179 1263 m 257
 1158 1275 1158 1275 1142.5 1282.5 c 128
 1127 1290 1127 1290 1114.5 1293.5 c 128
 1102 1297 1102 1297 1089 1298.5 c 128
 1076 1300 1076 1300 1059 1300 c 257
 1038 1300 1038 1300 1018.5 1274 c 128
 999 1248 999 1248 977.5 1192.5 c 128
 956 1137 956 1137 931.5 1051.5 c 128
 907 966 907 966 878 846 c 257
 1154 846 l 257
 1098 631 l 257
 902 631 l 257
 835 725 l 257
 642 -85 l 257
 625 -156 625 -156 603.5 -219 c 128
 582 -282 582 -282 542 -329 c 128
 502 -376 502 -376 436.5 -403.5 c 128
 371 -431 371 -431 267 -431 c 257
 217 -431 217 -431 176 -425.5 c 128
 135 -420 135 -420 99.5 -411 c 128
 64 -402 64 -402 32 -389.5 c 128
 0 -377 0 -377 -32 -362 c 257
 95 -157 l 257
 137 -180 137 -180 169.5 -188 c 128
 202 -196 202 -196 229 -196 c 257
 244 -196 244 -196 257.5 -179.5 c 128
 271 -163 271 -163 282 -139 c 128
 293 -115 293 -115 302 -88.5 c 128
 311 -62 311 -62 316 -42 c 257
 485 628 l 257
 262 628 l 257
 319 846 l 257
 469 846 l 257
 524 777 l 257
 572 972 572 972 614 1112 c 128
 656 1252 656 1252 708.5 1342 c 128
 761 1432 761 1432 831 1474.5 c 128
 901 1517 901 1517 1006 1517 c 257
 1057 1517 1057 1517 1093.5 1511.5 c 128
 1130 1506 1130 1506 1160 1496.5 c 128
 1190 1487 1190 1487 1216.5 1474.5 c 128
 1243 1462 1243 1462 1275 1447 c 257
 1179 1263 l 257
EndSplineSet
EndChar
StartChar: caron
Encoding: 178 711 178
GlifName: caron
Width: 1100
VWidth: 0
Flags: W
LayerCount: 2
Fore
SplineSet
627 1215 m 257
 331 1244 l 257
 158 1519 l 257
 388 1519 l 257
 463 1426 l 257
 499 1299 l 257
 533 1426 l 257
 609 1519 l 257
 814 1519 l 257
 627 1215 l 257
EndSplineSet
EndChar
StartChar: breve
Encoding: 172 728 172
GlifName: breve
Width: 1100
VWidth: 0
Flags: W
LayerCount: 2
Fore
SplineSet
366 1519 m 257
 368 1488 368 1488 381 1464 c 257
 392 1444 392 1444 415.5 1427 c 128
 439 1410 439 1410 483 1410 c 257
 527 1410 527 1410 551 1427 c 128
 575 1444 575 1444 588 1464 c 257
 602 1488 602 1488 607 1519 c 257
 828 1519 l 257
 828 1469 l 257
 828 1446 828 1446 809 1410 c 128
 790 1374 790 1374 749 1339 c 128
 708 1304 708 1304 642 1279 c 128
 576 1254 576 1254 483 1254 c 257
 390 1254 390 1254 325 1279 c 128
 260 1304 260 1304 220 1338.5 c 128
 180 1373 180 1373 162 1409 c 128
 144 1445 144 1445 144 1468 c 257
 144 1519 l 257
 366 1519 l 257
EndSplineSet
EndChar
StartChar: dotaccent
Encoding: 227 729 227
GlifName: dotaccent
Width: 600
VWidth: 0
Flags: W
LayerCount: 2
Fore
SplineSet
120 1500 m 257
 448 1500 l 257
 448 1269 l 257
 120 1269 l 257
 120 1500 l 257
EndSplineSet
EndChar
StartChar: tilde
Encoding: 527 732 527
GlifName: tilde
Width: 1100
VWidth: 0
Flags: W
LayerCount: 2
Fore
SplineSet
118 1307 m 257
 122 1347 122 1347 138 1392.5 c 128
 154 1438 154 1438 184 1476 c 128
 214 1514 214 1514 260 1539 c 128
 306 1564 306 1564 369 1564 c 257
 418 1564 418 1564 451.5 1551.5 c 128
 485 1539 485 1539 512 1524 c 128
 539 1509 539 1509 563.5 1496.5 c 128
 588 1484 588 1484 619 1484 c 257
 640 1484 640 1484 654 1491 c 128
 668 1498 668 1498 677.5 1510 c 128
 687 1522 687 1522 692 1538 c 128
 697 1554 697 1554 700 1572 c 257
 867 1562 l 257
 864 1518 864 1518 850 1471.5 c 128
 836 1425 836 1425 807.5 1387 c 128
 779 1349 779 1349 734 1324.5 c 128
 689 1300 689 1300 622 1300 c 257
 576 1300 576 1300 544.5 1312.5 c 128
 513 1325 513 1325 487 1340 c 128
 461 1355 461 1355 434.5 1367.5 c 128
 408 1380 408 1380 373 1380 c 257
 355 1380 355 1380 343 1373 c 128
 331 1366 331 1366 322.5 1355 c 128
 314 1344 314 1344 309 1329.5 c 128
 304 1315 304 1315 300 1300 c 257
 118 1307 l 257
EndSplineSet
EndChar
StartChar: Deltagreek
Encoding: 16 916 16
GlifName: D_eltagreek
Width: 1500
VWidth: 0
Flags: W
LayerCount: 2
Fore
SplineSet
1520 0 m 257
 -62 0 l 257
 559 1494 l 257
 887 1528 l 257
 1520 0 l 257
1037 230 m 257
 1180 178 l 257
 1074 330 l 257
 776 1061 l 257
 727 1265 l 257
 680 1061 l 257
 380 330 l 257
 271 178 l 257
 437 230 l 257
 1037 230 l 257
EndSplineSet
EndChar
StartChar: Xi
Encoding: 95 926 95
GlifName: X_i
Width: 1200
VWidth: 0
Flags: W
LayerCount: 2
Fore
SplineSet
149 916 m 257
 1021 916 l 257
 1021 675 l 257
 149 675 l 257
 149 916 l 257
54 241 m 257
 1115 241 l 257
 1115 0 l 257
 54 0 l 257
 54 241 l 257
54 1500 m 257
 1115 1500 l 257
 1115 1259 l 257
 54 1259 l 257
 54 1500 l 257
EndSplineSet
EndChar
StartChar: Sigma
Encoding: 75 931 75
GlifName: S_igma
Width: 1200
VWidth: 0
Flags: W
LayerCount: 2
Fore
SplineSet
878 699 m 257
 499 300 l 257
 369 200 l 257
 529 217 l 257
 1135 217 l 257
 1135 0 l 257
 10 0 l 257
 33 216 l 257
 489 690 l 257
 699 750 l 257
 489 810 l 257
 33 1284 l 257
 10 1500 l 257
 1135 1500 l 257
 1135 1283 l 257
 529 1283 l 257
 369 1300 l 257
 499 1200 l 257
 878 801 l 257
 878 699 l 257
EndSplineSet
EndChar
StartChar: Phi
Encoding: 66 934 66
GlifName: P_hi
Width: 1400
VWidth: 0
Flags: W
LayerCount: 2
Fore
SplineSet
510 204 m 257
 413 226 413 226 322.5 270 c 128
 232 314 232 314 162 381.5 c 128
 92 449 92 449 50 541 c 128
 8 633 8 633 8 750 c 257
 8 862 8 862 47 953 c 128
 86 1044 86 1044 154 1112.5 c 128
 222 1181 222 1181 313.5 1227 c 128
 405 1273 405 1273 510 1296 c 257
 510 1493 l 257
 851 1527 l 257
 851 1296 l 257
 948 1276 948 1276 1039 1231.5 c 128
 1130 1187 1130 1187 1200.5 1118.5 c 128
 1271 1050 1271 1050 1313.5 958 c 128
 1356 866 1356 866 1356 750 c 257
 1356 637 1356 637 1316.5 546 c 128
 1277 455 1277 455 1208.5 386 c 128
 1140 317 1140 317 1048 271.5 c 128
 956 226 956 226 851 204 c 257
 851 0 l 257
 510 0 l 257
 510 204 l 257
1054 750 m 257
 1054 811 1054 811 1037 863.5 c 128
 1020 916 1020 916 992 958 c 128
 964 1000 964 1000 927 1030 c 128
 890 1060 890 1060 851 1076 c 257
 851 423 l 257
 890 439 890 439 926.5 469.5 c 128
 963 500 963 500 991.5 542 c 128
 1020 584 1020 584 1037 636.5 c 128
 1054 689 1054 689 1054 750 c 257
309 730 m 257
 309 669 309 669 326 619.5 c 128
 343 570 343 570 371 532 c 128
 399 494 399 494 435 466.5 c 128
 471 439 471 439 510 423 c 257
 510 1076 l 257
 471 1060 471 1060 435 1026.5 c 128
 399 993 399 993 371 947.5 c 128
 343 902 343 902 326 846.5 c 128
 309 791 309 791 309 730 c 257
EndSplineSet
EndChar
StartChar: Psi
Encoding: 67 936 67
GlifName: P_si
Width: 1400
VWidth: 0
Flags: W
LayerCount: 2
Fore
SplineSet
853 1527 m 257
 853 662 l 257
 884 669 884 669 911 682.5 c 128
 938 696 938 696 957.5 718 c 128
 977 740 977 740 988.5 772 c 128
 1000 804 1000 804 1000 849 c 257
 1000 1500 l 257
 1346 1500 l 257
 1346 867 l 257
 1346 754 1346 754 1305.5 675 c 128
 1265 596 1265 596 1197 544 c 128
 1129 492 1129 492 1040 463.5 c 128
 951 435 951 435 853 422 c 257
 853 1 l 257
 511 1 l 257
 511 422 l 257
 410 438 410 438 320.5 475.5 c 128
 231 513 231 513 163.5 573.5 c 128
 96 634 96 634 56.5 718.5 c 128
 17 803 17 803 17 914 c 257
 17 1263 l 257
 -16 1494 l 257
 364 1526 l 257
 364 896 l 257
 364 847 364 847 375.5 810.5 c 128
 387 774 387 774 407 747 c 128
 427 720 427 720 454 702 c 128
 481 684 481 684 511 673 c 257
 511 1493 l 257
 853 1527 l 257
EndSplineSet
EndChar
StartChar: Omegagreek
Encoding: 60 937 60
GlifName: O_megagreek
Width: 1600
VWidth: 0
Flags: W
LayerCount: 2
Fore
SplineSet
40 228 m 257
 334 228 l 257
 196 308 l 257
 174 338 174 338 150.5 381.5 c 128
 127 425 127 425 107 483 c 128
 87 541 87 541 74 613.5 c 128
 61 686 61 686 61 774 c 257
 61 939 61 939 109 1075.5 c 128
 157 1212 157 1212 248.5 1310 c 128
 340 1408 340 1408 474 1462 c 128
 608 1516 608 1516 779 1516 c 257
 946 1516 946 1516 1079 1462 c 128
 1212 1408 1212 1408 1304.5 1310 c 128
 1397 1212 1397 1212 1446.5 1075.5 c 128
 1496 939 1496 939 1496 774 c 257
 1496 687 1496 687 1483.5 614.5 c 128
 1471 542 1471 542 1451.5 484 c 128
 1432 426 1432 426 1409.5 383 c 128
 1387 340 1387 340 1367 312 c 257
 1224 228 l 257
 1516 228 l 257
 1516 0 l 257
 844 0 l 257
 844 243 l 257
 911 272 911 272 967 321 c 128
 1023 370 1023 370 1063 434.5 c 128
 1103 499 1103 499 1125 577 c 128
 1147 655 1147 655 1147 744 c 257
 1147 850 1147 850 1127 947 c 128
 1107 1044 1107 1044 1062 1117.5 c 128
 1017 1191 1017 1191 946 1235 c 128
 875 1279 875 1279 773 1279 c 257
 677 1279 677 1279 608 1240.5 c 128
 539 1202 539 1202 495 1137 c 128
 451 1072 451 1072 430.5 986.5 c 128
 410 901 410 901 410 807 c 257
 410 704 410 704 431.5 615 c 128
 453 526 453 526 493 454 c 128
 533 382 533 382 588.5 328 c 128
 644 274 644 274 712 241 c 257
 712 0 l 257
 40 0 l 257
 40 228 l 257
EndSplineSet
EndChar
StartChar: beta
Encoding: 147 946 147
GlifName: beta
Width: 1200
VWidth: 0
Flags: W
LayerCount: 2
Fore
SplineSet
602 -17 m 257
 567 -17 567 -17 533 -14 c 128
 499 -11 499 -11 470 -7 c 257
 470 -527 l 257
 134 -500 l 257
 134 1101 l 257
 134 1207 134 1207 171 1285.5 c 128
 208 1364 208 1364 273 1415.5 c 128
 338 1467 338 1467 428 1492 c 128
 518 1517 518 1517 623 1517 c 257
 711 1517 711 1517 790 1493.5 c 128
 869 1470 869 1470 929 1424 c 128
 989 1378 989 1378 1024 1310.5 c 128
 1059 1243 1059 1243 1059 1155 c 257
 1059 1110 1059 1110 1049.5 1069 c 128
 1040 1028 1040 1028 1023.5 992 c 128
 1007 956 1007 956 985 925.5 c 128
 963 895 963 895 938 871 c 257
 734 809 l 257
 926 784 l 257
 964 767 964 767 995.5 746.5 c 128
 1027 726 1027 726 1050 701 c 257
 1073 677 1073 677 1091.5 652.5 c 128
 1110 628 1110 628 1122.5 599.5 c 128
 1135 571 1135 571 1142 537 c 128
 1149 503 1149 503 1149 460 c 257
 1149 413 1149 413 1139.5 359 c 128
 1130 305 1130 305 1106.5 252 c 128
 1083 199 1083 199 1043.5 150.5 c 128
 1004 102 1004 102 943 64.5 c 128
 882 27 882 27 798 5 c 128
 714 -17 714 -17 602 -17 c 257
461 211 m 257
 485 199 485 199 516 191 c 128
 547 183 547 183 576 183 c 257
 630 183 630 183 676.5 201 c 128
 723 219 723 219 757.5 253.5 c 128
 792 288 792 288 812 338 c 128
 832 388 832 388 832 451 c 257
 832 572 832 572 776.5 636 c 128
 721 700 721 700 600 700 c 257
 510 900 l 257
 540 902 540 902 581 912 c 128
 622 922 622 922 659.5 948 c 128
 697 974 697 974 723.5 1019 c 128
 750 1064 750 1064 750 1135 c 257
 750 1170 750 1170 738 1203 c 128
 726 1236 726 1236 706 1261.5 c 128
 686 1287 686 1287 658.5 1302 c 128
 631 1317 631 1317 600 1317 c 257
 570 1317 570 1317 545 1306 c 128
 520 1295 520 1295 501 1273.5 c 128
 482 1252 482 1252 471.5 1220.5 c 128
 461 1189 461 1189 461 1147 c 257
 461 211 l 257
EndSplineSet
EndChar
StartChar: eta
Encoding: 255 951 255
GlifName: eta
Width: 1200
VWidth: 0
Flags: W
LayerCount: 2
Fore
SplineSet
458 0 m 257
 132 0 l 257
 132 1093 l 257
 458 1126 l 257
 458 1067 l 257
 507 1087 507 1087 566 1101.5 c 128
 625 1116 625 1116 687 1116 c 257
 782 1116 782 1116 847 1089.5 c 128
 912 1063 912 1063 952 1013.5 c 128
 992 964 992 964 1009.5 893.5 c 128
 1027 823 1027 823 1027 736 c 257
 1027 -500 l 257
 701 -500 l 257
 701 761 l 257
 701 843 701 843 685.5 880 c 128
 670 917 670 917 626 917 c 257
 609 917 609 917 588.5 910.5 c 128
 568 904 568 904 546 893.5 c 128
 524 883 524 883 501.5 869 c 128
 479 855 479 855 458 841 c 257
 458 0 l 257
EndSplineSet
EndChar
StartChar: iota
Encoding: 323 953 323
GlifName: iota
Width: 700
VWidth: 0
Flags: W
LayerCount: 2
Fore
SplineSet
125 874 m 257
 104 1093 l 257
 452 1125 l 257
 452 400 l 257
 452 362 452 362 452.5 325.5 c 128
 453 289 453 289 457.5 260 c 128
 462 231 462 231 472 213 c 128
 482 195 482 195 500 195 c 257
 544 195 544 195 575 209 c 257
 671 35 l 257
 657 26 657 26 635 16.5 c 128
 613 7 613 7 587 -0.5 c 128
 561 -8 561 -8 533 -12.5 c 128
 505 -17 505 -17 480 -17 c 257
 360 -17 360 -17 289.5 16 c 128
 219 49 219 49 182.5 107 c 128
 146 165 146 165 135.5 243.5 c 128
 125 322 125 322 125 413 c 257
 125 874 l 257
EndSplineSet
EndChar
StartChar: mugreek
Encoding: 355 956 355
GlifName: mugreek
Width: 1200
VWidth: 0
Flags: W
LayerCount: 2
Fore
SplineSet
700 27 m 257
 668 8 668 8 630 -4.5 c 128
 592 -17 592 -17 545 -17 c 257
 525 -17 525 -17 496 -12 c 128
 467 -7 467 -7 437.5 1.5 c 128
 408 10 408 10 383 20 c 128
 358 30 358 30 346 40 c 257
 411 -166 l 257
 411 -500 l 257
 100 -500 l 257
 100 1093 l 257
 411 1125 l 257
 411 345 l 257
 411 307 411 307 423.5 277 c 128
 436 247 436 247 456.5 226 c 128
 477 205 477 205 502.5 194 c 128
 528 183 528 183 555 183 c 257
 598 183 598 183 634.5 203 c 128
 671 223 671 223 700 251 c 257
 700 1093 l 257
 1011 1125 l 257
 1011 0 l 257
 700 0 l 257
 700 27 l 257
EndSplineSet
EndChar
StartChar: xi
Encoding: 581 958 581
GlifName: xi
Width: 1000
VWidth: 0
Flags: W
LayerCount: 2
Fore
SplineSet
354 33 m 257
 304 61 304 61 250.5 101.5 c 128
 197 142 197 142 153 194 c 128
 109 246 109 246 80 309 c 128
 51 372 51 372 51 445 c 257
 51 512 51 512 66 563.5 c 128
 81 615 81 615 107.5 655 c 128
 134 695 134 695 169 724.5 c 128
 204 754 204 754 244 777 c 257
 404 790 l 257
 242 855 l 257
 216 880 216 880 192.5 907 c 128
 169 934 169 934 151 964.5 c 128
 133 995 133 995 122.5 1028.5 c 128
 112 1062 112 1062 112 1100 c 257
 112 1174 112 1174 140 1241.5 c 128
 168 1309 168 1309 238 1360 c 257
 194 1372 194 1372 159 1390 c 128
 124 1408 124 1408 100 1435 c 128
 76 1462 76 1462 63 1498 c 128
 50 1534 50 1534 50 1581 c 257
 381 1581 l 257
 381 1574 381 1574 383 1560.5 c 128
 385 1547 385 1547 390.5 1533.5 c 128
 396 1520 396 1520 404.5 1510 c 128
 413 1500 413 1500 426 1500 c 257
 955 1500 l 257
 926 1302 l 257
 611 1302 l 257
 588 1302 588 1302 553 1291.5 c 128
 518 1281 518 1281 485 1258.5 c 128
 452 1236 452 1236 428 1199 c 128
 404 1162 404 1162 404 1110 c 257
 404 1057 404 1057 422.5 1019.5 c 128
 441 982 441 982 468 958 c 128
 495 934 495 934 525 922.5 c 128
 555 911 555 911 578 911 c 257
 872 911 l 257
 837 700 l 257
 790 700 790 700 736.5 697 c 128
 683 694 683 694 630.5 685 c 128
 578 676 578 676 529 659.5 c 128
 480 643 480 643 443 615.5 c 128
 406 588 406 588 383.5 548.5 c 128
 361 509 361 509 361 454 c 257
 361 425 361 425 375.5 393.5 c 128
 390 362 390 362 414 331.5 c 128
 438 301 438 301 470 273 c 128
 502 245 502 245 537 223 c 257
 636 161 636 161 709 117.5 c 128
 782 74 782 74 830.5 33 c 128
 879 -8 879 -8 903 -53 c 128
 927 -98 927 -98 927 -162 c 257
 927 -212 927 -212 899.5 -261.5 c 128
 872 -311 872 -311 825 -356.5 c 128
 778 -402 778 -402 713.5 -443 c 128
 649 -484 649 -484 576 -517 c 257
 442 -324 l 257
 473 -308 473 -308 501 -289 c 128
 529 -270 529 -270 550 -249.5 c 128
 571 -229 571 -229 583.5 -209 c 128
 596 -189 596 -189 596 -170 c 257
 596 -133 596 -133 569.5 -103.5 c 128
 543 -74 543 -74 505 -49 c 128
 467 -24 467 -24 425.5 -4 c 128
 384 16 384 16 354 33 c 257
EndSplineSet
EndChar
StartChar: pi
Encoding: 422 960 422
GlifName: pi
Width: 1300
VWidth: 0
Flags: W
LayerCount: 2
Fore
SplineSet
1009 900 m 257
 1009 400 l 257
 1009 334 1009 334 1013 291.5 c 128
 1017 249 1017 249 1024 225 c 128
 1031 201 1031 201 1041.5 192 c 128
 1052 183 1052 183 1066 183 c 257
 1083 183 1083 183 1099 188 c 128
 1115 193 1115 193 1129 200 c 257
 1145 208 1145 208 1159 218 c 257
 1266 43 l 257
 1250 35 1250 35 1227.5 24.5 c 128
 1205 14 1205 14 1177.5 5 c 128
 1150 -4 1150 -4 1117 -10.5 c 128
 1084 -17 1084 -17 1046 -17 c 257
 926 -17 926 -17 855.5 16 c 128
 785 49 785 49 749 107 c 128
 713 165 713 165 702.5 243.5 c 128
 692 322 692 322 692 413 c 257
 692 900 l 257
 428 900 l 257
 543 752 l 257
 543 0 l 257
 226 0 l 257
 226 698 l 257
 226 752 226 752 225.5 790.5 c 128
 225 829 225 829 221 854 c 128
 217 879 217 879 209.5 891 c 128
 202 903 202 903 188 903 c 257
 170 903 170 903 151.5 898 c 128
 133 893 133 893 118 888 c 257
 100 882 100 882 83 874 c 257
 -32 1041 l 257
 -16 1050 -16 1050 6.5 1060 c 128
 29 1070 29 1070 56.5 1079 c 128
 84 1088 84 1088 117 1094 c 128
 150 1100 150 1100 187 1100 c 257
 1142 1100 l 257
 1115 900 l 257
 1009 900 l 257
EndSplineSet
EndChar
StartChar: sigma
Encoding: 478 963 478
GlifName: sigma
Width: 1300
VWidth: 0
Flags: W
LayerCount: 2
Fore
SplineSet
40 551 m 257
 40 663 40 663 71.5 765.5 c 128
 103 868 103 868 169 946 c 128
 235 1024 235 1024 337 1070.5 c 128
 439 1117 439 1117 580 1117 c 257
 1214 1117 l 257
 1214 917 l 257
 1041 917 l 257
 899 939 l 257
 1075 800 l 257
 1088 766 1088 766 1097 737.5 c 128
 1106 709 1106 709 1111.5 680 c 128
 1117 651 1117 651 1119 620 c 128
 1121 589 1121 589 1121 551 c 257
 1121 435 1121 435 1089.5 331.5 c 128
 1058 228 1058 228 992 150.5 c 128
 926 73 926 73 824 28 c 128
 722 -17 722 -17 580 -17 c 257
 439 -17 439 -17 337 30 c 128
 235 77 235 77 169 155.5 c 128
 103 234 103 234 71.5 337 c 128
 40 440 40 440 40 551 c 257
347 551 m 257
 347 486 347 486 361 420.5 c 128
 375 355 375 355 404 302 c 128
 433 249 433 249 477 216 c 128
 521 183 521 183 580 183 c 257
 640 183 640 183 683.5 216 c 128
 727 249 727 249 756 302 c 128
 785 355 785 355 799 420.5 c 128
 813 486 813 486 813 551 c 257
 813 617 813 617 799 682.5 c 128
 785 748 785 748 756 800 c 128
 727 852 727 852 683.5 884.5 c 128
 640 917 640 917 580 917 c 257
 521 917 521 917 477 884 c 128
 433 851 433 851 404 798.5 c 128
 375 746 375 746 361 680.5 c 128
 347 615 347 615 347 551 c 257
EndSplineSet
EndChar
StartChar: tau
Encoding: 513 964 513
GlifName: tau
Width: 1100
VWidth: 0
Flags: W
LayerCount: 2
Fore
SplineSet
698 900 m 257
 698 284 l 257
 698 250 698 250 703.5 220 c 128
 709 190 709 190 722.5 157.5 c 128
 736 125 736 125 759.5 87.5 c 128
 783 50 783 50 820 0 c 257
 505 0 l 257
 470 25 470 25 447.5 57.5 c 128
 425 90 425 90 412 130 c 128
 399 170 399 170 394 217 c 128
 389 264 389 264 389 320 c 257
 389 900 l 257
 54 900 l 257
 81 1100 l 257
 1009 1100 l 257
 982 900 l 257
 698 900 l 257
EndSplineSet
EndChar
StartChar: phi
Encoding: 417 966 417
GlifName: phi
Width: 1500
VWidth: 0
Flags: W
LayerCount: 2
Fore
SplineSet
885 1126 m 257
 885 1005 l 257
 973 986 973 986 1057.5 945 c 128
 1142 904 1142 904 1208 841 c 128
 1274 778 1274 778 1314.5 693.5 c 128
 1355 609 1355 609 1355 503 c 257
 1355 400 1355 400 1317.5 316 c 128
 1280 232 1280 232 1215.5 168 c 128
 1151 104 1151 104 1066 62 c 128
 981 20 981 20 885 2 c 257
 885 -500 l 257
 557 -500 l 257
 557 2 l 257
 469 19 469 19 385 60 c 128
 301 101 301 101 235.5 164.5 c 128
 170 228 170 228 130 313 c 128
 90 398 90 398 90 503 c 257
 90 605 90 605 128 688 c 128
 166 771 166 771 230 834.5 c 128
 294 898 294 898 378.5 941 c 128
 463 984 463 984 557 1005 c 257
 557 1093 l 257
 885 1126 l 257
1067 503 m 257
 1067 556 1067 556 1051.5 601 c 128
 1036 646 1036 646 1010.5 681.5 c 128
 985 717 985 717 952.5 742.5 c 128
 920 768 920 768 885 782 c 257
 885 223 l 257
 920 238 920 238 952.5 264 c 128
 985 290 985 290 1010.5 325.5 c 128
 1036 361 1036 361 1051.5 405.5 c 128
 1067 450 1067 450 1067 503 c 257
376 503 m 257
 376 450 376 450 391 405.5 c 128
 406 361 406 361 431.5 326 c 128
 457 291 457 291 489.5 265 c 128
 522 239 522 239 557 224 c 257
 557 781 l 257
 522 766 522 766 489 740.5 c 128
 456 715 456 715 431 680 c 128
 406 645 406 645 391 600.5 c 128
 376 556 376 556 376 503 c 257
EndSplineSet
EndChar
StartChar: omega
Encoding: 380 969 380
GlifName: omega
Width: 1600
VWidth: 0
Flags: W
LayerCount: 2
Fore
SplineSet
917 744 m 257
 917 487 l 257
 917 428 917 428 925 373 c 128
 933 318 933 318 950 276 c 128
 967 234 967 234 993 208.5 c 128
 1019 183 1019 183 1054 183 c 257
 1093 183 1093 183 1118.5 210 c 128
 1144 237 1144 237 1159 284.5 c 128
 1174 332 1174 332 1179.5 395.5 c 128
 1185 459 1185 459 1185 531 c 257
 1185 649 1185 649 1162.5 728 c 128
 1140 807 1140 807 1109 853.5 c 128
 1078 900 1078 900 1045 919.5 c 128
 1012 939 1012 939 990 939 c 257
 990 1117 l 257
 1099 1117 1099 1117 1192.5 1072 c 128
 1286 1027 1286 1027 1355 950.5 c 128
 1424 874 1424 874 1463 772.5 c 128
 1502 671 1502 671 1502 559 c 257
 1502 509 1502 509 1499 447 c 128
 1496 385 1496 385 1482.5 321 c 128
 1469 257 1469 257 1441 196.5 c 128
 1413 136 1413 136 1363.5 88.5 c 128
 1314 41 1314 41 1238.5 12 c 128
 1163 -17 1163 -17 1054 -17 c 257
 954 -17 954 -17 883.5 5.5 c 128
 813 28 813 28 765 66 c 257
 717 29 717 29 646.5 6 c 128
 576 -17 576 -17 477 -17 c 257
 368 -17 368 -17 292.5 12 c 128
 217 41 217 41 167.5 88.5 c 128
 118 136 118 136 90.5 196.5 c 128
 63 257 63 257 49.5 321 c 128
 36 385 36 385 33 447 c 128
 30 509 30 509 30 559 c 257
 30 671 30 671 69 772.5 c 128
 108 874 108 874 176.5 950.5 c 128
 245 1027 245 1027 338.5 1072 c 128
 432 1117 432 1117 541 1117 c 257
 541 939 l 257
 520 939 520 939 486.5 919.5 c 128
 453 900 453 900 422 853.5 c 128
 391 807 391 807 368.5 728 c 128
 346 649 346 649 346 531 c 257
 346 459 346 459 352 395.5 c 128
 358 332 358 332 372.5 284.5 c 128
 387 237 387 237 412.5 210 c 128
 438 183 438 183 477 183 c 257
 512 183 512 183 538 208.5 c 128
 564 234 564 234 581 276 c 128
 598 318 598 318 606 373 c 128
 614 428 614 428 614 487 c 257
 614 778 l 257
 917 744 l 257
EndSplineSet
EndChar
StartChar: Upsilon1
Encoding: 91 978 91
GlifName: U_psilon1
Width: 1300
VWidth: 0
Flags: W
LayerCount: 2
Fore
SplineSet
1177 1336 m 257
 1163 1334 1163 1334 1147 1324 c 257
 1133 1315 1133 1315 1117 1297 c 128
 1101 1279 1101 1279 1084 1245 c 257
 798 662 l 257
 798 0 l 257
 464 0 l 257
 464 662 l 257
 177 1245 l 257
 164 1271 164 1271 142.5 1285.5 c 128
 121 1300 121 1300 100 1308 c 257
 75 1317 75 1317 48 1320 c 257
 48 1516 l 257
 112 1516 112 1516 168.5 1511 c 128
 225 1506 225 1506 274 1487.5 c 128
 323 1469 323 1469 365 1431.5 c 128
 407 1394 407 1394 444 1328 c 257
 541 1157 l 257
 631 799 l 257
 722 1157 l 257
 818 1328 l 257
 854 1394 854 1394 896.5 1431.5 c 128
 939 1469 939 1469 987.5 1487.5 c 128
 1036 1506 1036 1506 1092.5 1511 c 128
 1149 1516 1149 1516 1214 1516 c 257
 1177 1336 l 257
EndSplineSet
EndChar
StartChar: phi1
Encoding: 418 981 418
GlifName: phi1
Width: 1500
VWidth: 0
Flags: W
LayerCount: 2
Fore
SplineSet
508 780 m 257
 485 766 485 766 463 745 c 128
 441 724 441 724 424 693 c 128
 407 662 407 662 396.5 619 c 128
 386 576 386 576 386 519 c 257
 386 456 386 456 400.5 409 c 128
 415 362 415 362 438.5 327.5 c 128
 462 293 462 293 493 269.5 c 128
 524 246 524 246 557 230 c 257
 557 781 l 257
 557 841 557 841 582 879.5 c 128
 607 918 607 918 647 940 c 128
 687 962 687 962 736 970.5 c 128
 785 979 785 979 833 979 c 257
 934 979 934 979 1026.5 942 c 128
 1119 905 1119 905 1190 840.5 c 128
 1261 776 1261 776 1303 688.5 c 128
 1345 601 1345 601 1345 499 c 257
 1345 393 1345 393 1309 310 c 128
 1273 227 1273 227 1210.5 165.5 c 128
 1148 104 1148 104 1064 64.5 c 128
 980 25 980 25 885 7 c 257
 885 -500 l 257
 557 -500 l 257
 557 7 l 257
 461 26 461 26 378 66 c 128
 295 106 295 106 233 167 c 128
 171 228 171 228 135.5 311 c 128
 100 394 100 394 100 499 c 257
 100 590 100 590 126.5 662 c 128
 153 734 153 734 194.5 788.5 c 128
 236 843 236 843 285.5 881 c 128
 335 919 335 919 381 943 c 257
 508 780 l 257
1067 519 m 257
 1067 582 1067 582 1048.5 632.5 c 128
 1030 683 1030 683 1004.5 718 c 128
 979 753 979 753 953 771.5 c 128
 927 790 927 790 913 790 c 257
 903 790 903 790 897.5 785.5 c 128
 892 781 892 781 889 775 c 128
 886 769 886 769 885 762 c 128
 884 755 884 755 884 750 c 257
 884 229 l 257
 917 245 917 245 950 269 c 128
 983 293 983 293 1009 327.5 c 128
 1035 362 1035 362 1051 409 c 128
 1067 456 1067 456 1067 519 c 257
EndSplineSet
EndChar
StartChar: omega1
Encoding: 381 982 381
GlifName: omega1
Width: 1600
VWidth: 0
Flags: W
LayerCount: 2
Fore
SplineSet
1494 900 m 257
 1319 900 l 257
 1449 800 l 257
 1466 751 1466 751 1474.5 681 c 128
 1483 611 1483 611 1483 499 c 257
 1483 459 1483 459 1478.5 405.5 c 128
 1474 352 1474 352 1459 294.5 c 128
 1444 237 1444 237 1414.5 181.5 c 128
 1385 126 1385 126 1335.5 81.5 c 128
 1286 37 1286 37 1212.5 10 c 128
 1139 -17 1139 -17 1036 -17 c 257
 986 -17 986 -17 945.5 -5.5 c 128
 905 6 905 6 872 23.5 c 128
 839 41 839 41 813 61.5 c 128
 787 82 787 82 765 100 c 257
 744 82 744 82 717.5 61.5 c 128
 691 41 691 41 658.5 23.5 c 128
 626 6 626 6 585.5 -5.5 c 128
 545 -17 545 -17 496 -17 c 257
 393 -17 393 -17 319.5 10 c 128
 246 37 246 37 196.5 81.5 c 128
 147 126 147 126 117.5 181.5 c 128
 88 237 88 237 72.5 294.5 c 128
 57 352 57 352 52.5 405.5 c 128
 48 459 48 459 48 499 c 257
 48 611 48 611 56.5 681 c 128
 65 751 65 751 82 800 c 257
 199 900 l 257
 22 900 l 257
 49 1100 l 257
 1522 1100 l 257
 1494 900 l 257
918 724 m 257
 918 487 l 257
 918 428 918 428 924 375 c 128
 930 322 930 322 943.5 282 c 128
 957 242 957 242 980 218.5 c 128
 1003 195 1003 195 1036 195 c 257
 1071 195 1071 195 1094 220.5 c 128
 1117 246 1117 246 1131 288.5 c 128
 1145 331 1145 331 1151 386 c 128
 1157 441 1157 441 1157 501 c 257
 1157 589 1157 589 1151 656 c 128
 1145 723 1145 723 1135 771.5 c 128
 1125 820 1125 820 1112.5 851.5 c 128
 1100 883 1100 883 1087 900 c 257
 444 900 l 257
 430 883 430 883 418 851.5 c 128
 406 820 406 820 396 771.5 c 128
 386 723 386 723 380.5 656 c 128
 375 589 375 589 375 501 c 257
 375 441 375 441 381 386 c 128
 387 331 387 331 401 288.5 c 128
 415 246 415 246 438 220.5 c 128
 461 195 461 195 496 195 c 257
 529 195 529 195 552 218.5 c 128
 575 242 575 242 588.5 282 c 128
 602 322 602 322 608 375 c 128
 614 428 614 428 614 487 c 257
 614 758 l 257
 918 724 l 257
EndSplineSet
EndChar
StartChar: endash
Encoding: 247 8211 247
GlifName: endash
Width: 1100
VWidth: 0
Flags: W
LayerCount: 2
Fore
SplineSet
0 624 m 257
 1000 624 l 257
 1000 400 l 257
 0 400 l 257
 0 624 l 257
EndSplineSet
EndChar
StartChar: emdash
Encoding: 243 8212 243
GlifName: emdash
Width: 2100
VWidth: 0
Flags: W
LayerCount: 2
Fore
SplineSet
0 624 m 257
 2000 624 l 257
 2000 400 l 257
 0 400 l 257
 0 624 l 257
EndSplineSet
EndChar
StartChar: quotationdash
Encoding: 438 8213 438
GlifName: quotationdash
Width: 1600
VWidth: 0
Flags: W
LayerCount: 2
Fore
SplineSet
200 624 m 257
 1400 624 l 257
 1400 400 l 257
 200 400 l 257
 200 624 l 257
EndSplineSet
EndChar
StartChar: dblverticalbar
Encoding: 218 8214 218
GlifName: dblverticalbar
Width: 800
VWidth: 0
Flags: W
LayerCount: 2
Fore
SplineSet
419 1500 m 257
 419 0 l 257
 200 0 l 257
 200 1500 l 257
 419 1500 l 257
719 1500 m 257
 719 0 l 257
 500 0 l 257
 500 1500 l 257
 719 1500 l 257
EndSplineSet
EndChar
StartChar: quotesinglbase
Encoding: 445 8218 445
GlifName: quotesinglbase
Width: 700
VWidth: 0
Flags: W
LayerCount: 2
Fore
SplineSet
142 121 m 257
 142 152 142 152 153.5 180 c 128
 165 208 165 208 186 229 c 128
 207 250 207 250 236 262.5 c 128
 265 275 265 275 300 275 c 257
 334 275 334 275 364 262.5 c 128
 394 250 394 250 416.5 229 c 128
 439 208 439 208 451.5 180 c 128
 464 152 464 152 464 121 c 257
 464 85 464 85 457 40.5 c 128
 450 -4 450 -4 430 -53.5 c 128
 410 -103 410 -103 373.5 -156.5 c 128
 337 -210 337 -210 277 -266 c 257
 175 -208 l 257
 186 -190 186 -190 197.5 -167 c 128
 209 -144 209 -144 218.5 -118.5 c 128
 228 -93 228 -93 235 -67 c 128
 242 -41 242 -41 245 -17 c 257
 225 -9 225 -9 206.5 2 c 128
 188 13 188 13 174 29 c 128
 160 45 160 45 151 67.5 c 128
 142 90 142 90 142 121 c 257
EndSplineSet
EndChar
StartChar: guilsinglleft
Encoding: 298 8249 298
GlifName: guilsinglleft
Width: 900
VWidth: 0
Flags: W
LayerCount: 2
Fore
SplineSet
684 1106 m 257
 773 880 l 257
 442 583 l 257
 366 550 l 257
 441 517 l 257
 775 224 l 257
 681 -13 l 257
 126 476 l 257
 126 620 l 257
 684 1106 l 257
EndSplineSet
EndChar
StartChar: ismallsuperior
Encoding: 324 8305 324
GlifName: ismallsuperior
Width: 300
VWidth: 0
Flags: W
LayerCount: 2
Fore
SplineSet
221 720 m 257
 63 720 l 257
 63 1244 l 257
 221 1260 l 257
 221 720 l 257
60 1470 m 257
 224 1470 l 257
 224 1354 l 257
 60 1354 l 257
 60 1470 l 257
EndSplineSet
EndChar
StartChar: sixsuperior
Encoding: 484 8310 484
GlifName: sixsuperior
Width: 600
VWidth: 0
Flags: W
LayerCount: 2
Fore
SplineSet
497 1360 m 257
 484 1367 484 1367 468.5 1368.5 c 128
 453 1370 453 1370 441 1370 c 257
 407 1370 407 1370 370 1353 c 128
 333 1336 333 1336 300.5 1304 c 128
 268 1272 268 1272 244 1225.5 c 128
 220 1179 220 1179 211 1120 c 257
 293 1192 l 257
 307 1195 307 1195 319.5 1196.5 c 128
 332 1198 332 1198 344 1198 c 257
 392 1198 392 1198 437.5 1185.5 c 128
 483 1173 483 1173 518 1147 c 128
 553 1121 553 1121 574 1080 c 128
 595 1039 595 1039 595 982 c 257
 595 927 595 927 575 877.5 c 128
 555 828 555 828 518.5 791 c 128
 482 754 482 754 431 732.5 c 128
 380 711 380 711 319 711 c 257
 265 711 265 711 223.5 727 c 128
 182 743 182 743 151.5 769.5 c 128
 121 796 121 796 100 829.5 c 128
 79 863 79 863 66 899 c 128
 53 935 53 935 47.5 970 c 128
 42 1005 42 1005 42 1033 c 257
 42 1092 42 1092 55 1148 c 128
 68 1204 68 1204 92 1253.5 c 128
 116 1303 116 1303 151.5 1344.5 c 128
 187 1386 187 1386 231.5 1415.5 c 128
 276 1445 276 1445 330 1461.5 c 128
 384 1478 384 1478 446 1478 c 257
 455 1478 455 1478 471.5 1477 c 128
 488 1476 488 1476 514 1469 c 257
 497 1360 l 257
337 1098 m 257
 319 1098 319 1098 300.5 1090.5 c 128
 282 1083 282 1083 265.5 1071.5 c 128
 249 1060 249 1060 234.5 1046 c 128
 220 1032 220 1032 211 1020 c 257
 211 1007 211 1007 211 996.5 c 128
 211 986 211 986 212 976 c 128
 213 966 213 966 214.5 956.5 c 128
 216 947 216 947 219 937 c 257
 225 913 225 913 235 892 c 128
 245 871 245 871 257.5 855 c 128
 270 839 270 839 286 829.5 c 128
 302 820 302 820 320 820 c 257
 347 820 347 820 367 834 c 128
 387 848 387 848 400.5 871 c 128
 414 894 414 894 420 922 c 128
 426 950 426 950 426 978 c 257
 426 1003 426 1003 419.5 1025 c 128
 413 1047 413 1047 401 1063 c 128
 389 1079 389 1079 372.5 1088.5 c 128
 356 1098 356 1098 337 1098 c 257
EndSplineSet
EndChar
StartChar: sevensuperior
Encoding: 475 8311 475
GlifName: sevensuperior
Width: 600
VWidth: 0
Flags: W
LayerCount: 2
Fore
SplineSet
70 1470 m 257
 573 1470 l 257
 573 1389 l 257
 573 1376 573 1376 566 1357 c 128
 559 1338 559 1338 546.5 1314.5 c 128
 534 1291 534 1291 518 1264 c 128
 502 1237 502 1237 484 1208 c 257
 463 1173 463 1173 440 1133.5 c 128
 417 1094 417 1094 397 1053 c 128
 377 1012 377 1012 362.5 971 c 128
 348 930 348 930 344 893 c 257
 342 875 342 875 340.5 853 c 128
 339 831 339 831 338.5 807.5 c 128
 338 784 338 784 338 761.5 c 128
 338 739 338 739 338 720 c 257
 170 720 l 257
 170 736 170 736 170 763 c 128
 170 790 170 790 171.5 820 c 128
 173 850 173 850 175 879 c 128
 177 908 177 908 182 929 c 257
 191 973 191 973 208.5 1018.5 c 128
 226 1064 226 1064 247 1107 c 128
 268 1150 268 1150 291.5 1189.5 c 128
 315 1229 315 1229 336 1263 c 257
 353 1291 353 1291 367.5 1315 c 128
 382 1339 382 1339 388 1356 c 257
 70 1356 l 257
 70 1470 l 257
EndSplineSet
EndChar
StartChar: eightsuperior
Encoding: 238 8312 238
GlifName: eightsuperior
Width: 600
VWidth: 0
Flags: W
LayerCount: 2
Fore
SplineSet
308 1478 m 257
 359 1478 359 1478 403 1465 c 128
 447 1452 447 1452 479 1427 c 128
 511 1402 511 1402 529 1366.5 c 128
 547 1331 547 1331 547 1287 c 257
 547 1261 547 1261 537 1239.5 c 128
 527 1218 527 1218 511 1200 c 128
 495 1182 495 1182 475 1167.5 c 128
 455 1153 455 1153 435 1142 c 257
 468 1126 468 1126 497 1104.5 c 128
 526 1083 526 1083 547.5 1057 c 128
 569 1031 569 1031 581 1000 c 128
 593 969 593 969 593 933 c 257
 593 876 593 876 569 834 c 128
 545 792 545 792 505.5 764.5 c 128
 466 737 466 737 415 724 c 128
 364 711 364 711 311 711 c 257
 259 711 259 711 210 726 c 128
 161 741 161 741 123.5 770 c 128
 86 799 86 799 63.5 841.5 c 128
 41 884 41 884 41 940 c 257
 41 976 41 976 51.5 1006.5 c 128
 62 1037 62 1037 81.5 1062.5 c 128
 101 1088 101 1088 127 1108.5 c 128
 153 1129 153 1129 185 1144 c 257
 162 1157 162 1157 142.5 1172.5 c 128
 123 1188 123 1188 108.5 1205 c 128
 94 1222 94 1222 85.5 1241 c 128
 77 1260 77 1260 77 1282 c 257
 77 1333 77 1333 99 1370 c 128
 121 1407 121 1407 155 1431 c 128
 189 1455 189 1455 229.5 1466.5 c 128
 270 1478 270 1478 308 1478 c 257
431 931 m 257
 431 958 431 958 419.5 980 c 128
 408 1002 408 1002 389.5 1019.5 c 128
 371 1037 371 1037 348.5 1051 c 128
 326 1065 326 1065 303 1075 c 257
 282 1065 282 1065 263.5 1051 c 128
 245 1037 245 1037 231.5 1019 c 128
 218 1001 218 1001 210.5 979 c 128
 203 957 203 957 203 930 c 257
 203 906 203 906 212.5 885.5 c 128
 222 865 222 865 237.5 850.5 c 128
 253 836 253 836 272.5 828 c 128
 292 820 292 820 311 820 c 257
 334 820 334 820 355.5 827.5 c 128
 377 835 377 835 393.5 849 c 128
 410 863 410 863 420.5 883.5 c 128
 431 904 431 904 431 931 c 257
237 1298 m 257
 237 1281 237 1281 244 1266.5 c 128
 251 1252 251 1252 263 1240 c 128
 275 1228 275 1228 290 1218.5 c 128
 305 1209 305 1209 321 1202 c 257
 335 1209 335 1209 347 1219 c 128
 359 1229 359 1229 367.5 1240.5 c 128
 376 1252 376 1252 381.5 1266 c 128
 387 1280 387 1280 387 1296 c 257
 387 1315 387 1315 379.5 1329 c 128
 372 1343 372 1343 361.5 1352 c 128
 351 1361 351 1361 339 1365.5 c 128
 327 1370 327 1370 317 1370 c 257
 303 1370 303 1370 288.5 1364.5 c 128
 274 1359 274 1359 263 1349 c 128
 252 1339 252 1339 244.5 1326 c 128
 237 1313 237 1313 237 1298 c 257
EndSplineSet
EndChar
StartChar: plussuperior
Encoding: 428 8314 428
GlifName: plussuperior
Width: 600
VWidth: 0
Flags: W
LayerCount: 2
Fore
SplineSet
40 1070 m 257
 220 1070 l 257
 220 1285 l 257
 330 1285 l 257
 330 1070 l 257
 510 1070 l 257
 510 970 l 257
 330 970 l 257
 330 770 l 257
 220 770 l 257
 220 970 l 257
 40 970 l 257
 40 1070 l 257
EndSplineSet
EndChar
StartChar: equalsuperior
Encoding: 251 8316 251
GlifName: equalsuperior
Width: 500
VWidth: 0
Flags: W
LayerCount: 2
Fore
SplineSet
50 1120 m 257
 450 1120 l 257
 450 1010 l 257
 50 1010 l 257
 50 1120 l 257
50 920 m 257
 450 920 l 257
 450 810 l 257
 50 810 l 257
 50 920 l 257
EndSplineSet
EndChar
StartChar: parenrightsuperior
Encoding: 407 8318 407
GlifName: parenrightsuperior
Width: 500
VWidth: 0
Flags: W
LayerCount: 2
Fore
SplineSet
365 736 m 257
 365 689 365 689 360 647.5 c 128
 355 606 355 606 337.5 574.5 c 128
 320 543 320 543 286 525 c 128
 252 507 252 507 195 507 c 257
 183 507 183 507 168.5 508.5 c 128
 154 510 154 510 140 513.5 c 128
 126 517 126 517 113 522.5 c 128
 100 528 100 528 89 534 c 257
 138 594 l 257
 146 594 146 594 157 596 c 128
 168 598 168 598 178.5 607.5 c 128
 189 617 189 617 197 637 c 128
 205 657 205 657 205 694 c 257
 205 1330 l 257
 205 1366 205 1366 197.5 1386.5 c 128
 190 1407 190 1407 179 1417 c 128
 168 1427 168 1427 155.5 1429.5 c 128
 143 1432 143 1432 134 1432 c 257
 89 1489 l 257
 100 1496 100 1496 113 1501 c 128
 126 1506 126 1506 140 1509.5 c 128
 154 1513 154 1513 168.5 1515 c 128
 183 1517 183 1517 195 1517 c 257
 252 1517 252 1517 286 1500 c 128
 320 1483 320 1483 337.5 1453 c 128
 355 1423 355 1423 360 1382.5 c 128
 365 1342 365 1342 365 1296 c 257
 365 736 l 257
EndSplineSet
EndChar
StartChar: twoinferior
Encoding: 538 8322 538
GlifName: twoinferior
Width: 600
VWidth: 0
Flags: W
LayerCount: 2
Fore
SplineSet
56 -500 m 257
 56 -405 l 257
 79 -368 79 -368 110 -327.5 c 128
 141 -287 141 -287 173.5 -247.5 c 128
 206 -208 206 -208 237 -173 c 128
 268 -138 268 -138 291 -113 c 257
 318 -84 318 -84 337 -64 c 128
 356 -44 356 -44 367.5 -27 c 128
 379 -10 379 -10 384.5 7.5 c 128
 390 25 390 25 390 48 c 257
 390 67 390 67 383.5 85 c 128
 377 103 377 103 365.5 117.5 c 128
 354 132 354 132 338 141 c 128
 322 150 322 150 301 150 c 257
 260 150 260 150 229 122.5 c 128
 198 95 198 95 174 48 c 257
 58 91 l 257
 72 130 72 130 95 160.5 c 128
 118 191 118 191 149.5 213 c 128
 181 235 181 235 220.5 246.5 c 128
 260 258 260 258 309 258 c 257
 366 258 366 258 410.5 239.5 c 128
 455 221 455 221 485.5 190.5 c 128
 516 160 516 160 532 121 c 128
 548 82 548 82 548 43 c 257
 548 8 548 8 537 -21.5 c 128
 526 -51 526 -51 507.5 -78.5 c 128
 489 -106 489 -106 465.5 -133 c 128
 442 -160 442 -160 417 -190 c 257
 392 -220 392 -220 365.5 -251 c 128
 339 -282 339 -282 314.5 -310 c 128
 290 -338 290 -338 270.5 -361.5 c 128
 251 -385 251 -385 240 -400 c 257
 561 -400 l 257
 561 -500 l 257
 56 -500 l 257
EndSplineSet
EndChar
StartChar: fiveinferior
Encoding: 272 8325 272
GlifName: fiveinferior
Width: 600
VWidth: 0
Flags: W
LayerCount: 2
Fore
SplineSet
245 23 m 257
 257 26 257 26 271.5 27.5 c 128
 286 29 286 29 303 29 c 257
 361 29 361 29 407 12 c 128
 453 -5 453 -5 484.5 -34.5 c 128
 516 -64 516 -64 533 -103 c 128
 550 -142 550 -142 550 -187 c 257
 550 -239 550 -239 529.5 -282 c 128
 509 -325 509 -325 473.5 -359.5 c 128
 438 -394 438 -394 391 -420.5 c 128
 344 -447 344 -447 291 -464.5 c 128
 238 -482 238 -482 181.5 -491 c 128
 125 -500 125 -500 71 -500 c 257
 71 -387 l 257
 106 -386 106 -386 143.5 -379 c 128
 181 -372 181 -372 216 -360 c 128
 251 -348 251 -348 282 -331 c 128
 313 -314 313 -314 336 -293.5 c 128
 359 -273 359 -273 372.5 -248.5 c 128
 386 -224 386 -224 386 -197 c 257
 386 -177 386 -177 379 -157.5 c 128
 372 -138 372 -138 359.5 -123 c 128
 347 -108 347 -108 329.5 -98.5 c 128
 312 -89 312 -89 290 -89 c 257
 271 -89 271 -89 254.5 -92 c 128
 238 -95 238 -95 224.5 -100 c 128
 211 -105 211 -105 201 -110.5 c 128
 191 -116 191 -116 183 -121 c 257
 71 -121 l 257
 71 250 l 257
 504 250 l 257
 504 150 l 257
 245 150 l 257
 245 23 l 257
EndSplineSet
EndChar
StartChar: sixinferior
Encoding: 482 8326 482
GlifName: sixinferior
Width: 600
VWidth: 0
Flags: W
LayerCount: 2
Fore
SplineSet
497 140 m 257
 484 147 484 147 468.5 148.5 c 128
 453 150 453 150 441 150 c 257
 407 150 407 150 370 133 c 128
 333 116 333 116 300.5 84 c 128
 268 52 268 52 244 5.5 c 128
 220 -41 220 -41 211 -100 c 257
 293 -28 l 257
 307 -25 307 -25 319.5 -23.5 c 128
 332 -22 332 -22 344 -22 c 257
 392 -22 392 -22 437.5 -34.5 c 128
 483 -47 483 -47 518 -73 c 128
 553 -99 553 -99 574 -140 c 128
 595 -181 595 -181 595 -238 c 257
 595 -293 595 -293 575 -342.5 c 128
 555 -392 555 -392 518.5 -429 c 128
 482 -466 482 -466 431 -487.5 c 128
 380 -509 380 -509 319 -509 c 257
 265 -509 265 -509 223.5 -493 c 128
 182 -477 182 -477 151.5 -450.5 c 128
 121 -424 121 -424 100 -390.5 c 128
 79 -357 79 -357 66 -321 c 128
 53 -285 53 -285 47.5 -250 c 128
 42 -215 42 -215 42 -187 c 257
 42 -128 42 -128 55 -72 c 128
 68 -16 68 -16 92 33.5 c 128
 116 83 116 83 151.5 124.5 c 128
 187 166 187 166 231.5 195.5 c 128
 276 225 276 225 330 241.5 c 128
 384 258 384 258 446 258 c 257
 455 258 455 258 471.5 257 c 128
 488 256 488 256 514 249 c 257
 497 140 l 257
337 -122 m 257
 319 -122 319 -122 300.5 -129.5 c 128
 282 -137 282 -137 265.5 -148.5 c 128
 249 -160 249 -160 234.5 -174 c 128
 220 -188 220 -188 211 -200 c 257
 211 -213 211 -213 211 -223.5 c 128
 211 -234 211 -234 212 -244 c 128
 213 -254 213 -254 214.5 -263.5 c 128
 216 -273 216 -273 219 -283 c 257
 225 -307 225 -307 235 -328 c 128
 245 -349 245 -349 257.5 -365 c 128
 270 -381 270 -381 286 -390.5 c 128
 302 -400 302 -400 320 -400 c 257
 347 -400 347 -400 367 -386 c 128
 387 -372 387 -372 400.5 -349 c 128
 414 -326 414 -326 420 -298 c 128
 426 -270 426 -270 426 -242 c 257
 426 -217 426 -217 419.5 -195 c 128
 413 -173 413 -173 401 -157 c 128
 389 -141 389 -141 372.5 -131.5 c 128
 356 -122 356 -122 337 -122 c 257
EndSplineSet
EndChar
StartChar: seveninferior
Encoding: 473 8327 473
GlifName: seveninferior
Width: 600
VWidth: 0
Flags: W
LayerCount: 2
Fore
SplineSet
70 250 m 257
 573 250 l 257
 573 169 l 257
 573 156 573 156 566 137 c 128
 559 118 559 118 546.5 94.5 c 128
 534 71 534 71 518 44 c 128
 502 17 502 17 484 -12 c 257
 463 -47 463 -47 440 -86.5 c 128
 417 -126 417 -126 397 -167 c 128
 377 -208 377 -208 362.5 -249 c 128
 348 -290 348 -290 344 -327 c 257
 342 -345 342 -345 340.5 -367 c 128
 339 -389 339 -389 338.5 -412.5 c 128
 338 -436 338 -436 338 -458.5 c 128
 338 -481 338 -481 338 -500 c 257
 170 -500 l 257
 170 -484 170 -484 170 -457 c 128
 170 -430 170 -430 171.5 -400 c 128
 173 -370 173 -370 175 -341 c 128
 177 -312 177 -312 182 -291 c 257
 191 -247 191 -247 208.5 -201.5 c 128
 226 -156 226 -156 247 -113 c 128
 268 -70 268 -70 291.5 -30.5 c 128
 315 9 315 9 336 43 c 257
 353 71 353 71 367.5 95 c 128
 382 119 382 119 388 136 c 257
 70 136 l 257
 70 250 l 257
EndSplineSet
EndChar
StartChar: heightinferior
Encoding: 302 8328 302
GlifName: heightinferior
Width: 600
VWidth: 0
Flags: W
LayerCount: 2
Fore
SplineSet
308 258 m 257
 359 258 359 258 403 245 c 128
 447 232 447 232 479 207 c 128
 511 182 511 182 529 146.5 c 128
 547 111 547 111 547 67 c 257
 547 41 547 41 537 19.5 c 128
 527 -2 527 -2 511 -20 c 128
 495 -38 495 -38 475 -52.5 c 128
 455 -67 455 -67 435 -78 c 257
 468 -94 468 -94 497 -115.5 c 128
 526 -137 526 -137 547.5 -163 c 128
 569 -189 569 -189 581 -220 c 128
 593 -251 593 -251 593 -287 c 257
 593 -344 593 -344 569 -386 c 128
 545 -428 545 -428 505.5 -455.5 c 128
 466 -483 466 -483 415 -496 c 128
 364 -509 364 -509 311 -509 c 257
 259 -509 259 -509 210 -494 c 128
 161 -479 161 -479 123.5 -450 c 128
 86 -421 86 -421 63.5 -378.5 c 128
 41 -336 41 -336 41 -280 c 257
 41 -244 41 -244 51.5 -213.5 c 128
 62 -183 62 -183 81.5 -157.5 c 128
 101 -132 101 -132 127 -111.5 c 128
 153 -91 153 -91 185 -76 c 257
 162 -63 162 -63 142.5 -47.5 c 128
 123 -32 123 -32 108.5 -15 c 128
 94 2 94 2 85.5 21 c 128
 77 40 77 40 77 62 c 257
 77 113 77 113 99 150 c 128
 121 187 121 187 155 211 c 128
 189 235 189 235 229.5 246.5 c 128
 270 258 270 258 308 258 c 257
431 -289 m 257
 431 -262 431 -262 419.5 -240 c 128
 408 -218 408 -218 389.5 -200.5 c 128
 371 -183 371 -183 348.5 -169 c 128
 326 -155 326 -155 303 -145 c 257
 282 -155 282 -155 263.5 -169 c 128
 245 -183 245 -183 231.5 -201 c 128
 218 -219 218 -219 210.5 -241 c 128
 203 -263 203 -263 203 -290 c 257
 203 -314 203 -314 212.5 -334.5 c 128
 222 -355 222 -355 237.5 -369.5 c 128
 253 -384 253 -384 272.5 -392 c 128
 292 -400 292 -400 311 -400 c 257
 334 -400 334 -400 355.5 -392.5 c 128
 377 -385 377 -385 393.5 -371 c 128
 410 -357 410 -357 420.5 -336.5 c 128
 431 -316 431 -316 431 -289 c 257
237 78 m 257
 237 61 237 61 244 46.5 c 128
 251 32 251 32 263 20 c 128
 275 8 275 8 290 -1.5 c 128
 305 -11 305 -11 321 -18 c 257
 335 -11 335 -11 347 -1 c 128
 359 9 359 9 367.5 20.5 c 128
 376 32 376 32 381.5 46 c 128
 387 60 387 60 387 76 c 257
 387 95 387 95 379.5 109 c 128
 372 123 372 123 361.5 132 c 128
 351 141 351 141 339 145.5 c 128
 327 150 327 150 317 150 c 257
 303 150 303 150 288.5 144.5 c 128
 274 139 274 139 263 129 c 128
 252 119 252 119 244.5 106 c 128
 237 93 237 93 237 78 c 257
EndSplineSet
EndChar
StartChar: plusinferior
Encoding: 426 8330 426
GlifName: plusinferior
Width: 600
VWidth: 0
Flags: W
LayerCount: 2
Fore
SplineSet
40 -150 m 257
 220 -150 l 257
 220 65 l 257
 330 65 l 257
 330 -150 l 257
 510 -150 l 257
 510 -250 l 257
 330 -250 l 257
 330 -450 l 257
 220 -450 l 257
 220 -250 l 257
 40 -250 l 257
 40 -150 l 257
EndSplineSet
EndChar
StartChar: minusinferior
Encoding: 350 8331 350
GlifName: minusinferior
Width: 600
VWidth: 0
Flags: W
LayerCount: 2
Fore
SplineSet
50 -150 m 257
 500 -150 l 257
 500 -262 l 257
 50 -262 l 257
 50 -150 l 257
EndSplineSet
EndChar
StartChar: equalinferior
Encoding: 250 8332 250
GlifName: equalinferior
Width: 600
VWidth: 0
Flags: W
LayerCount: 2
Fore
SplineSet
50 -100 m 257
 450 -100 l 257
 450 -210 l 257
 50 -210 l 257
 50 -100 l 257
50 -300 m 257
 450 -300 l 257
 450 -410 l 257
 50 -410 l 257
 50 -300 l 257
EndSplineSet
EndChar
StartChar: parenleftinferior
Encoding: 403 8333 403
GlifName: parenleftinferior
Width: 400
VWidth: 0
Flags: W
LayerCount: 2
Fore
SplineSet
72 79 m 257
 72 125 72 125 77 165.5 c 128
 82 206 82 206 100 236 c 128
 118 266 118 266 151.5 283 c 128
 185 300 185 300 242 300 c 257
 255 300 255 300 269 298 c 128
 283 296 283 296 297.5 292.5 c 128
 312 289 312 289 325 284 c 128
 338 279 338 279 348 272 c 257
 303 215 l 257
 294 215 294 215 282 212.5 c 128
 270 210 270 210 259 200 c 128
 248 190 248 190 240.5 169.5 c 128
 233 149 233 149 233 113 c 257
 233 -523 l 257
 233 -560 233 -560 240.5 -580 c 128
 248 -600 248 -600 258.5 -609.5 c 128
 269 -619 269 -619 280.5 -621 c 128
 292 -623 292 -623 299 -623 c 257
 348 -683 l 257
 338 -689 338 -689 325 -694.5 c 128
 312 -700 312 -700 297.5 -703.5 c 128
 283 -707 283 -707 269 -708.5 c 128
 255 -710 255 -710 242 -710 c 257
 185 -710 185 -710 151.5 -692 c 128
 118 -674 118 -674 100 -642.5 c 128
 82 -611 82 -611 77 -569.5 c 128
 72 -528 72 -528 72 -481 c 257
 72 79 l 257
EndSplineSet
EndChar
StartChar: parenrightinferior
Encoding: 406 8334 406
GlifName: parenrightinferior
Width: 400
VWidth: 0
Flags: W
LayerCount: 2
Fore
SplineSet
365 -481 m 257
 365 -528 365 -528 360 -569.5 c 128
 355 -611 355 -611 337.5 -642.5 c 128
 320 -674 320 -674 286 -692 c 128
 252 -710 252 -710 195 -710 c 257
 183 -710 183 -710 168.5 -708.5 c 128
 154 -707 154 -707 140 -703.5 c 128
 126 -700 126 -700 113 -694.5 c 128
 100 -689 100 -689 89 -683 c 257
 138 -623 l 257
 146 -623 146 -623 157 -621 c 128
 168 -619 168 -619 178.5 -609.5 c 128
 189 -600 189 -600 197 -580 c 128
 205 -560 205 -560 205 -523 c 257
 205 113 l 257
 205 149 205 149 197.5 169.5 c 128
 190 190 190 190 179 200 c 128
 168 210 168 210 155.5 212.5 c 128
 143 215 143 215 134 215 c 257
 89 272 l 257
 100 279 100 279 113 284 c 128
 126 289 126 289 140 292.5 c 128
 154 296 154 296 168.5 298 c 128
 183 300 183 300 195 300 c 257
 252 300 252 300 286 283 c 128
 320 266 320 266 337.5 236 c 128
 355 206 355 206 360 165.5 c 128
 365 125 365 125 365 79 c 257
 365 -481 l 257
EndSplineSet
EndChar
StartChar: Euro
Encoding: 27 8364 27
GlifName: E_uro
Width: 1400
VWidth: 0
Flags: W
LayerCount: 2
Fore
SplineSet
521 492 m 257
 536 438 536 438 563 389 c 128
 590 340 590 340 627 302.5 c 128
 664 265 664 265 710 243 c 128
 756 221 756 221 810 221 c 257
 844 221 844 221 877 223.5 c 128
 910 226 910 226 946.5 234.5 c 128
 983 243 983 243 1026 260.5 c 128
 1069 278 1069 278 1123 308 c 257
 1242 133 l 257
 1141 52 1141 52 1028.5 17.5 c 128
 916 -17 916 -17 786 -17 c 257
 668 -17 668 -17 565.5 21.5 c 128
 463 60 463 60 382 128 c 128
 301 196 301 196 245 289 c 128
 189 382 189 382 164 491 c 257
 28 491 l 257
 28 700 l 257
 124 700 l 257
 123 717 123 717 122 732 c 128
 121 747 121 747 121 765 c 257
 121 776 121 776 121.5 791 c 128
 122 806 122 806 123 817 c 257
 28 817 l 257
 28 1025 l 257
 154 1025 l 257
 182 1131 182 1131 236 1221 c 128
 290 1311 290 1311 371 1377 c 128
 452 1443 452 1443 561 1480 c 128
 670 1517 670 1517 807 1517 c 257
 936 1517 936 1517 1043.5 1477.5 c 128
 1151 1438 1151 1438 1224 1373 c 257
 1123 1190 l 257
 1090 1215 1090 1215 1052 1232.5 c 128
 1014 1250 1014 1250 974.5 1260.5 c 128
 935 1271 935 1271 896 1275.5 c 128
 857 1280 857 1280 823 1280 c 257
 748 1280 748 1280 690.5 1254 c 128
 633 1228 633 1228 591.5 1182.5 c 128
 550 1137 550 1137 524 1074 c 128
 498 1011 498 1011 485 937 c 257
 610 1025 l 257
 1090 1025 l 257
 977 817 l 257
 472 817 l 257
 472 799 l 257
 472 785 472 785 472 767 c 128
 472 749 472 749 474 735 c 257
 426 628 l 257
 559 700 l 257
 919 700 l 257
 806 492 l 257
 521 492 l 257
EndSplineSet
EndChar
StartChar: indianrupee
Encoding: 318 8377 318
GlifName: indianrupee
Width: 1200
VWidth: 0
Flags: W
LayerCount: 2
Fore
SplineSet
150 1500 m 257
 1105 1500 l 257
 992 1292 l 257
 904 1292 l 257
 760 1340 l 257
 851 1251 l 257
 861 1231 861 1231 863 1207 c 128
 865 1183 865 1183 865 1169 c 257
 1106 1169 l 257
 992 959 l 257
 900 959 l 257
 787 990 l 257
 847 925 l 257
 825 866 825 866 784.5 815.5 c 128
 744 765 744 765 691.5 726 c 128
 639 687 639 687 577.5 661.5 c 128
 516 636 516 636 452 627 c 257
 600 583 l 257
 1037 0 l 257
 669 0 l 257
 242 573 l 257
 234 583 234 583 222 583 c 257
 130 583 l 257
 130 802 l 257
 300 802 l 257
 347 802 347 802 385 814.5 c 128
 423 827 423 827 453 848 c 128
 483 869 483 869 504.5 897.5 c 128
 526 926 526 926 540 959 c 257
 92 959 l 257
 150 1169 l 257
 546 1169 l 257
 540 1185 540 1185 530 1206.5 c 128
 520 1228 520 1228 501.5 1247 c 128
 483 1266 483 1266 453.5 1279 c 128
 424 1292 424 1292 380 1292 c 257
 92 1292 l 257
 150 1500 l 257
EndSplineSet
EndChar
StartChar: Rfraktur
Encoding: 70 8476 70
GlifName: R_fraktur
Width: 1600
VWidth: 0
Flags: W
LayerCount: 2
Fore
SplineSet
750 588 m 257
 830 660 l 257
 954 689 l 257
 985 696 985 696 1012 720 c 128
 1039 744 1039 744 1062 777.5 c 128
 1085 811 1085 811 1103 851.5 c 128
 1121 892 1121 892 1133.5 932.5 c 128
 1146 973 1146 973 1152.5 1010.5 c 128
 1159 1048 1159 1048 1159 1076 c 257
 1159 1108 1159 1108 1151.5 1136.5 c 128
 1144 1165 1144 1165 1135 1186 c 257
 1124 1211 1124 1211 1111 1232 c 257
 1025 1232 1025 1232 965 1219.5 c 128
 905 1207 905 1207 865 1186 c 128
 825 1165 825 1165 802 1137.5 c 128
 779 1110 779 1110 767.5 1079 c 128
 756 1048 756 1048 753 1015.5 c 128
 750 983 750 983 750 953 c 257
 750 588 l 257
1191 1400 m 257
 1230 1374 1230 1374 1264 1338 c 128
 1298 1302 1298 1302 1323 1259.5 c 128
 1348 1217 1348 1217 1362.5 1171.5 c 128
 1377 1126 1377 1126 1377 1083 c 257
 1377 1055 1377 1055 1371 1014.5 c 128
 1365 974 1365 974 1354 928.5 c 128
 1343 883 1343 883 1327.5 836 c 128
 1312 789 1312 789 1293.5 748 c 128
 1275 707 1275 707 1253.5 675.5 c 128
 1232 644 1232 644 1208 629 c 257
 1245 591 1245 591 1255 548 c 128
 1265 505 1265 505 1265 447 c 257
 1265 290 l 257
 1265 273 1265 273 1267.5 255 c 128
 1270 237 1270 237 1276 220.5 c 128
 1282 204 1282 204 1291 190.5 c 128
 1300 177 1300 177 1313 168 c 257
 1466 221 l 257
 1519 125 l 257
 1269 -17 l 257
 1233 -8 1233 -8 1193 6 c 128
 1153 20 1153 20 1118.5 44 c 128
 1084 68 1084 68 1061.5 105.5 c 128
 1039 143 1039 143 1039 200 c 257
 1039 371 l 257
 1039 412 1039 412 1038.5 439.5 c 128
 1038 467 1038 467 1035 487 c 128
 1032 507 1032 507 1025 523 c 128
 1018 539 1018 539 1006 556 c 257
 750 493 l 257
 750 300 l 257
 750 245 750 245 737.5 188.5 c 128
 725 132 725 132 695.5 86.5 c 128
 666 41 666 41 618 12 c 128
 570 -17 570 -17 499 -17 c 257
 465 -17 465 -17 432.5 -5.5 c 128
 400 6 400 6 374 20 c 257
 344 36 344 36 317 57 c 257
 296 157 l 257
 149 26 l 257
 30 116 l 257
 260 313 l 257
 457 169 l 257
 480 181 480 181 493.5 197.5 c 128
 507 214 507 214 514.5 232 c 128
 522 250 522 250 524.5 268 c 128
 527 286 527 286 527 300 c 257
 527 953 l 257
 527 980 527 980 536 1014.5 c 128
 545 1049 545 1049 570.5 1085 c 128
 596 1121 596 1121 643 1155 c 128
 690 1189 690 1189 767 1216 c 257
 300 1216 l 257
 277 1196 277 1196 268.5 1169 c 128
 260 1142 260 1142 260 1112 c 257
 260 1092 260 1092 264.5 1073.5 c 128
 269 1055 269 1055 274 1040 c 257
 280 1022 280 1022 289 1007 c 257
 183 947 l 257
 147 994 147 994 135.5 1037 c 128
 124 1080 124 1080 124 1130 c 257
 124 1167 124 1167 134 1203.5 c 128
 144 1240 144 1240 161 1274.5 c 128
 178 1309 178 1309 200.5 1341 c 128
 223 1373 223 1373 247 1400 c 257
 1191 1400 l 257
EndSplineSet
EndChar
StartChar: aleph
Encoding: 109 8501 109
GlifName: aleph
Width: 1200
VWidth: 0
Flags: W
LayerCount: 2
Fore
SplineSet
687 1100 m 257
 691 1044 691 1044 713.5 1010 c 128
 736 976 736 976 768 952 c 128
 800 928 800 928 836 909 c 128
 872 890 872 890 902.5 865 c 128
 933 840 933 840 953 803 c 128
 973 766 973 766 973 707 c 257
 973 644 973 644 945 568 c 257
 859 568 l 257
 859 607 859 607 851.5 635.5 c 128
 844 664 844 664 831.5 686.5 c 128
 819 709 819 709 801.5 726.5 c 128
 784 744 784 744 763 759 c 257
 751 717 751 717 730 685.5 c 128
 709 654 709 654 677 622 c 257
 774 565 774 565 835.5 504.5 c 128
 897 444 897 444 931.5 385 c 128
 966 326 966 326 979 271 c 128
 992 216 992 216 992 168 c 257
 992 113 992 113 981 67 c 128
 970 21 970 21 961 0 c 257
 856 0 l 257
 856 64 856 64 835.5 114.5 c 128
 815 165 815 165 779 208 c 128
 743 251 743 251 694 289 c 128
 645 327 645 327 588 367.5 c 128
 531 408 531 408 468 454 c 128
 405 500 405 500 342 558 c 257
 342 666 l 257
 313 635 313 635 295.5 614 c 128
 278 593 278 593 268.5 577.5 c 128
 259 562 259 562 256 550.5 c 128
 253 539 253 539 253 529 c 257
 253 490 253 490 272 455 c 128
 291 420 291 420 320 386.5 c 128
 349 353 349 353 382 320.5 c 128
 415 288 415 288 444 253.5 c 128
 473 219 473 219 492 182 c 128
 511 145 511 145 511 103 c 257
 511 53 511 53 480 0 c 257
 98 0 l 257
 138 140 l 257
 313 140 l 257
 160 228 l 257
 134 267 134 267 116 314.5 c 128
 98 362 98 362 98 421 c 257
 98 457 98 457 107 493.5 c 128
 116 530 116 530 131.5 564.5 c 128
 147 599 147 599 169 630.5 c 128
 191 662 191 662 218 688 c 257
 157 750 157 750 128.5 808.5 c 128
 100 867 100 867 100 936 c 257
 100 972 100 972 107.5 1012 c 128
 115 1052 115 1052 130 1100 c 257
 219 1100 l 257
 219 1042 219 1042 246.5 989.5 c 128
 274 937 274 937 318 889.5 c 128
 362 842 362 842 417 800 c 128
 472 758 472 758 528 721 c 257
 528 624 l 257
 567 659 567 659 591.5 685 c 128
 616 711 616 711 629 732 c 128
 642 753 642 753 646.5 771.5 c 128
 651 790 651 790 651 811 c 257
 651 823 l 257
 606 858 606 858 585.5 891 c 128
 565 924 565 924 565 969 c 257
 565 1020 565 1020 593 1100 c 257
 687 1100 l 257
EndSplineSet
EndChar
StartChar: onefifth
Encoding: 385 8533 385
GlifName: onefifth
Width: 1500
VWidth: 0
Flags: W
LayerCount: 2
Fore
SplineSet
473 0 m 257
 288 0 l 257
 1063 1500 l 257
 1239 1500 l 257
 473 0 l 257
282 1162 m 257
 319 1343 l 257
 205 1208 l 257
 163 1171 l 257
 86 1263 l 257
 326 1484 l 257
 447 1468 l 257
 447 822 l 257
 569 822 l 257
 569 722 l 257
 160 722 l 257
 160 822 l 257
 282 822 l 257
 282 1162 l 257
1072 561 m 257
 1084 564 1084 564 1098.5 565.5 c 128
 1113 567 1113 567 1130 567 c 257
 1188 567 1188 567 1234 550 c 128
 1280 533 1280 533 1311.5 503.5 c 128
 1343 474 1343 474 1360 435 c 128
 1377 396 1377 396 1377 351 c 257
 1377 299 1377 299 1356.5 256 c 128
 1336 213 1336 213 1300.5 178.5 c 128
 1265 144 1265 144 1218 117.5 c 128
 1171 91 1171 91 1118 73.5 c 128
 1065 56 1065 56 1008.5 47 c 128
 952 38 952 38 898 38 c 257
 898 151 l 257
 933 152 933 152 970.5 159 c 128
 1008 166 1008 166 1043 178 c 128
 1078 190 1078 190 1109 207 c 128
 1140 224 1140 224 1163 244.5 c 128
 1186 265 1186 265 1199.5 289.5 c 128
 1213 314 1213 314 1213 341 c 257
 1213 361 1213 361 1206 380.5 c 128
 1199 400 1199 400 1186.5 415 c 128
 1174 430 1174 430 1156.5 439.5 c 128
 1139 449 1139 449 1117 449 c 257
 1098 449 1098 449 1081.5 446 c 128
 1065 443 1065 443 1051.5 438 c 128
 1038 433 1038 433 1028 427.5 c 128
 1018 422 1018 422 1010 417 c 257
 898 417 l 257
 898 788 l 257
 1331 788 l 257
 1331 688 l 257
 1072 688 l 257
 1072 561 l 257
EndSplineSet
EndChar
StartChar: twofifths
Encoding: 537 8534 537
GlifName: twofifths
Width: 1500
VWidth: 0
Flags: W
LayerCount: 2
Fore
SplineSet
474 0 m 257
 289 0 l 257
 1064 1500 l 257
 1240 1500 l 257
 474 0 l 257
74 722 m 257
 74 817 l 257
 97 854 97 854 128 894.5 c 128
 159 935 159 935 191.5 974.5 c 128
 224 1014 224 1014 255 1049 c 128
 286 1084 286 1084 309 1109 c 257
 336 1138 336 1138 355 1158 c 128
 374 1178 374 1178 385.5 1195 c 128
 397 1212 397 1212 402.5 1229.5 c 128
 408 1247 408 1247 408 1270 c 257
 408 1289 408 1289 401.5 1307 c 128
 395 1325 395 1325 383.5 1339.5 c 128
 372 1354 372 1354 356 1363 c 128
 340 1372 340 1372 319 1372 c 257
 278 1372 278 1372 247 1344.5 c 128
 216 1317 216 1317 192 1270 c 257
 76 1313 l 257
 90 1352 90 1352 113 1382.5 c 128
 136 1413 136 1413 167.5 1435 c 128
 199 1457 199 1457 238.5 1468.5 c 128
 278 1480 278 1480 327 1480 c 257
 384 1480 384 1480 428.5 1461.5 c 128
 473 1443 473 1443 503.5 1412.5 c 128
 534 1382 534 1382 550 1343 c 128
 566 1304 566 1304 566 1265 c 257
 566 1230 566 1230 555 1200.5 c 128
 544 1171 544 1171 525.5 1143.5 c 128
 507 1116 507 1116 483.5 1089 c 128
 460 1062 460 1062 435 1032 c 257
 410 1002 410 1002 383.5 971 c 128
 357 940 357 940 332.5 912 c 128
 308 884 308 884 288.5 860.5 c 128
 269 837 269 837 258 822 c 257
 579 822 l 257
 579 722 l 257
 74 722 l 257
1073 561 m 257
 1085 564 1085 564 1099.5 565.5 c 128
 1114 567 1114 567 1131 567 c 257
 1189 567 1189 567 1235 550 c 128
 1281 533 1281 533 1312.5 503.5 c 128
 1344 474 1344 474 1361 435 c 128
 1378 396 1378 396 1378 351 c 257
 1378 299 1378 299 1357.5 256 c 128
 1337 213 1337 213 1301.5 178.5 c 128
 1266 144 1266 144 1219 117.5 c 128
 1172 91 1172 91 1119 73.5 c 128
 1066 56 1066 56 1009.5 47 c 128
 953 38 953 38 899 38 c 257
 899 151 l 257
 934 152 934 152 971.5 159 c 128
 1009 166 1009 166 1044 178 c 128
 1079 190 1079 190 1110 207 c 128
 1141 224 1141 224 1164 244.5 c 128
 1187 265 1187 265 1200.5 289.5 c 128
 1214 314 1214 314 1214 341 c 257
 1214 361 1214 361 1207 380.5 c 128
 1200 400 1200 400 1187.5 415 c 128
 1175 430 1175 430 1157.5 439.5 c 128
 1140 449 1140 449 1118 449 c 257
 1099 449 1099 449 1082.5 446 c 128
 1066 443 1066 443 1052.5 438 c 128
 1039 433 1039 433 1029 427.5 c 128
 1019 422 1019 422 1011 417 c 257
 899 417 l 257
 899 788 l 257
 1332 788 l 257
 1332 688 l 257
 1073 688 l 257
 1073 561 l 257
EndSplineSet
EndChar
StartChar: threefifths
Encoding: 522 8535 522
GlifName: threefifths
Width: 1500
VWidth: 0
Flags: W
LayerCount: 2
Fore
SplineSet
474 0 m 257
 289 0 l 257
 1064 1500 l 257
 1240 1500 l 257
 474 0 l 257
1073 561 m 257
 1085 564 1085 564 1099.5 565.5 c 128
 1114 567 1114 567 1131 567 c 257
 1189 567 1189 567 1235 550 c 128
 1281 533 1281 533 1312.5 503.5 c 128
 1344 474 1344 474 1361 435 c 128
 1378 396 1378 396 1378 351 c 257
 1378 299 1378 299 1357.5 256 c 128
 1337 213 1337 213 1301.5 178.5 c 128
 1266 144 1266 144 1219 117.5 c 128
 1172 91 1172 91 1119 73.5 c 128
 1066 56 1066 56 1009.5 47 c 128
 953 38 953 38 899 38 c 257
 899 151 l 257
 934 152 934 152 971.5 159 c 128
 1009 166 1009 166 1044 178 c 128
 1079 190 1079 190 1110 207 c 128
 1141 224 1141 224 1164 244.5 c 128
 1187 265 1187 265 1200.5 289.5 c 128
 1214 314 1214 314 1214 341 c 257
 1214 361 1214 361 1207 380.5 c 128
 1200 400 1200 400 1187.5 415 c 128
 1175 430 1175 430 1157.5 439.5 c 128
 1140 449 1140 449 1118 449 c 257
 1099 449 1099 449 1082.5 446 c 128
 1066 443 1066 443 1052.5 438 c 128
 1039 433 1039 433 1029 427.5 c 128
 1019 422 1019 422 1011 417 c 257
 899 417 l 257
 899 788 l 257
 1332 788 l 257
 1332 688 l 257
 1073 688 l 257
 1073 561 l 257
150 1191 m 257
 165 1201 165 1201 185.5 1216 c 128
 206 1231 206 1231 229 1249 c 128
 252 1267 252 1267 276.5 1287 c 128
 301 1307 301 1307 323 1327.5 c 128
 345 1348 345 1348 363.5 1369 c 128
 382 1390 382 1390 394 1409 c 257
 264 1372 l 257
 99 1372 l 257
 109 1472 l 257
 530 1472 l 257
 530 1385 l 257
 515 1346 515 1346 486 1313 c 128
 457 1280 457 1280 421 1248 c 257
 343 1206 l 257
 396 1206 396 1206 439 1192.5 c 128
 482 1179 482 1179 512.5 1153.5 c 128
 543 1128 543 1128 560 1091 c 128
 577 1054 577 1054 577 1008 c 257
 577 959 577 959 556.5 918.5 c 128
 536 878 536 878 501 846 c 128
 466 814 466 814 418.5 790.5 c 128
 371 767 371 767 317.5 752 c 128
 264 737 264 737 206.5 729.5 c 128
 149 722 149 722 94 722 c 257
 94 822 l 257
 153 824 153 824 209 837.5 c 128
 265 851 265 851 309 874 c 128
 353 897 353 897 379.5 930 c 128
 406 963 406 963 406 1003 c 257
 406 1032 406 1032 394 1052 c 128
 382 1072 382 1072 361 1084 c 128
 340 1096 340 1096 312 1101.5 c 128
 284 1107 284 1107 253 1107 c 257
 246 1107 246 1107 231.5 1106 c 128
 217 1105 217 1105 201.5 1104.5 c 128
 186 1104 186 1104 171.5 1103 c 128
 157 1102 157 1102 150 1102 c 257
 150 1191 l 257
EndSplineSet
EndChar
StartChar: onesixth
Encoding: 390 8537 390
GlifName: onesixth
Width: 1500
VWidth: 0
Flags: W
LayerCount: 2
Fore
SplineSet
474 0 m 257
 289 0 l 257
 1064 1500 l 257
 1240 1500 l 257
 474 0 l 257
284 1162 m 257
 321 1343 l 257
 207 1208 l 257
 165 1171 l 257
 88 1263 l 257
 328 1484 l 257
 449 1468 l 257
 449 822 l 257
 571 822 l 257
 571 722 l 257
 162 722 l 257
 162 822 l 257
 284 822 l 257
 284 1162 l 257
1326 678 m 257
 1313 685 1313 685 1297.5 686.5 c 128
 1282 688 1282 688 1270 688 c 257
 1236 688 1236 688 1199 671 c 128
 1162 654 1162 654 1129.5 622 c 128
 1097 590 1097 590 1073 543.5 c 128
 1049 497 1049 497 1040 438 c 257
 1122 510 l 257
 1136 513 1136 513 1148.5 514.5 c 128
 1161 516 1161 516 1173 516 c 257
 1221 516 1221 516 1266.5 503.5 c 128
 1312 491 1312 491 1347 465 c 128
 1382 439 1382 439 1403 398 c 128
 1424 357 1424 357 1424 300 c 257
 1424 245 1424 245 1404 195.5 c 128
 1384 146 1384 146 1347.5 109 c 128
 1311 72 1311 72 1260 50.5 c 128
 1209 29 1209 29 1148 29 c 257
 1094 29 1094 29 1052.5 45 c 128
 1011 61 1011 61 980.5 87.5 c 128
 950 114 950 114 929 147.5 c 128
 908 181 908 181 895 217 c 128
 882 253 882 253 876.5 288 c 128
 871 323 871 323 871 351 c 257
 871 410 871 410 884 466 c 128
 897 522 897 522 921 571.5 c 128
 945 621 945 621 980.5 662.5 c 128
 1016 704 1016 704 1060.5 733.5 c 128
 1105 763 1105 763 1159 779.5 c 128
 1213 796 1213 796 1275 796 c 257
 1284 796 1284 796 1300.5 795 c 128
 1317 794 1317 794 1343 787 c 257
 1326 678 l 257
1166 416 m 257
 1148 416 1148 416 1129.5 408.5 c 128
 1111 401 1111 401 1094.5 389.5 c 128
 1078 378 1078 378 1063.5 364 c 128
 1049 350 1049 350 1040 338 c 257
 1040 325 1040 325 1040 314.5 c 128
 1040 304 1040 304 1041 294 c 128
 1042 284 1042 284 1043.5 274.5 c 128
 1045 265 1045 265 1048 255 c 257
 1054 231 1054 231 1064 210 c 128
 1074 189 1074 189 1086.5 173 c 128
 1099 157 1099 157 1115 147.5 c 128
 1131 138 1131 138 1149 138 c 257
 1176 138 1176 138 1196 152 c 128
 1216 166 1216 166 1229.5 189 c 128
 1243 212 1243 212 1249 240 c 128
 1255 268 1255 268 1255 296 c 257
 1255 321 1255 321 1248.5 343 c 128
 1242 365 1242 365 1230 381 c 128
 1218 397 1218 397 1201.5 406.5 c 128
 1185 416 1185 416 1166 416 c 257
EndSplineSet
EndChar
StartChar: fivesixths
Encoding: 274 8538 274
GlifName: fivesixths
Width: 1500
VWidth: 0
Flags: W
LayerCount: 2
Fore
SplineSet
474 0 m 257
 289 0 l 257
 1064 1500 l 257
 1240 1500 l 257
 474 0 l 257
1326 678 m 257
 1313 685 1313 685 1297.5 686.5 c 128
 1282 688 1282 688 1270 688 c 257
 1236 688 1236 688 1199 671 c 128
 1162 654 1162 654 1129.5 622 c 128
 1097 590 1097 590 1073 543.5 c 128
 1049 497 1049 497 1040 438 c 257
 1122 510 l 257
 1136 513 1136 513 1148.5 514.5 c 128
 1161 516 1161 516 1173 516 c 257
 1221 516 1221 516 1266.5 503.5 c 128
 1312 491 1312 491 1347 465 c 128
 1382 439 1382 439 1403 398 c 128
 1424 357 1424 357 1424 300 c 257
 1424 245 1424 245 1404 195.5 c 128
 1384 146 1384 146 1347.5 109 c 128
 1311 72 1311 72 1260 50.5 c 128
 1209 29 1209 29 1148 29 c 257
 1094 29 1094 29 1052.5 45 c 128
 1011 61 1011 61 980.5 87.5 c 128
 950 114 950 114 929 147.5 c 128
 908 181 908 181 895 217 c 128
 882 253 882 253 876.5 288 c 128
 871 323 871 323 871 351 c 257
 871 410 871 410 884 466 c 128
 897 522 897 522 921 571.5 c 128
 945 621 945 621 980.5 662.5 c 128
 1016 704 1016 704 1060.5 733.5 c 128
 1105 763 1105 763 1159 779.5 c 128
 1213 796 1213 796 1275 796 c 257
 1284 796 1284 796 1300.5 795 c 128
 1317 794 1317 794 1343 787 c 257
 1326 678 l 257
1166 416 m 257
 1148 416 1148 416 1129.5 408.5 c 128
 1111 401 1111 401 1094.5 389.5 c 128
 1078 378 1078 378 1063.5 364 c 128
 1049 350 1049 350 1040 338 c 257
 1040 325 1040 325 1040 314.5 c 128
 1040 304 1040 304 1041 294 c 128
 1042 284 1042 284 1043.5 274.5 c 128
 1045 265 1045 265 1048 255 c 257
 1054 231 1054 231 1064 210 c 128
 1074 189 1074 189 1086.5 173 c 128
 1099 157 1099 157 1115 147.5 c 128
 1131 138 1131 138 1149 138 c 257
 1176 138 1176 138 1196 152 c 128
 1216 166 1216 166 1229.5 189 c 128
 1243 212 1243 212 1249 240 c 128
 1255 268 1255 268 1255 296 c 257
 1255 321 1255 321 1248.5 343 c 128
 1242 365 1242 365 1230 381 c 128
 1218 397 1218 397 1201.5 406.5 c 128
 1185 416 1185 416 1166 416 c 257
264 1245 m 257
 276 1248 276 1248 290.5 1249.5 c 128
 305 1251 305 1251 322 1251 c 257
 380 1251 380 1251 426 1234 c 128
 472 1217 472 1217 503.5 1187.5 c 128
 535 1158 535 1158 552 1119 c 128
 569 1080 569 1080 569 1035 c 257
 569 983 569 983 548.5 940 c 128
 528 897 528 897 492.5 862.5 c 128
 457 828 457 828 410 801.5 c 128
 363 775 363 775 310 757.5 c 128
 257 740 257 740 200.5 731 c 128
 144 722 144 722 90 722 c 257
 90 835 l 257
 125 836 125 836 162.5 843 c 128
 200 850 200 850 235 862 c 128
 270 874 270 874 301 891 c 128
 332 908 332 908 355 928.5 c 128
 378 949 378 949 391.5 973.5 c 128
 405 998 405 998 405 1025 c 257
 405 1045 405 1045 398 1064.5 c 128
 391 1084 391 1084 378.5 1099 c 128
 366 1114 366 1114 348.5 1123.5 c 128
 331 1133 331 1133 309 1133 c 257
 290 1133 290 1133 273.5 1130 c 128
 257 1127 257 1127 243.5 1122 c 128
 230 1117 230 1117 220 1111.5 c 128
 210 1106 210 1106 202 1101 c 257
 90 1101 l 257
 90 1472 l 257
 523 1472 l 257
 523 1372 l 257
 264 1372 l 257
 264 1245 l 257
EndSplineSet
EndChar
StartChar: fractionnumeratorone
Encoding: 286 8543 286
GlifName: fractionnumeratorone
Width: 1500
VWidth: 0
Flags: W
LayerCount: 2
Fore
SplineSet
474 0 m 257
 289 0 l 257
 1064 1500 l 257
 1240 1500 l 257
 474 0 l 257
282 1162 m 257
 319 1343 l 257
 205 1208 l 257
 163 1171 l 257
 86 1263 l 257
 326 1484 l 257
 447 1468 l 257
 447 822 l 257
 569 822 l 257
 569 722 l 257
 160 722 l 257
 160 822 l 257
 282 822 l 257
 282 1162 l 257
EndSplineSet
EndChar
StartChar: undo
Encoding: 549 8630 549
GlifName: undo
Width: 1600
VWidth: 0
Flags: W
LayerCount: 2
Fore
SplineSet
500 369 m 257
 666 200 l 257
 262 200 l 257
 80 180 l 257
 100 362 l 257
 100 766 l 257
 268 601 l 257
 279 508 l 257
 346 587 l 257
 424 668 424 668 499.5 735 c 128
 575 802 575 802 654 850 c 128
 733 898 733 898 817.5 924.5 c 128
 902 951 902 951 1000 951 c 257
 1112 951 1112 951 1204 925 c 128
 1296 899 1296 899 1361 844 c 128
 1426 789 1426 789 1462 703.5 c 128
 1498 618 1498 618 1500 500 c 257
 1330 500 l 257
 1330 560 1330 560 1304.5 606.5 c 128
 1279 653 1279 653 1236 685.5 c 128
 1193 718 1193 718 1135 734.5 c 128
 1077 751 1077 751 1013 751 c 257
 942 751 942 751 876 723.5 c 128
 810 696 810 696 746 652.5 c 128
 682 609 682 609 618 554.5 c 128
 554 500 554 500 487 446 c 257
 406 381 l 257
 500 369 l 257
EndSplineSet
EndChar
StartChar: arrowdblleftright
Encoding: 118 8660 118
GlifName: arrowdblleftright
Width: 1900
VWidth: 0
Flags: W
LayerCount: 2
Fore
SplineSet
1800 600 m 257
 1693 509 l 257
 1327 143 l 257
 1157 143 l 257
 1402 388 l 257
 1302 400 l 257
 598 400 l 257
 498 388 l 257
 743 143 l 257
 573 143 l 257
 207 509 l 257
 100 600 l 257
 207 691 l 257
 573 1057 l 257
 743 1057 l 257
 498 813 l 257
 598 800 l 257
 1302 800 l 257
 1402 813 l 257
 1157 1057 l 257
 1327 1057 l 257
 1693 691 l 257
 1800 600 l 257
748 516 m 257
 1152 516 l 257
 1502 488 l 257
 1633 600 l 257
 1502 712 l 257
 1152 684 l 257
 748 684 l 257
 398 712 l 257
 267 600 l 257
 398 488 l 257
 748 516 l 257
EndSplineSet
EndChar
StartChar: existential
Encoding: 259 8707 259
GlifName: existential
Width: 1300
VWidth: 0
Flags: W
LayerCount: 2
Fore
SplineSet
1014 160 m 257
 999 350 l 257
 999 650 l 257
 247 650 l 257
 229 800 l 257
 999 800 l 257
 999 950 l 257
 1019 1150 l 257
 174 1150 l 257
 174 1300 l 257
 1191 1300 l 257
 1169 1100 l 257
 1169 200 l 257
 1186 0 l 257
 174 0 l 257
 174 160 l 257
 1014 160 l 257
EndSplineSet
EndChar
StartChar: theredoesnotexist
Encoding: 515 8708 515
GlifName: theredoesnotexist
Width: 1300
VWidth: 0
Flags: W
LayerCount: 2
Fore
SplineSet
420 -200 m 257
 265 -200 l 257
 874 1500 l 257
 1020 1500 l 257
 420 -200 l 257
1014 160 m 257
 999 350 l 257
 999 650 l 257
 247 650 l 257
 229 800 l 257
 999 800 l 257
 999 950 l 257
 1019 1150 l 257
 174 1150 l 257
 174 1300 l 257
 1191 1300 l 257
 1169 1100 l 257
 1169 200 l 257
 1186 0 l 257
 174 0 l 257
 174 160 l 257
 1014 160 l 257
EndSplineSet
EndChar
StartChar: infinity
Encoding: 319 8734 319
GlifName: infinity
Width: 1700
VWidth: 0
Flags: W
LayerCount: 2
Fore
SplineSet
477 330 m 257
 534 330 534 330 580 363 c 128
 626 396 626 396 661 445 c 128
 696 494 696 494 720.5 549.5 c 128
 745 605 745 605 760 650 c 257
 737 699 737 699 708.5 753.5 c 128
 680 808 680 808 643 854 c 128
 606 900 606 900 560 930 c 128
 514 960 514 960 457 960 c 257
 410 960 410 960 374.5 932.5 c 128
 339 905 339 905 315.5 861 c 128
 292 817 292 817 280.5 761.5 c 128
 269 706 269 706 269 650 c 257
 269 594 269 594 284 537 c 128
 299 480 299 480 326.5 434 c 128
 354 388 354 388 392.5 359 c 128
 431 330 431 330 477 330 c 257
820 551 m 257
 824 456 l 257
 798 405 798 405 765.5 356 c 128
 733 307 733 307 690 268.5 c 128
 647 230 647 230 591.5 206.5 c 128
 536 183 536 183 466 183 c 257
 369 183 369 183 299.5 225 c 128
 230 267 230 267 186 334 c 128
 142 401 142 401 121 484 c 128
 100 567 100 567 100 650 c 257
 100 705 100 705 108 761 c 128
 116 817 116 817 133.5 869 c 128
 151 921 151 921 179 966 c 128
 207 1011 207 1011 247.5 1044.5 c 128
 288 1078 288 1078 342 1097.5 c 128
 396 1117 396 1117 466 1117 c 257
 533 1117 533 1117 587 1093.5 c 128
 641 1070 641 1070 689 1024.5 c 128
 737 979 737 979 783 910.5 c 128
 829 842 829 842 880 752 c 257
 876 847 l 257
 902 898 902 898 934.5 947 c 128
 967 996 967 996 1010 1034.5 c 128
 1053 1073 1053 1073 1108 1096.5 c 128
 1163 1120 1163 1120 1234 1120 c 257
 1299 1120 1299 1120 1351 1100.5 c 128
 1403 1081 1403 1081 1444 1047.5 c 128
 1485 1014 1485 1014 1514.5 969 c 128
 1544 924 1544 924 1563 872 c 128
 1582 820 1582 820 1591 764 c 128
 1600 708 1600 708 1600 653 c 257
 1600 570 1600 570 1582 487 c 128
 1564 404 1564 404 1521.5 337 c 128
 1479 270 1479 270 1408.5 228 c 128
 1338 186 1338 186 1234 186 c 257
 1166 186 1166 186 1112.5 209.5 c 128
 1059 233 1059 233 1011 278.5 c 128
 963 324 963 324 917 392.5 c 128
 871 461 871 461 820 551 c 257
1223 973 m 257
 1166 973 1166 973 1120 940 c 128
 1074 907 1074 907 1039 858 c 128
 1004 809 1004 809 979.5 753.5 c 128
 955 698 955 698 940 653 c 257
 962 604 962 604 991 549.5 c 128
 1020 495 1020 495 1057 449 c 128
 1094 403 1094 403 1140 373 c 128
 1186 343 1186 343 1243 343 c 257
 1290 343 1290 343 1325.5 370.5 c 128
 1361 398 1361 398 1384.5 442 c 128
 1408 486 1408 486 1419.5 541.5 c 128
 1431 597 1431 597 1431 653 c 257
 1431 709 1431 709 1416 766 c 128
 1401 823 1401 823 1373.5 869 c 128
 1346 915 1346 915 1307.5 944 c 128
 1269 973 1269 973 1223 973 c 257
EndSplineSet
EndChar
StartChar: contourintegral
Encoding: 208 8750 208
GlifName: contourintegral
Width: 1100
VWidth: 0
Flags: W
LayerCount: 2
Fore
SplineSet
500 1117 m 257
 500 1202 500 1202 515.5 1275 c 128
 531 1348 531 1348 569 1402 c 128
 607 1456 607 1456 670.5 1486.5 c 128
 734 1517 734 1517 830 1517 c 257
 876 1517 876 1517 908.5 1513.5 c 128
 941 1510 941 1510 966.5 1503.5 c 128
 992 1497 992 1497 1012.5 1488.5 c 128
 1033 1480 1033 1480 1054 1470 c 257
 991 1347 l 257
 972 1358 972 1358 939.5 1366 c 128
 907 1374 907 1374 882 1374 c 257
 858 1374 858 1374 829.5 1369.5 c 128
 801 1365 801 1365 771.5 1345 c 128
 742 1325 742 1325 726 1293 c 128
 710 1261 710 1261 705 1216.5 c 128
 700 1172 700 1172 700 1117 c 257
 700 874 l 257
 759 859 759 859 809 828 c 128
 859 797 859 797 895.5 753.5 c 128
 932 710 932 710 952.5 657 c 128
 973 604 973 604 973 546 c 257
 973 487 973 487 952.5 434.5 c 128
 932 382 932 382 895.5 338.5 c 128
 859 295 859 295 809 263.5 c 128
 759 232 759 232 700 217 c 257
 700 -21 l 257
 700 -106 700 -106 684.5 -179 c 128
 669 -252 669 -252 631 -306 c 128
 593 -360 593 -360 529.5 -390.5 c 128
 466 -421 466 -421 370 -421 c 257
 324 -421 324 -421 288.5 -417.5 c 128
 253 -414 253 -414 224 -407.5 c 128
 195 -401 195 -401 171 -392.5 c 128
 147 -384 147 -384 126 -374 c 257
 209 -251 l 257
 228 -262 228 -262 260.5 -270 c 128
 293 -278 293 -278 318 -278 c 257
 326 -278 326 -278 362.5 -273.5 c 128
 399 -269 399 -269 428.5 -249 c 128
 458 -229 458 -229 474 -197 c 128
 490 -165 490 -165 495 -120.5 c 128
 500 -76 500 -76 500 -21 c 257
 500 217 l 257
 440 232 440 232 390 263.5 c 128
 340 295 340 295 303 338 c 128
 266 381 266 381 245.5 434 c 128
 225 487 225 487 225 546 c 257
 225 605 225 605 245.5 658 c 128
 266 711 266 711 303 754.5 c 128
 340 798 340 798 390 829 c 128
 440 860 440 860 500 875 c 257
 500 1117 l 257
357 546 m 257
 357 508 357 508 367.5 474 c 128
 378 440 378 440 396.5 411.5 c 128
 415 383 415 383 441.5 360.5 c 128
 468 338 468 338 500 324 c 257
 500 768 l 257
 436 739 436 739 396.5 680 c 128
 357 621 357 621 357 546 c 257
841 546 m 257
 841 583 841 583 830.5 616.5 c 128
 820 650 820 650 801.5 679 c 128
 783 708 783 708 757 730.5 c 128
 731 753 731 753 700 767 c 257
 700 325 l 257
 763 354 763 354 802 412.5 c 128
 841 471 841 471 841 546 c 257
EndSplineSet
EndChar
StartChar: asymptoticallyequal
Encoding: 139 8771 139
GlifName: asymptoticallyequal
Width: 1000
VWidth: 0
Flags: W
LayerCount: 2
Fore
SplineSet
100 400 m 257
 900 400 l 257
 900 260 l 257
 100 260 l 257
 100 400 l 257
660 500 m 257
 625 500 625 500 594 512.5 c 128
 563 525 563 525 534.5 544 c 128
 506 563 506 563 479.5 585 c 128
 453 607 453 607 427.5 626 c 128
 402 645 402 645 376.5 657.5 c 128
 351 670 351 670 325 670 c 257
 294 670 294 670 266.5 662.5 c 128
 239 655 239 655 212 641 c 128
 185 627 185 627 157.5 606.5 c 128
 130 586 130 586 100 560 c 257
 100 660 l 257
 120 688 120 688 143 713 c 128
 166 738 166 738 195 757.5 c 128
 224 777 224 777 259.5 788.5 c 128
 295 800 295 800 340 800 c 257
 392 800 392 800 436.5 773.5 c 128
 481 747 481 747 521 715 c 128
 561 683 561 683 598.5 656.5 c 128
 636 630 636 630 675 630 c 257
 736 630 736 630 788 658.5 c 128
 840 687 840 687 900 740 c 257
 900 640 l 257
 880 612 880 612 857 587 c 128
 834 562 834 562 805 542.5 c 128
 776 523 776 523 740.5 511.5 c 128
 705 500 705 500 660 500 c 257
EndSplineSet
EndChar
StartChar: congruent
Encoding: 207 8773 207
GlifName: congruent
Width: 1000
VWidth: 0
Flags: W
LayerCount: 2
Fore
SplineSet
100 600 m 257
 900 600 l 257
 900 460 l 257
 100 460 l 257
 100 600 l 257
100 300 m 257
 900 300 l 257
 900 160 l 257
 100 160 l 257
 100 300 l 257
660 700 m 257
 625 700 625 700 594 712.5 c 128
 563 725 563 725 534.5 744 c 128
 506 763 506 763 479.5 785 c 128
 453 807 453 807 427.5 826 c 128
 402 845 402 845 376.5 857.5 c 128
 351 870 351 870 325 870 c 257
 294 870 294 870 266.5 862.5 c 128
 239 855 239 855 212 841 c 128
 185 827 185 827 157.5 806.5 c 128
 130 786 130 786 100 760 c 257
 100 860 l 257
 120 888 120 888 143 913 c 128
 166 938 166 938 195 957.5 c 128
 224 977 224 977 259.5 988.5 c 128
 295 1000 295 1000 340 1000 c 257
 392 1000 392 1000 436.5 973.5 c 128
 481 947 481 947 521 915 c 128
 561 883 561 883 598.5 856.5 c 128
 636 830 636 830 675 830 c 257
 736 830 736 830 788 858.5 c 128
 840 887 840 887 900 940 c 257
 900 840 l 257
 880 812 880 812 857 787 c 128
 834 762 834 762 805 742.5 c 128
 776 723 776 723 740.5 711.5 c 128
 705 700 705 700 660 700 c 257
EndSplineSet
EndChar
StartChar: notequal
Encoding: 368 8800 368
GlifName: notequal
Width: 1000
VWidth: 0
Flags: W
LayerCount: 2
Fore
SplineSet
391 0 m 257
 236 0 l 257
 597 1000 l 257
 743 1000 l 257
 391 0 l 257
100 800 m 257
 900 800 l 257
 900 581 l 257
 100 581 l 257
 100 800 l 257
100 400 m 257
 900 400 l 257
 900 181 l 257
 100 181 l 257
 100 400 l 257
EndSplineSet
EndChar
StartChar: equivalence
Encoding: 252 8801 252
GlifName: equivalence
Width: 1000
VWidth: 0
Flags: W
LayerCount: 2
Fore
SplineSet
100 600 m 257
 900 600 l 257
 900 460 l 257
 100 460 l 257
 100 600 l 257
100 300 m 257
 900 300 l 257
 900 160 l 257
 100 160 l 257
 100 300 l 257
100 900 m 257
 900 900 l 257
 900 760 l 257
 100 760 l 257
 100 900 l 257
EndSplineSet
EndChar
StartChar: reflexsubset
Encoding: 452 8838 452
GlifName: reflexsubset
Width: 1498
VWidth: 0
Flags: W
LayerCount: 2
Fore
SplineSet
200 155 m 257
 1400 155 l 257
 1420 1 l 257
 200 1 l 257
 200 155 l 257
1420 300 m 257
 843 300 l 257
 672 300 672 300 534.5 340.5 c 128
 397 381 397 381 300.5 462.5 c 128
 204 544 204 544 152 666 c 128
 100 788 100 788 100 900 c 257
 100 1012 100 1012 152 1134 c 128
 204 1256 204 1256 300.5 1337.5 c 128
 397 1419 397 1419 534.5 1459.5 c 128
 672 1500 672 1500 843 1500 c 257
 1420 1500 l 257
 1400 1346 l 257
 847 1346 l 257
 716 1346 716 1346 611 1316.5 c 128
 506 1287 506 1287 432.5 1226 c 128
 359 1165 359 1165 320 1071 c 257
 292 1006 292 1006 292 899.5 c 128
 292 793 292 793 320 728 c 257
 359 634 359 634 432.5 573 c 128
 506 512 506 512 611 482.5 c 128
 716 453 716 453 847 453 c 257
 1400 453 l 257
 1420 300 l 257
EndSplineSet
EndChar
StartChar: circledivide
Encoding: 186 8856 186
GlifName: circledivide
Width: 1700
VWidth: 0
Flags: W
LayerCount: 2
Fore
SplineSet
82 750 m 257
 82 856 82 856 109.5 954 c 128
 137 1052 137 1052 187 1137 c 128
 237 1222 237 1222 307 1292 c 128
 377 1362 377 1362 462 1412 c 128
 547 1462 547 1462 645 1489.5 c 128
 743 1517 743 1517 849 1517 c 257
 955 1517 955 1517 1053 1489.5 c 128
 1151 1462 1151 1462 1236 1412 c 128
 1321 1362 1321 1362 1391 1292 c 128
 1461 1222 1461 1222 1511 1137 c 128
 1561 1052 1561 1052 1588.5 954 c 128
 1616 856 1616 856 1616 750 c 257
 1616 644 1616 644 1588.5 546 c 128
 1561 448 1561 448 1511 363 c 128
 1461 278 1461 278 1391 208 c 128
 1321 138 1321 138 1236 88 c 128
 1151 38 1151 38 1053 10.5 c 128
 955 -17 955 -17 849 -17 c 257
 743 -17 743 -17 645 10.5 c 128
 547 38 547 38 462 88 c 128
 377 138 377 138 307 208 c 128
 237 278 237 278 187 363 c 128
 137 448 137 448 109.5 546 c 128
 82 644 82 644 82 750 c 257
231 750 m 257
 231 641 231 641 265.5 544.5 c 128
 300 448 300 448 362 369 c 257
 1229 1236 l 257
 1150 1298 1150 1298 1053.5 1332.5 c 128
 957 1367 957 1367 849 1367 c 257
 721 1367 721 1367 608.5 1318.5 c 128
 496 1270 496 1270 412 1186.5 c 128
 328 1103 328 1103 279.5 990.5 c 128
 231 878 231 878 231 750 c 257
1466 750 m 257
 1466 858 1466 858 1431.5 954.5 c 128
 1397 1051 1397 1051 1335 1130 c 257
 468 263 l 257
 547 201 547 201 643.5 166.5 c 128
 740 132 740 132 849 132 c 257
 977 132 977 132 1089.5 180.5 c 128
 1202 229 1202 229 1285.5 313 c 128
 1369 397 1369 397 1417.5 509.5 c 128
 1466 622 1466 622 1466 750 c 257
EndSplineSet
EndChar
StartChar: phone
Encoding: 419 9742 419
GlifName: phone
Width: 1100
VWidth: 0
Flags: W
LayerCount: 2
Fore
SplineSet
629 629 m 257
 652 663 652 663 682.5 706.5 c 128
 713 750 713 750 741 789.5 c 128
 769 829 769 829 788 859.5 c 128
 807 890 807 890 807 899 c 257
 807 911 807 911 784 927 c 128
 761 943 761 943 733.5 959.5 c 128
 706 976 706 976 683 992.5 c 128
 660 1009 660 1009 660 1023 c 257
 660 1044 660 1044 671.5 1076.5 c 128
 683 1109 683 1109 702 1146 c 128
 721 1183 721 1183 744 1219.5 c 128
 767 1256 767 1256 790.5 1286 c 128
 814 1316 814 1316 834.5 1334.5 c 128
 855 1353 855 1353 869 1353 c 257
 884 1353 884 1353 913 1332.5 c 128
 942 1312 942 1312 971 1280 c 128
 1000 1248 1000 1248 1021.5 1210 c 128
 1043 1172 1043 1172 1043 1136 c 257
 1043 1081 1043 1081 1027.5 1007 c 128
 1012 933 1012 933 982.5 850 c 128
 953 767 953 767 911 678.5 c 128
 869 590 869 590 815 506 c 257
 761 422 761 422 699 346 c 128
 637 270 637 270 574 208 c 128
 511 146 511 146 450.5 100.5 c 128
 390 55 390 55 340 32 c 257
 327 26 327 26 311.5 23.5 c 128
 296 21 296 21 279 21 c 257
 246 21 246 21 211.5 29 c 128
 177 37 177 37 147 49 c 128
 117 61 117 61 96 74.5 c 128
 75 88 75 88 70 99 c 257
 68 105 68 105 68 111 c 257
 68 128 68 128 79 156 c 128
 90 184 90 184 107.5 216.5 c 128
 125 249 125 249 148 283 c 128
 171 317 171 317 194.5 346.5 c 128
 218 376 218 376 240.5 398 c 128
 263 420 263 420 281 428 c 257
 285 430 285 430 289 430 c 257
 303 430 303 430 325 417 c 128
 347 404 347 404 370.5 388.5 c 128
 394 373 394 373 415 360 c 128
 436 347 436 347 449 347 c 257
 454 347 454 347 456 348 c 257
 464 351 464 351 482 381 c 128
 500 411 500 411 524 453 c 128
 548 495 548 495 575.5 542.5 c 128
 603 590 603 590 629 629 c 257
EndSplineSet
EndChar
StartChar: warning
Encoding: 558 9888 558
GlifName: warning
Width: 1900
VWidth: 0
Flags: W
LayerCount: 2
Fore
SplineSet
1774 261 m 257
 1809 201 1809 201 1809 146 c 257
 1809 81 1809 81 1760 40.5 c 128
 1711 0 1711 0 1623 0 c 257
 276 0 l 257
 188 0 188 0 140 40 c 128
 92 80 92 80 92 145 c 257
 92 171 92 171 100.5 200.5 c 128
 109 230 109 230 127 261 c 257
 801 1410 l 257
 832 1464 832 1464 870.5 1490.5 c 128
 909 1517 909 1517 951 1517 c 257
 990 1517 990 1517 1030 1490 c 128
 1070 1463 1070 1463 1101 1410 c 257
 1774 261 l 257
1703 123 m 257
 951 1409 l 257
 204 123 l 257
 1703 123 l 257
1026 1100 m 257
 1026 573 l 257
 876 560 l 257
 876 1100 l 257
 1026 1100 l 257
864 351 m 257
 864 369 864 369 871 384.5 c 128
 878 400 878 400 889.5 411.5 c 128
 901 423 901 423 916.5 430.5 c 128
 932 438 932 438 950 438 c 257
 969 438 969 438 984 430.5 c 128
 999 423 999 423 1011 411.5 c 128
 1023 400 1023 400 1030 384.5 c 128
 1037 369 1037 369 1037 351 c 257
 1037 333 1037 333 1030 317 c 128
 1023 301 1023 301 1011.5 289.5 c 128
 1000 278 1000 278 984.5 270.5 c 128
 969 263 969 263 951 263 c 257
 933 263 933 263 917 270.5 c 128
 901 278 901 278 889.5 289.5 c 128
 878 301 878 301 871 317 c 128
 864 333 864 333 864 351 c 257
EndSplineSet
EndChar
StartChar: whitecircledtwo
Encoding: 569 10113 569
GlifName: whitecircledtwo
Width: 1700
VWidth: 0
Flags: W
LayerCount: 2
Fore
SplineSet
82 750 m 257
 82 856 82 856 109.5 954 c 128
 137 1052 137 1052 187 1137 c 128
 237 1222 237 1222 307 1292 c 128
 377 1362 377 1362 462 1412 c 128
 547 1462 547 1462 645 1489.5 c 128
 743 1517 743 1517 849 1517 c 257
 955 1517 955 1517 1053 1489.5 c 128
 1151 1462 1151 1462 1236 1412 c 128
 1321 1362 1321 1362 1391 1292 c 128
 1461 1222 1461 1222 1511 1137 c 128
 1561 1052 1561 1052 1588.5 954 c 128
 1616 856 1616 856 1616 750 c 257
 1616 644 1616 644 1588.5 546 c 128
 1561 448 1561 448 1511 363 c 128
 1461 278 1461 278 1391 208 c 128
 1321 138 1321 138 1236 88 c 128
 1151 38 1151 38 1053 10.5 c 128
 955 -17 955 -17 849 -17 c 257
 743 -17 743 -17 645 10.5 c 128
 547 38 547 38 462 88 c 128
 377 138 377 138 307 208 c 128
 237 278 237 278 187 363 c 128
 137 448 137 448 109.5 546 c 128
 82 644 82 644 82 750 c 257
200 750 m 257
 200 616 200 616 251 497.5 c 128
 302 379 302 379 390 291 c 128
 478 203 478 203 596.5 152 c 128
 715 101 715 101 849 101 c 257
 938 101 938 101 1021 124 c 128
 1104 147 1104 147 1176 189.5 c 128
 1248 232 1248 232 1307 291.5 c 128
 1366 351 1366 351 1408.5 423 c 128
 1451 495 1451 495 1474 577.5 c 128
 1497 660 1497 660 1497 750 c 257
 1497 884 1497 884 1446 1002 c 128
 1395 1120 1395 1120 1307 1208 c 128
 1219 1296 1219 1296 1101 1347 c 128
 983 1398 983 1398 849 1398 c 257
 760 1398 760 1398 677 1375 c 128
 594 1352 594 1352 522 1309.5 c 128
 450 1267 450 1267 390.5 1208 c 128
 331 1149 331 1149 288.5 1077 c 128
 246 1005 246 1005 223 922 c 128
 200 839 200 839 200 750 c 257
561 300 m 257
 561 414 l 257
 589 458 589 458 626 507 c 128
 663 556 663 556 702 603 c 128
 741 650 741 650 778.5 692 c 128
 816 734 816 734 844 765 c 257
 876 800 876 800 899 824 c 128
 922 848 922 848 935.5 868.5 c 128
 949 889 949 889 955.5 909.5 c 128
 962 930 962 930 962 958 c 257
 962 980 962 980 954.5 1002 c 128
 947 1024 947 1024 933 1041.5 c 128
 919 1059 919 1059 899.5 1069.5 c 128
 880 1080 880 1080 856 1080 c 257
 807 1080 807 1080 769.5 1047 c 128
 732 1014 732 1014 703 958 c 257
 564 1010 l 257
 581 1056 581 1056 608.5 1093 c 128
 636 1130 636 1130 673.5 1156 c 128
 711 1182 711 1182 759 1196 c 128
 807 1210 807 1210 865 1210 c 257
 933 1210 933 1210 986.5 1187.5 c 128
 1040 1165 1040 1165 1077 1128.5 c 128
 1114 1092 1114 1092 1133 1045.5 c 128
 1152 999 1152 999 1152 952 c 257
 1152 910 1152 910 1139 874.5 c 128
 1126 839 1126 839 1103.5 806 c 128
 1081 773 1081 773 1053 741 c 128
 1025 709 1025 709 995 673 c 257
 965 637 965 637 933 599.5 c 128
 901 562 901 562 872 528.5 c 128
 843 495 843 495 819 467 c 128
 795 439 795 439 782 420 c 257
 1167 420 l 257
 1167 300 l 257
 561 300 l 257
EndSplineSet
EndChar
StartChar: whitecircledsix
Encoding: 567 10117 567
GlifName: whitecircledsix
Width: 1700
VWidth: 0
Flags: W
LayerCount: 2
Fore
SplineSet
82 750 m 257
 82 856 82 856 109.5 954 c 128
 137 1052 137 1052 187 1137 c 128
 237 1222 237 1222 307 1292 c 128
 377 1362 377 1362 462 1412 c 128
 547 1462 547 1462 645 1489.5 c 128
 743 1517 743 1517 849 1517 c 257
 955 1517 955 1517 1053 1489.5 c 128
 1151 1462 1151 1462 1236 1412 c 128
 1321 1362 1321 1362 1391 1292 c 128
 1461 1222 1461 1222 1511 1137 c 128
 1561 1052 1561 1052 1588.5 954 c 128
 1616 856 1616 856 1616 750 c 257
 1616 644 1616 644 1588.5 546 c 128
 1561 448 1561 448 1511 363 c 128
 1461 278 1461 278 1391 208 c 128
 1321 138 1321 138 1236 88 c 128
 1151 38 1151 38 1053 10.5 c 128
 955 -17 955 -17 849 -17 c 257
 743 -17 743 -17 645 10.5 c 128
 547 38 547 38 462 88 c 128
 377 138 377 138 307 208 c 128
 237 278 237 278 187 363 c 128
 137 448 137 448 109.5 546 c 128
 82 644 82 644 82 750 c 257
200 750 m 257
 200 616 200 616 251 497.5 c 128
 302 379 302 379 390 291 c 128
 478 203 478 203 596.5 152 c 128
 715 101 715 101 849 101 c 257
 938 101 938 101 1021 124 c 128
 1104 147 1104 147 1176 189.5 c 128
 1248 232 1248 232 1307 291.5 c 128
 1366 351 1366 351 1408.5 423 c 128
 1451 495 1451 495 1474 577.5 c 128
 1497 660 1497 660 1497 750 c 257
 1497 884 1497 884 1446 1002 c 128
 1395 1120 1395 1120 1307 1208 c 128
 1219 1296 1219 1296 1101 1347 c 128
 983 1398 983 1398 849 1398 c 257
 760 1398 760 1398 677 1375 c 128
 594 1352 594 1352 522 1309.5 c 128
 450 1267 450 1267 390.5 1208 c 128
 331 1149 331 1149 288.5 1077 c 128
 246 1005 246 1005 223 922 c 128
 200 839 200 839 200 750 c 257
1060 1068 m 257
 1044 1076 1044 1076 1026 1078 c 128
 1008 1080 1008 1080 993 1080 c 257
 952 1080 952 1080 908 1060 c 128
 864 1040 864 1040 825 1001.5 c 128
 786 963 786 963 756.5 907 c 128
 727 851 727 851 717 780 c 257
 816 867 l 257
 832 870 832 870 847 872 c 128
 862 874 862 874 876 874 c 257
 934 874 934 874 988.5 859 c 128
 1043 844 1043 844 1085 812.5 c 128
 1127 781 1127 781 1152 732 c 128
 1177 683 1177 683 1177 615 c 257
 1177 548 1177 548 1153 489 c 128
 1129 430 1129 430 1085.5 385.5 c 128
 1042 341 1042 341 981 315.5 c 128
 920 290 920 290 846 290 c 257
 781 290 781 290 731.5 309 c 128
 682 328 682 328 645.5 359.5 c 128
 609 391 609 391 583.5 431.5 c 128
 558 472 558 472 543 515 c 128
 528 558 528 558 521 600 c 128
 514 642 514 642 514 676 c 257
 514 747 514 747 529.5 814 c 128
 545 881 545 881 574 940.5 c 128
 603 1000 603 1000 645.5 1049.5 c 128
 688 1099 688 1099 741.5 1135 c 128
 795 1171 795 1171 860 1190.5 c 128
 925 1210 925 1210 999 1210 c 257
 1009 1210 1009 1210 1029.5 1208.5 c 128
 1050 1207 1050 1207 1080 1199 c 257
 1060 1068 l 257
868 754 m 257
 846 754 846 754 824 745 c 128
 802 736 802 736 782 722 c 128
 762 708 762 708 745 691.5 c 128
 728 675 728 675 717 661 c 257
 717 645 717 645 717 632 c 128
 717 619 717 619 718.5 607.5 c 128
 720 596 720 596 721.5 584.5 c 128
 723 573 723 573 727 560 c 257
 734 532 734 532 745.5 506.5 c 128
 757 481 757 481 772.5 462 c 128
 788 443 788 443 807 431.5 c 128
 826 420 826 420 848 420 c 257
 880 420 880 420 904 437 c 128
 928 454 928 454 944 481.5 c 128
 960 509 960 509 967.5 543 c 128
 975 577 975 577 975 610 c 257
 975 640 975 640 967 666 c 128
 959 692 959 692 944.5 711.5 c 128
 930 731 930 731 910.5 742.5 c 128
 891 754 891 754 868 754 c 257
EndSplineSet
EndChar
StartChar: whitecircledseven
Encoding: 566 10118 566
GlifName: whitecircledseven
Width: 1700
VWidth: 0
Flags: W
LayerCount: 2
Fore
SplineSet
82 750 m 257
 82 856 82 856 109.5 954 c 128
 137 1052 137 1052 187 1137 c 128
 237 1222 237 1222 307 1292 c 128
 377 1362 377 1362 462 1412 c 128
 547 1462 547 1462 645 1489.5 c 128
 743 1517 743 1517 849 1517 c 257
 955 1517 955 1517 1053 1489.5 c 128
 1151 1462 1151 1462 1236 1412 c 128
 1321 1362 1321 1362 1391 1292 c 128
 1461 1222 1461 1222 1511 1137 c 128
 1561 1052 1561 1052 1588.5 954 c 128
 1616 856 1616 856 1616 750 c 257
 1616 644 1616 644 1588.5 546 c 128
 1561 448 1561 448 1511 363 c 128
 1461 278 1461 278 1391 208 c 128
 1321 138 1321 138 1236 88 c 128
 1151 38 1151 38 1053 10.5 c 128
 955 -17 955 -17 849 -17 c 257
 743 -17 743 -17 645 10.5 c 128
 547 38 547 38 462 88 c 128
 377 138 377 138 307 208 c 128
 237 278 237 278 187 363 c 128
 137 448 137 448 109.5 546 c 128
 82 644 82 644 82 750 c 257
200 750 m 257
 200 616 200 616 251 497.5 c 128
 302 379 302 379 390 291 c 128
 478 203 478 203 596.5 152 c 128
 715 101 715 101 849 101 c 257
 938 101 938 101 1021 124 c 128
 1104 147 1104 147 1176 189.5 c 128
 1248 232 1248 232 1307 291.5 c 128
 1366 351 1366 351 1408.5 423 c 128
 1451 495 1451 495 1474 577.5 c 128
 1497 660 1497 660 1497 750 c 257
 1497 884 1497 884 1446 1002 c 128
 1395 1120 1395 1120 1307 1208 c 128
 1219 1296 1219 1296 1101 1347 c 128
 983 1398 983 1398 849 1398 c 257
 760 1398 760 1398 677 1375 c 128
 594 1352 594 1352 522 1309.5 c 128
 450 1267 450 1267 390.5 1208 c 128
 331 1149 331 1149 288.5 1077 c 128
 246 1005 246 1005 223 922 c 128
 200 839 200 839 200 750 c 257
573 1200 m 257
 1177 1200 l 257
 1177 1103 l 257
 1177 1087 1177 1087 1168.5 1064.5 c 128
 1160 1042 1160 1042 1145 1014 c 128
 1130 986 1130 986 1111 953 c 128
 1092 920 1092 920 1070 886 c 257
 1045 844 1045 844 1017.5 796.5 c 128
 990 749 990 749 966 699.5 c 128
 942 650 942 650 924.5 601.5 c 128
 907 553 907 553 902 508 c 257
 899 486 899 486 897.5 459.5 c 128
 896 433 896 433 895.5 405 c 128
 895 377 895 377 895 350 c 128
 895 323 895 323 895 300 c 257
 693 300 l 257
 693 319 693 319 693.5 351.5 c 128
 694 384 694 384 695.5 420 c 128
 697 456 697 456 699.5 491 c 128
 702 526 702 526 707 551 c 257
 719 604 719 604 739.5 658.5 c 128
 760 713 760 713 785.5 764.5 c 128
 811 816 811 816 839 863.5 c 128
 867 911 867 911 892 952 c 257
 913 986 913 986 930 1014.5 c 128
 947 1043 947 1043 955 1063 c 257
 573 1063 l 257
 573 1200 l 257
EndSplineSet
EndChar
StartChar: whitecirclednine
Encoding: 564 10120 564
GlifName: whitecirclednine
Width: 1700
VWidth: 0
Flags: W
LayerCount: 2
Fore
SplineSet
82 750 m 257
 82 856 82 856 109.5 954 c 128
 137 1052 137 1052 187 1137 c 128
 237 1222 237 1222 307 1292 c 128
 377 1362 377 1362 462 1412 c 128
 547 1462 547 1462 645 1489.5 c 128
 743 1517 743 1517 849 1517 c 257
 955 1517 955 1517 1053 1489.5 c 128
 1151 1462 1151 1462 1236 1412 c 128
 1321 1362 1321 1362 1391 1292 c 128
 1461 1222 1461 1222 1511 1137 c 128
 1561 1052 1561 1052 1588.5 954 c 128
 1616 856 1616 856 1616 750 c 257
 1616 644 1616 644 1588.5 546 c 128
 1561 448 1561 448 1511 363 c 128
 1461 278 1461 278 1391 208 c 128
 1321 138 1321 138 1236 88 c 128
 1151 38 1151 38 1053 10.5 c 128
 955 -17 955 -17 849 -17 c 257
 743 -17 743 -17 645 10.5 c 128
 547 38 547 38 462 88 c 128
 377 138 377 138 307 208 c 128
 237 278 237 278 187 363 c 128
 137 448 137 448 109.5 546 c 128
 82 644 82 644 82 750 c 257
200 750 m 257
 200 616 200 616 251 497.5 c 128
 302 379 302 379 390 291 c 128
 478 203 478 203 596.5 152 c 128
 715 101 715 101 849 101 c 257
 938 101 938 101 1021 124 c 128
 1104 147 1104 147 1176 189.5 c 128
 1248 232 1248 232 1307 291.5 c 128
 1366 351 1366 351 1408.5 423 c 128
 1451 495 1451 495 1474 577.5 c 128
 1497 660 1497 660 1497 750 c 257
 1497 884 1497 884 1446 1002 c 128
 1395 1120 1395 1120 1307 1208 c 128
 1219 1296 1219 1296 1101 1347 c 128
 983 1398 983 1398 849 1398 c 257
 760 1398 760 1398 677 1375 c 128
 594 1352 594 1352 522 1309.5 c 128
 450 1267 450 1267 390.5 1208 c 128
 331 1149 331 1149 288.5 1077 c 128
 246 1005 246 1005 223 922 c 128
 200 839 200 839 200 750 c 257
652 419 m 257
 693 421 693 421 733.5 433.5 c 128
 774 446 774 446 810 467 c 128
 846 488 846 488 876.5 516.5 c 128
 907 545 907 545 929.5 578 c 128
 952 611 952 611 965 647 c 128
 978 683 978 683 979 720 c 257
 872 629 l 257
 862 628 862 628 852.5 627 c 128
 843 626 843 626 832 626 c 257
 767 626 767 626 710 646.5 c 128
 653 667 653 667 611 704 c 128
 569 741 569 741 545 793.5 c 128
 521 846 521 846 521 910 c 257
 521 977 521 977 544 1032 c 128
 567 1087 567 1087 609 1126.5 c 128
 651 1166 651 1166 711 1188 c 128
 771 1210 771 1210 846 1210 c 257
 912 1210 912 1210 962 1191.5 c 128
 1012 1173 1012 1173 1049 1142 c 128
 1086 1111 1086 1111 1111 1071 c 128
 1136 1031 1136 1031 1150.5 988 c 128
 1165 945 1165 945 1171.5 902.5 c 128
 1178 860 1178 860 1178 824 c 257
 1178 718 1178 718 1144.5 624.5 c 128
 1111 531 1111 531 1046.5 460 c 128
 982 389 982 389 889 344 c 128
 796 299 796 299 678 290 c 257
 652 419 l 257
838 757 m 257
 858 757 858 757 879.5 766.5 c 128
 901 776 901 776 920.5 791.5 c 128
 940 807 940 807 956 827 c 128
 972 847 972 847 981 867 c 257
 979 905 979 905 969.5 943 c 128
 960 981 960 981 943 1011.5 c 128
 926 1042 926 1042 902.5 1061 c 128
 879 1080 879 1080 850 1080 c 257
 822 1080 822 1080 798 1067 c 128
 774 1054 774 1054 756.5 1032.5 c 128
 739 1011 739 1011 729 982 c 128
 719 953 719 953 719 920 c 257
 719 888 719 888 727 858.5 c 128
 735 829 735 829 750.5 806.5 c 128
 766 784 766 784 788 770.5 c 128
 810 757 810 757 838 757 c 257
EndSplineSet
EndChar
StartChar: blackcircledone
Encoding: 153 10122 153
GlifName: blackcircledone
Width: 1700
VWidth: 0
Flags: W
LayerCount: 2
Fore
SplineSet
82 750 m 257
 82 856 82 856 109.5 954 c 128
 137 1052 137 1052 187 1137 c 128
 237 1222 237 1222 307 1292 c 128
 377 1362 377 1362 462 1412 c 128
 547 1462 547 1462 645 1489.5 c 128
 743 1517 743 1517 849 1517 c 257
 955 1517 955 1517 1053 1489.5 c 128
 1151 1462 1151 1462 1236 1412 c 128
 1321 1362 1321 1362 1391 1292 c 128
 1461 1222 1461 1222 1511 1137 c 128
 1561 1052 1561 1052 1588.5 954 c 128
 1616 856 1616 856 1616 750 c 257
 1616 644 1616 644 1588.5 546 c 128
 1561 448 1561 448 1511 363 c 128
 1461 278 1461 278 1391 208 c 128
 1321 138 1321 138 1236 88 c 128
 1151 38 1151 38 1053 10.5 c 128
 955 -17 955 -17 849 -17 c 257
 743 -17 743 -17 645 10.5 c 128
 547 38 547 38 462 88 c 128
 377 138 377 138 307 208 c 128
 237 278 237 278 187 363 c 128
 137 448 137 448 109.5 546 c 128
 82 644 82 644 82 750 c 257
762 420 m 257
 616 420 l 257
 616 300 l 257
 1106 300 l 257
 1106 420 l 257
 961 420 l 257
 961 1195 l 257
 815 1215 l 257
 527 950 l 257
 620 839 l 257
 670 883 l 257
 806 1046 l 257
 762 828 l 257
 762 420 l 257
EndSplineSet
EndChar
StartChar: blackcircledtwo
Encoding: 157 10123 157
GlifName: blackcircledtwo
Width: 1700
VWidth: 0
Flags: W
LayerCount: 2
Fore
SplineSet
82 750 m 257
 82 856 82 856 109.5 954 c 128
 137 1052 137 1052 187 1137 c 128
 237 1222 237 1222 307 1292 c 128
 377 1362 377 1362 462 1412 c 128
 547 1462 547 1462 645 1489.5 c 128
 743 1517 743 1517 849 1517 c 257
 955 1517 955 1517 1053 1489.5 c 128
 1151 1462 1151 1462 1236 1412 c 128
 1321 1362 1321 1362 1391 1292 c 128
 1461 1222 1461 1222 1511 1137 c 128
 1561 1052 1561 1052 1588.5 954 c 128
 1616 856 1616 856 1616 750 c 257
 1616 644 1616 644 1588.5 546 c 128
 1561 448 1561 448 1511 363 c 128
 1461 278 1461 278 1391 208 c 128
 1321 138 1321 138 1236 88 c 128
 1151 38 1151 38 1053 10.5 c 128
 955 -17 955 -17 849 -17 c 257
 743 -17 743 -17 645 10.5 c 128
 547 38 547 38 462 88 c 128
 377 138 377 138 307 208 c 128
 237 278 237 278 187 363 c 128
 137 448 137 448 109.5 546 c 128
 82 644 82 644 82 750 c 257
1167 300 m 257
 1167 420 l 257
 782 420 l 257
 795 439 795 439 819 467 c 128
 843 495 843 495 872 528.5 c 128
 901 562 901 562 933 599.5 c 128
 965 637 965 637 995 673 c 257
 1025 709 1025 709 1053 741 c 128
 1081 773 1081 773 1103.5 806 c 128
 1126 839 1126 839 1139 874.5 c 128
 1152 910 1152 910 1152 952 c 257
 1152 999 1152 999 1133 1045.5 c 128
 1114 1092 1114 1092 1077 1128.5 c 128
 1040 1165 1040 1165 986.5 1187.5 c 128
 933 1210 933 1210 865 1210 c 257
 807 1210 807 1210 759 1196 c 128
 711 1182 711 1182 673.5 1156 c 128
 636 1130 636 1130 608.5 1093 c 128
 581 1056 581 1056 564 1010 c 257
 703 958 l 257
 732 1014 732 1014 769.5 1047 c 128
 807 1080 807 1080 856 1080 c 257
 880 1080 880 1080 899.5 1069.5 c 128
 919 1059 919 1059 933 1041.5 c 128
 947 1024 947 1024 954.5 1002 c 128
 962 980 962 980 962 958 c 257
 962 930 962 930 955.5 909.5 c 128
 949 889 949 889 935.5 868.5 c 128
 922 848 922 848 899 824 c 128
 876 800 876 800 844 765 c 257
 816 734 816 734 778.5 692 c 128
 741 650 741 650 702 603 c 128
 663 556 663 556 626 507 c 128
 589 458 589 458 561 414 c 257
 561 300 l 257
 1167 300 l 257
EndSplineSet
EndChar
StartChar: blackcircledthree
Encoding: 156 10124 156
GlifName: blackcircledthree
Width: 1700
VWidth: 0
Flags: W
LayerCount: 2
Fore
SplineSet
82 750 m 257
 82 856 82 856 109.5 954 c 128
 137 1052 137 1052 187 1137 c 128
 237 1222 237 1222 307 1292 c 128
 377 1362 377 1362 462 1412 c 128
 547 1462 547 1462 645 1489.5 c 128
 743 1517 743 1517 849 1517 c 257
 955 1517 955 1517 1053 1489.5 c 128
 1151 1462 1151 1462 1236 1412 c 128
 1321 1362 1321 1362 1391 1292 c 128
 1461 1222 1461 1222 1511 1137 c 128
 1561 1052 1561 1052 1588.5 954 c 128
 1616 856 1616 856 1616 750 c 257
 1616 644 1616 644 1588.5 546 c 128
 1561 448 1561 448 1511 363 c 128
 1461 278 1461 278 1391 208 c 128
 1321 138 1321 138 1236 88 c 128
 1151 38 1151 38 1053 10.5 c 128
 955 -17 955 -17 849 -17 c 257
 743 -17 743 -17 645 10.5 c 128
 547 38 547 38 462 88 c 128
 377 138 377 138 307 208 c 128
 237 278 237 278 187 363 c 128
 137 448 137 448 109.5 546 c 128
 82 644 82 644 82 750 c 257
652 756 m 257
 660 757 660 757 677 757.5 c 128
 694 758 694 758 713 759 c 128
 732 760 732 760 749 761 c 128
 766 762 766 762 775 762 c 257
 813 762 813 762 846 755.5 c 128
 879 749 879 749 904.5 734.5 c 128
 930 720 930 720 944.5 696.5 c 128
 959 673 959 673 959 638 c 257
 959 589 959 589 927 550 c 128
 895 511 895 511 842 483 c 128
 789 455 789 455 722 438.5 c 128
 655 422 655 422 584 420 c 257
 584 300 l 257
 651 300 651 300 719.5 309 c 128
 788 318 788 318 852.5 336.5 c 128
 917 355 917 355 973.5 383 c 128
 1030 411 1030 411 1072 449 c 128
 1114 487 1114 487 1139 535.5 c 128
 1164 584 1164 584 1164 644 c 257
 1164 699 1164 699 1143.5 743 c 128
 1123 787 1123 787 1086.5 817.5 c 128
 1050 848 1050 848 998 864.5 c 128
 946 881 946 881 883 881 c 257
 977 931 l 257
 1020 970 1020 970 1054.5 1009.5 c 128
 1089 1049 1089 1049 1108 1096 c 257
 1108 1200 l 257
 603 1200 l 257
 590 1080 l 257
 789 1080 l 257
 945 1124 l 257
 930 1102 930 1102 908 1077 c 128
 886 1052 886 1052 859 1027 c 128
 832 1002 832 1002 803 978.5 c 128
 774 955 774 955 746 933 c 128
 718 911 718 911 693.5 893 c 128
 669 875 669 875 652 863 c 257
 652 756 l 257
EndSplineSet
EndChar
StartChar: blackcircledfour
Encoding: 151 10125 151
GlifName: blackcircledfour
Width: 1700
VWidth: 0
Flags: W
LayerCount: 2
Fore
SplineSet
82 750 m 257
 82 856 82 856 109.5 954 c 128
 137 1052 137 1052 187 1137 c 128
 237 1222 237 1222 307 1292 c 128
 377 1362 377 1362 462 1412 c 128
 547 1462 547 1462 645 1489.5 c 128
 743 1517 743 1517 849 1517 c 257
 955 1517 955 1517 1053 1489.5 c 128
 1151 1462 1151 1462 1236 1412 c 128
 1321 1362 1321 1362 1391 1292 c 128
 1461 1222 1461 1222 1511 1137 c 128
 1561 1052 1561 1052 1588.5 954 c 128
 1616 856 1616 856 1616 750 c 257
 1616 644 1616 644 1588.5 546 c 128
 1561 448 1561 448 1511 363 c 128
 1461 278 1461 278 1391 208 c 128
 1321 138 1321 138 1236 88 c 128
 1151 38 1151 38 1053 10.5 c 128
 955 -17 955 -17 849 -17 c 257
 743 -17 743 -17 645 10.5 c 128
 547 38 547 38 462 88 c 128
 377 138 377 138 307 208 c 128
 237 278 237 278 187 363 c 128
 137 448 137 448 109.5 546 c 128
 82 644 82 644 82 750 c 257
1170 600 m 257
 1051 600 l 257
 1051 763 l 257
 858 779 l 257
 858 600 l 257
 683 600 l 257
 788 758 l 257
 984 1195 l 257
 795 1215 l 257
 498 600 l 257
 498 480 l 257
 858 480 l 257
 858 300 l 257
 1051 300 l 257
 1051 480 l 257
 1157 480 l 257
 1170 600 l 257
EndSplineSet
EndChar
StartChar: blackcircledfive
Encoding: 150 10126 150
GlifName: blackcircledfive
Width: 1700
VWidth: 0
Flags: W
LayerCount: 2
Fore
SplineSet
82 750 m 257
 82 856 82 856 109.5 954 c 128
 137 1052 137 1052 187 1137 c 128
 237 1222 237 1222 307 1292 c 128
 377 1362 377 1362 462 1412 c 128
 547 1462 547 1462 645 1489.5 c 128
 743 1517 743 1517 849 1517 c 257
 955 1517 955 1517 1053 1489.5 c 128
 1151 1462 1151 1462 1236 1412 c 128
 1321 1362 1321 1362 1391 1292 c 128
 1461 1222 1461 1222 1511 1137 c 128
 1561 1052 1561 1052 1588.5 954 c 128
 1616 856 1616 856 1616 750 c 257
 1616 644 1616 644 1588.5 546 c 128
 1561 448 1561 448 1511 363 c 128
 1461 278 1461 278 1391 208 c 128
 1321 138 1321 138 1236 88 c 128
 1151 38 1151 38 1053 10.5 c 128
 955 -17 955 -17 849 -17 c 257
 743 -17 743 -17 645 10.5 c 128
 547 38 547 38 462 88 c 128
 377 138 377 138 307 208 c 128
 237 278 237 278 187 363 c 128
 137 448 137 448 109.5 546 c 128
 82 644 82 644 82 750 c 257
795 1080 m 257
 1105 1080 l 257
 1105 1200 l 257
 585 1200 l 257
 585 755 l 257
 720 755 l 257
 729 761 729 761 741.5 768 c 128
 754 775 754 775 770 780.5 c 128
 786 786 786 786 806 789.5 c 128
 826 793 826 793 849 793 c 257
 874 793 874 793 895 782 c 128
 916 771 916 771 931.5 753 c 128
 947 735 947 735 955.5 711.5 c 128
 964 688 964 688 964 664 c 257
 964 631 964 631 947.5 602 c 128
 931 573 931 573 903.5 548 c 128
 876 523 876 523 838.5 502.5 c 128
 801 482 801 482 759 468 c 128
 717 454 717 454 672.5 445.5 c 128
 628 437 628 437 585 436 c 257
 585 300 l 257
 650 300 650 300 718 311 c 128
 786 322 786 322 849.5 343 c 128
 913 364 913 364 969.5 395.5 c 128
 1026 427 1026 427 1068.5 469 c 128
 1111 511 1111 511 1135.5 562.5 c 128
 1160 614 1160 614 1160 676 c 257
 1160 730 1160 730 1140 777 c 128
 1120 824 1120 824 1082 859.5 c 128
 1044 895 1044 895 989 915 c 128
 934 935 934 935 864 935 c 257
 843 935 843 935 826 933 c 128
 809 931 809 931 795 928 c 257
 795 1080 l 257
EndSplineSet
EndChar
StartChar: blackcircledsix
Encoding: 155 10127 155
GlifName: blackcircledsix
Width: 1700
VWidth: 0
Flags: W
LayerCount: 2
Fore
SplineSet
82 750 m 257
 82 856 82 856 109.5 954 c 128
 137 1052 137 1052 187 1137 c 128
 237 1222 237 1222 307 1292 c 128
 377 1362 377 1362 462 1412 c 128
 547 1462 547 1462 645 1489.5 c 128
 743 1517 743 1517 849 1517 c 257
 955 1517 955 1517 1053 1489.5 c 128
 1151 1462 1151 1462 1236 1412 c 128
 1321 1362 1321 1362 1391 1292 c 128
 1461 1222 1461 1222 1511 1137 c 128
 1561 1052 1561 1052 1588.5 954 c 128
 1616 856 1616 856 1616 750 c 257
 1616 644 1616 644 1588.5 546 c 128
 1561 448 1561 448 1511 363 c 128
 1461 278 1461 278 1391 208 c 128
 1321 138 1321 138 1236 88 c 128
 1151 38 1151 38 1053 10.5 c 128
 955 -17 955 -17 849 -17 c 257
 743 -17 743 -17 645 10.5 c 128
 547 38 547 38 462 88 c 128
 377 138 377 138 307 208 c 128
 237 278 237 278 187 363 c 128
 137 448 137 448 109.5 546 c 128
 82 644 82 644 82 750 c 257
1080 1199 m 257
 1050 1207 1050 1207 1029.5 1208.5 c 128
 1009 1210 1009 1210 999 1210 c 257
 925 1210 925 1210 860 1190.5 c 128
 795 1171 795 1171 741.5 1135 c 128
 688 1099 688 1099 645.5 1049.5 c 128
 603 1000 603 1000 574 940.5 c 128
 545 881 545 881 529.5 814 c 128
 514 747 514 747 514 676 c 257
 514 642 514 642 521 600 c 128
 528 558 528 558 543 515 c 128
 558 472 558 472 583.5 431.5 c 128
 609 391 609 391 645.5 359.5 c 128
 682 328 682 328 731.5 309 c 128
 781 290 781 290 846 290 c 257
 920 290 920 290 981 315.5 c 128
 1042 341 1042 341 1085.5 385.5 c 128
 1129 430 1129 430 1153 489 c 128
 1177 548 1177 548 1177 615 c 257
 1177 683 1177 683 1152 732 c 128
 1127 781 1127 781 1085 812.5 c 128
 1043 844 1043 844 988.5 859 c 128
 934 874 934 874 876 874 c 257
 862 874 862 874 847 872 c 128
 832 870 832 870 816 867 c 257
 717 780 l 257
 727 851 727 851 756.5 907 c 128
 786 963 786 963 825 1001.5 c 128
 864 1040 864 1040 908 1060 c 128
 952 1080 952 1080 993 1080 c 257
 1008 1080 1008 1080 1026 1078 c 128
 1044 1076 1044 1076 1060 1068 c 257
 1080 1199 l 257
868 754 m 257
 891 754 891 754 910.5 742.5 c 128
 930 731 930 731 944.5 711.5 c 128
 959 692 959 692 967 666 c 128
 975 640 975 640 975 610 c 257
 975 577 975 577 967.5 543 c 128
 960 509 960 509 944 481.5 c 128
 928 454 928 454 904 437 c 128
 880 420 880 420 848 420 c 257
 826 420 826 420 807 431.5 c 128
 788 443 788 443 772.5 462 c 128
 757 481 757 481 745.5 506.5 c 128
 734 532 734 532 727 560 c 257
 723 573 723 573 721.5 584.5 c 128
 720 596 720 596 718.5 607.5 c 128
 717 619 717 619 717 632 c 128
 717 645 717 645 717 661 c 257
 728 675 728 675 745 691.5 c 128
 762 708 762 708 782 722 c 128
 802 736 802 736 824 745 c 128
 846 754 846 754 868 754 c 257
EndSplineSet
EndChar
StartChar: blackcircledzero
Encoding: 158 10131 158
GlifName: blackcircledzero
Width: 1700
VWidth: 0
Flags: W
LayerCount: 2
Fore
SplineSet
82 750 m 257
 82 856 82 856 109.5 954 c 128
 137 1052 137 1052 187 1137 c 128
 237 1222 237 1222 307 1292 c 128
 377 1362 377 1362 462 1412 c 128
 547 1462 547 1462 645 1489.5 c 128
 743 1517 743 1517 849 1517 c 257
 955 1517 955 1517 1053 1489.5 c 128
 1151 1462 1151 1462 1236 1412 c 128
 1321 1362 1321 1362 1391 1292 c 128
 1461 1222 1461 1222 1511 1137 c 128
 1561 1052 1561 1052 1588.5 954 c 128
 1616 856 1616 856 1616 750 c 257
 1616 644 1616 644 1588.5 546 c 128
 1561 448 1561 448 1511 363 c 128
 1461 278 1461 278 1391 208 c 128
 1321 138 1321 138 1236 88 c 128
 1151 38 1151 38 1053 10.5 c 128
 955 -17 955 -17 849 -17 c 257
 743 -17 743 -17 645 10.5 c 128
 547 38 547 38 462 88 c 128
 377 138 377 138 307 208 c 128
 237 278 237 278 187 363 c 128
 137 448 137 448 109.5 546 c 128
 82 644 82 644 82 750 c 257
843 290 m 257
 903 290 903 290 952 309 c 128
 1001 328 1001 328 1038.5 361.5 c 128
 1076 395 1076 395 1102.5 439.5 c 128
 1129 484 1129 484 1146 535 c 128
 1163 586 1163 586 1171 641 c 128
 1179 696 1179 696 1179 750 c 257
 1179 802 1179 802 1169.5 856.5 c 128
 1160 911 1160 911 1141.5 962 c 128
 1123 1013 1123 1013 1095 1058 c 128
 1067 1103 1067 1103 1029.5 1137 c 128
 992 1171 992 1171 945.5 1190.5 c 128
 899 1210 899 1210 843 1210 c 257
 782 1210 782 1210 733 1191 c 128
 684 1172 684 1172 647 1138.5 c 128
 610 1105 610 1105 583.5 1060.5 c 128
 557 1016 557 1016 539.5 965 c 128
 522 914 522 914 514.5 859 c 128
 507 804 507 804 507 750 c 257
 507 698 507 698 516 643.5 c 128
 525 589 525 589 544 538 c 128
 563 487 563 487 591 442 c 128
 619 397 619 397 656 363 c 128
 693 329 693 329 740 309.5 c 128
 787 290 787 290 843 290 c 257
716 775 m 257
 716 807 716 807 718 841 c 128
 720 875 720 875 725 907.5 c 128
 730 940 730 940 738.5 968.5 c 128
 747 997 747 997 761 1018 c 128
 775 1039 775 1039 794 1051.5 c 128
 813 1064 813 1064 838 1064 c 257
 867 1064 867 1064 888 1047.5 c 128
 909 1031 909 1031 923.5 1003.5 c 128
 938 976 938 976 947 940.5 c 128
 956 905 956 905 961 867.5 c 128
 966 830 966 830 968 793 c 128
 970 756 970 756 970 725 c 257
 970 692 970 692 968 658.5 c 128
 966 625 966 625 961 592.5 c 128
 956 560 956 560 947 531.5 c 128
 938 503 938 503 924 481.5 c 128
 910 460 910 460 891 448 c 128
 872 436 872 436 847 436 c 257
 818 436 818 436 797.5 452.5 c 128
 777 469 777 469 762 496.5 c 128
 747 524 747 524 738 559.5 c 128
 729 595 729 595 724 632.5 c 128
 719 670 719 670 717.5 707 c 128
 716 744 716 744 716 775 c 257
EndSplineSet
EndChar
StartChar: levelup
Encoding: 338 57349 338
GlifName: levelup
Width: 2000
VWidth: 0
Flags: W
LayerCount: 2
Fore
SplineSet
68 0 m 257
 268 0 l 258
 468 0 468 0 596 87 c 256
 632 111 632 111 666.5 145 c 0
 701 179 701 179 721 203 c 0
 741 227 741 227 773 270 c 256
 810 319 810 319 830 342.5 c 0
 850 366 850 366 890.5 402.5 c 0
 931 439 931 439 969 456 c 0
 1007 473 1007 473 1067 486.5 c 0
 1127 500 1127 500 1200 500 c 258
 1744 500 l 257
 1500 300 l 257
 1646 300 l 257
 1828 459 l 257
 1946 551 l 257
 1830 639 l 257
 1646 800 l 257
 1500 800 l 257
 1744 600 l 257
 1200 600 l 258
 999 600 999 600 871 513 c 256
 835 489 835 489 800.5 455 c 0
 766 421 766 421 746 397 c 0
 726 373 726 373 694 330 c 256
 657 282 657 282 636.5 257.5 c 0
 616 233 616 233 576 197 c 0
 536 161 536 161 498 144 c 0
 460 127 460 127 400.5 113.5 c 0
 341 100 341 100 268 100 c 258
 68 100 l 257
 68 0 l 257
1300 0 m 257
 1500 0 l 257
 1500 100 l 257
 1300 100 l 257
 1300 0 l 257
1600 0 m 257
 1800 0 l 257
 1800 100 l 257
 1600 100 l 257
 1600 0 l 257
1000 0 m 257
 1200 0 l 257
 1200 100 l 257
 1000 100 l 257
 1000 0 l 257
700 0 m 257
 900 0 l 257
 900 100 l 257
 800 100 l 257
 700 0 l 257
EndSplineSet
EndChar
StartChar: slashedzero
Encoding: 492 57351 492
GlifName: slashedzero
Width: 1300
VWidth: 0
Flags: W
LayerCount: 2
Fore
SplineSet
599 -16 m 257
 506 -16 506 -16 428 16.5 c 128
 350 49 350 49 288 105 c 128
 226 161 226 161 179 236 c 128
 132 311 132 311 101 396 c 128
 70 481 70 481 54.5 572 c 128
 39 663 39 663 39 750 c 257
 39 840 39 840 52 931.5 c 128
 65 1023 65 1023 93.5 1108.5 c 128
 122 1194 122 1194 166.5 1268 c 128
 211 1342 211 1342 273 1397.5 c 128
 335 1453 335 1453 416 1484.5 c 128
 497 1516 497 1516 599 1516 c 257
 692 1516 692 1516 770 1483.5 c 128
 848 1451 848 1451 910 1395 c 128
 972 1339 972 1339 1019 1264 c 128
 1066 1189 1066 1189 1097 1104 c 128
 1128 1019 1128 1019 1143.5 928 c 128
 1159 837 1159 837 1159 750 c 257
 1159 660 1159 660 1145.5 568.5 c 128
 1132 477 1132 477 1104 391.5 c 128
 1076 306 1076 306 1031.5 232 c 128
 987 158 987 158 924.5 102.5 c 128
 862 47 862 47 781 15.5 c 128
 700 -16 700 -16 599 -16 c 257
367 791 m 257
 367 755 367 755 369 713.5 c 128
 371 672 371 672 376 628 c 257
 354 328 l 257
 717 1204 l 257
 692 1236 692 1236 661 1254.5 c 128
 630 1273 630 1273 591 1273 c 257
 549 1273 549 1273 516 1252.5 c 128
 483 1232 483 1232 458 1196.5 c 128
 433 1161 433 1161 415.5 1113.5 c 128
 398 1066 398 1066 387.5 1012.5 c 128
 377 959 377 959 372 902 c 128
 367 845 367 845 367 791 c 257
851 1111 m 257
 507 266 l 257
 527 247 527 247 552 236.5 c 128
 577 226 577 226 606 226 c 257
 648 226 648 226 681 246.5 c 128
 714 267 714 267 739 302.5 c 128
 764 338 764 338 781.5 385.5 c 128
 799 433 799 433 810 487 c 128
 821 541 821 541 826 597.5 c 128
 831 654 831 654 831 709 c 257
 831 752 831 752 828 800 c 257
 851 1111 l 257
EndSplineSet
EndChar
StartChar: hot
Encoding: 305 57376 305
GlifName: hot
Width: 2100
VWidth: 0
Flags: W
LayerCount: 2
Fore
SplineSet
500 291 m 257
 500 1100 l 258
 500 1121 500 1121 485.5 1135.5 c 0
 471 1150 471 1150 450 1150 c 256
 429 1150 429 1150 414.5 1135.5 c 0
 400 1121 400 1121 400 1100 c 258
 400 291 l 257
 356 276 356 276 328 237.5 c 0
 300 199 300 199 300 151 c 256
 300 89 300 89 344 44.5 c 0
 388 0 388 0 450 0 c 256
 512 0 512 0 556 44 c 0
 600 88 600 88 600 150 c 256
 600 193 600 193 577 229 c 0
 554 265 554 265 516 284 c 256
 510 288 510 288 500 291 c 257
450 -100 m 256
 346 -100 346 -100 273 -27 c 0
 200 46 200 46 200 150 c 256
 200 210 200 210 227 262.5 c 0
 254 315 254 315 300 350 c 257
 300 1250 l 258
 300 1312 300 1312 344.5 1356 c 0
 389 1400 389 1400 450 1400 c 256
 510 1400 510 1400 555 1356.5 c 0
 600 1313 600 1313 600 1252 c 258
 600 350 l 257
 646 315 646 315 673 262.5 c 0
 700 210 700 210 700 150 c 256
 700 46 700 46 627 -27 c 0
 554 -100 554 -100 450 -100 c 256
450 -200 m 256
 594 -200 594 -200 697 -97 c 0
 800 6 800 6 800 150 c 256
 800 219 800 219 774 285.5 c 0
 748 352 748 352 700 400 c 257
 700 1250 l 258
 700 1354 700 1354 626 1427 c 0
 552 1500 552 1500 450 1500 c 256
 349 1500 349 1500 274.5 1427.5 c 0
 200 1355 200 1355 200 1252 c 258
 200 400 l 257
 153 351 153 351 126.5 285 c 0
 100 219 100 219 100 150 c 256
 100 7 100 7 203 -96.5 c 0
 306 -200 306 -200 450 -200 c 256
1963 507 m 257
 1966 538 l 257
 1733 614 l 257
 1734 627 1734 627 1734 652 c 256
 1734 694 1734 694 1730 727 c 257
 1920 811 l 257
 1912 846 l 257
 1704 837 l 257
 1678 915 1678 915 1626 990 c 257
 1724 1123 l 257
 1697 1155 l 257
 1551 1077 l 257
 1507 1118 1507 1118 1462 1146 c 257
 1539 1380 l 257
 1510 1394 l 257
 1367 1194 l 257
 1313 1216 1313 1216 1257 1226 c 257
 1237 1433 l 257
 1200 1437 l 257
 1144 1236 l 257
 1054 1234 1054 1234 976 1210 c 257
 879 1343 l 257
 840 1328 l 257
 870 1164 l 257
 831 1143 831 1143 800 1119 c 257
 800 437 l 257
 900 310 900 310 900 150 c 256
 900 145 900 145 899.5 136.5 c 0
 899 128 899 128 899 124 c 257
 929 109 929 109 962 97 c 257
 962 -67 l 257
 1004 -77 l 257
 1076 72 l 257
 1127 67 1127 67 1152 67 c 256
 1158 67 1158 67 1170 67.5 c 0
 1182 68 1182 68 1188 68 c 257
 1263 -166 l 257
 1295 -162 l 257
 1295 85 l 257
 1342 97 1342 97 1400 124 c 257
 1538 -31 l 257
 1571 -13 l 257
 1497 183 l 257
 1565 232 1565 232 1619 303 c 257
 1775 251 l 257
 1797 288 l 257
 1678 401 l 257
 1703 457 1703 457 1716 507 c 257
 1963 507 l 257
EndSplineSet
EndChar
StartChar: ice
Encoding: 313 57381 313
GlifName: ice
Width: 1800
VWidth: 0
Flags: W
LayerCount: 2
Fore
SplineSet
883 -173 m 257
 833 -87 l 257
 682 -195 l 257
 700 -11 l 257
 600 -11 l 257
 618 -195 l 257
 467 -87 l 257
 417 -173 l 257
 586 -250 l 257
 417 -327 l 257
 467 -414 l 257
 618 -306 l 257
 600 -491 l 257
 700 -491 l 257
 682 -306 l 257
 833 -414 l 257
 883 -327 l 257
 714 -250 l 257
 883 -173 l 257
1283 226 m 257
 1233 313 l 257
 1082 205 l 257
 1100 390 l 257
 1000 390 l 257
 1018 205 l 257
 867 313 l 257
 817 226 l 257
 986 150 l 257
 817 73 l 257
 867 -14 l 257
 1018 94 l 257
 1000 -91 l 257
 1100 -91 l 257
 1082 94 l 257
 1233 -14 l 257
 1283 73 l 257
 1114 150 l 257
 1283 226 l 257
580 152 m 257
 541 152 l 258
 427 152 427 152 344 210 c 0
 261 268 261 268 261 365 c 256
 261 424 261 424 306.5 476 c 0
 352 528 352 528 427 557 c 257
 549 557 l 257
 518 680 l 257
 518 799 518 799 597 869 c 0
 676 939 676 939 802 939 c 256
 975 939 975 939 1028 767 c 257
 1162 660 l 257
 1178 679 1178 679 1209 694.5 c 0
 1240 710 1240 710 1274 710 c 256
 1329 710 1329 710 1366.5 671.5 c 0
 1404 633 1404 633 1404 580 c 256
 1404 528 1404 528 1381 496 c 257
 1435 466 1435 466 1461 450 c 0
 1487 434 1487 434 1519 408.5 c 0
 1551 383 1551 383 1564 356 c 0
 1577 329 1577 329 1577 297 c 256
 1577 222 1577 222 1512.5 190 c 0
 1448 158 1448 158 1322 153 c 257
 1471 12 l 257
 1475 13 1475 13 1501 15.5 c 0
 1527 18 1527 18 1533 20 c 257
 1622 40 1622 40 1681 115.5 c 0
 1740 191 1740 191 1740 298 c 256
 1740 355 1740 355 1720 404 c 0
 1700 453 1700 453 1671 483.5 c 0
 1642 514 1642 514 1613 536 c 0
 1584 558 1584 558 1564 567 c 0
 1544 576 l 257
 1547 598 1547 598 1547 619 c 256
 1547 720 1547 720 1466 787.5 c 0
 1385 855 1385 855 1280 855 c 256
 1223 855 1223 855 1175 837 c 257
 1132 965 1132 965 1035 1033 c 0
 938 1101 938 1101 802 1101 c 256
 687 1101 687 1101 586 1052 c 0
 485 1003 485 1003 421 909 c 0
 357 815 357 815 357 697 c 257
 237 649 237 649 168.5 562.5 c 0
 100 476 100 476 100 365 c 256
 100 254 100 254 158.5 170.5 c 0
 217 87 217 87 306 46 c 0
 395 5 395 5 500 0 c 257
 580 152 l 257
EndSplineSet
EndChar
StartChar: clockwiseclock
Encoding: 197 57410 197
GlifName: clockwiseclock
Width: 1900
VWidth: 0
Flags: W
LayerCount: 2
Fore
SplineSet
1857 800 m 257
 1617 800 l 257
 1617 1007 1617 1007 1513.5 1172 c 0
 1410 1337 1410 1337 1235.5 1427 c 0
 1061 1517 1061 1517 850 1517 c 256
 642 1517 642 1517 465.5 1414 c 0
 289 1311 289 1311 186 1134.5 c 0
 83 958 83 958 83 750 c 256
 83 542 83 542 186 365.5 c 0
 289 189 289 189 465.5 86 c 0
 642 -17 642 -17 850 -17 c 256
 1105 -17 1105 -17 1309 136 c 257
 1241 271 l 257
 1100 157 1100 157 925 136 c 257
 905 300 l 257
 795 300 l 257
 775 136 l 257
 564 161 564 161 414 312.5 c 0
 264 464 264 464 238 675 c 257
 399 695 l 257
 399 805 l 257
 238 825 l 257
 263 1036 263 1036 413.5 1186 c 0
 564 1336 564 1336 775 1362 c 257
 795 1200 l 257
 905 1200 l 257
 925 1362 l 257
 1032 1349 1032 1349 1127 1305 c 0
 1222 1261 1222 1261 1296 1191 c 0
 1370 1121 1370 1121 1415 1020 c 0
 1460 919 1460 919 1464 800 c 257
 1227 800 l 257
 1541 250 l 257
 1857 800 l 257
825 677 m 257
 830 677 830 677 832 676 c 258
 1113 441 l 258
 1123 433 1123 433 1134 433 c 256
 1144 433 1144 433 1154 441 c 256
 1165 450 1165 450 1165 465 c 256
 1165 476 1165 476 1157 486 c 258
 924 765 l 257
 922 782 922 782 913 794 c 257
 881 1056 l 258
 879 1069 879 1069 870.5 1077 c 0
 862 1085 862 1085 849 1085 c 256
 837 1085 837 1085 828.5 1076.5 c 0
 820 1068 820 1068 818 1056 c 258
 785 790 l 257
 776 774 776 774 776 750 c 256
 776 725 776 725 790 705 c 0
 804 685 804 685 825 677 c 257
EndSplineSet
EndChar
StartChar: phoneout
Encoding: 421 57441 421
GlifName: phoneout
Width: 1900
VWidth: 0
Flags: W
LayerCount: 2
Fore
SplineSet
1344 849 m 257
 1421 819 l 257
 1400 885 l 257
 1400 1100 l 257
 1800 749 l 257
 1400 399 l 257
 1400 612 l 257
 1421 677 l 257
 1344 649 l 257
 1100 649 l 257
 1100 849 l 257
 1344 849 l 257
EndSplineSet
Refer: 419 9742 N 1 0 0 1 0 0 2
EndChar
StartChar: mailout
Encoding: 348 57444 348
GlifName: mailout
Width: 2100
VWidth: 0
Flags: W
LayerCount: 2
Fore
SplineSet
1544 849 m 257
 1621 819 l 257
 1600 885 l 257
 1600 1100 l 257
 2000 749 l 257
 1600 399 l 257
 1600 612 l 257
 1621 677 l 257
 1544 649 l 257
 1300 649 l 257
 1300 849 l 257
 1544 849 l 257
EndSplineSet
Refer: 346 9993 N 1 0 0 1 0 300 2
EndChar
StartChar: slashedwifi
Encoding: 491 57448 491
GlifName: slashedwifi
Width: 1700
VWidth: 0
Flags: W
LayerCount: 2
Fore
SplineSet
800 412 m 256
 858 412 858 412 899.5 370.5 c 0
 941 329 941 329 941 270 c 256
 941 212 941 212 899.5 171 c 0
 858 130 858 130 800 130 c 256
 742 130 742 130 700.5 171 c 0
 659 212 659 212 659 270 c 256
 659 329 659 329 699.5 370.5 c 0
 740 412 740 412 800 412 c 256
361 1073 m 257
 237 1008 237 1008 140 914 c 257
 19 1035 l 257
 133 1144 133 1144 264 1214 c 257
 361 1073 l 257
594 1331 m 257
 700 1350 700 1350 800 1350 c 256
 1024 1350 1024 1350 1225 1267.5 c 0
 1426 1185 1426 1185 1580 1035 c 257
 1459 914 l 257
 1328 1040 1328 1040 1158.5 1110 c 0
 989 1180 989 1180 800 1180 c 256
 756 1180 756 1180 703 1175 c 257
 594 1331 l 257
1242 697 m 257
 1102 824 1102 824 923 858 c 257
 811 1019 l 257
 964 1017 964 1017 1101.5 960 c 0
 1239 903 1239 903 1347 802 c 257
 1242 697 l 257
252 802 m 257
 340 886 340 886 452 940 c 257
 538 815 l 257
 441 773 441 773 357 697 c 257
 252 802 l 257
476 579 m 257
 545 643 545 643 633 676 c 257
 725 543 l 257
 646 522 646 522 589 465 c 257
 476 579 l 257
189 1500 m 257
 356 1500 l 257
 1397 0 l 257
 1219 0 l 257
 189 1500 l 257
EndSplineSet
PickledDataWithLists: "(dp0
Vcom.typemytype.robofont.guides
p1
(lp2
(dp3
Vangle
p4
I0
sVisGlobal
p5
I00
sVmagnetic
p6
I5
sVx
p7
I0
sVy
p8
I2917
sas."
EndChar
StartChar: comsatout
Encoding: 206 57450 206
GlifName: comsatout
Width: 2400
VWidth: 0
Flags: W
LayerCount: 2
Fore
SplineSet
1844 549 m 257
 1921 519 l 257
 1900 585 l 257
 1900 800 l 257
 2300 449 l 257
 1900 99 l 257
 1900 312 l 257
 1921 377 l 257
 1844 349 l 257
 1600 349 l 257
 1600 549 l 257
 1844 549 l 257
176 1298 m 257
 174 1270 174 1270 174 1256 c 256
 174 1143 174 1143 229.5 1001.5 c 0
 285 860 285 860 376 722.5 c 0
 467 585 467 585 589 452.5 c 0
 711 320 711 320 838.5 220 c 0
 966 120 966 120 1100 59 c 0
 1234 -2 1234 -2 1344 -2 c 256
 1357 -2 1357 -2 1383 0 c 257
 1363 -19 1363 -19 1320.5 -29.5 c 0
 1278 -40 1278 -40 1234 -40 c 256
 1146 -40 1146 -40 1040 0.5 c 0
 934 41 934 41 829 111.5 c 0
 724 182 724 182 620.5 274 c 0
 517 366 517 366 428.5 474 c 0
 340 582 340 582 271.5 691.5 c 0
 203 801 203 801 164 912 c 0
 125 1023 125 1023 125 1116 c 256
 125 1222 125 1222 176 1298 c 257
1383 1169 m 256
 1400 1153 1400 1153 1400 1128 c 256
 1400 1098 1400 1098 1380 1078 c 258
 887 607 l 258
 867 587 867 587 835 587 c 256
 801 587 801 587 778 610 c 256
 757 631 757 631 757 661 c 256
 757 700 757 700 783 722 c 258
 1294 1167 l 257
 1313 1186 1313 1186 1337 1186 c 256
 1364 1186 1364 1186 1383 1169 c 256
1274 825 m 257
 1402 659 1402 659 1473 500 c 0
 1544 341 1544 341 1544 227 c 256
 1544 129 1544 129 1491 80 c 256
 1444 38 1444 38 1367 38 c 256
 1227 38 1227 38 1022 165.5 c 0
 817 293 817 293 620 507 c 256
 434 709 434 709 326 915.5 c 0
 218 1122 218 1122 218 1265 c 256
 218 1365 218 1365 272 1413 c 256
 304 1442 304 1442 365 1442 c 256
 508 1442 508 1442 680.5 1355.5 c 0
 853 1269 853 1269 1022 1107 c 257
 976 1066 l 257
 830 1202 830 1202 692 1280.5 c 0
 554 1359 554 1359 464 1359 c 256
 410 1359 410 1359 381 1331 c 256
 345 1299 345 1299 345 1233 c 256
 345 1115 345 1115 449.5 929 c 0
 554 743 554 743 701 584 c 256
 852 421 852 421 1036 294.5 c 0
 1220 168 1220 168 1336 168 c 256
 1390 168 1390 168 1419 196 c 256
 1455 229 1455 229 1455 296 c 256
 1455 384 1455 384 1395.5 513 c 0
 1336 642 1336 642 1229 783 c 257
 1274 825 l 257
700 -200 m 257
 300 -200 l 257
 300 498 l 257
 484 252 484 252 600 100 c 257
 700 -200 l 257
EndSplineSet
EndChar
StartChar: eject
Encoding: 239 57475 239
GlifName: eject
Width: 1800
VWidth: 0
Flags: W
LayerCount: 2
Fore
SplineSet
901 1517 m 256
 693 1517 693 1517 516.5 1414 c 0
 340 1311 340 1311 237 1134.5 c 0
 134 958 134 958 134 750 c 256
 134 542 134 542 237 365.5 c 0
 340 189 340 189 516.5 86 c 0
 693 -17 693 -17 901 -17 c 256
 1109 -17 1109 -17 1285.5 86 c 0
 1462 189 1462 189 1565 365.5 c 0
 1668 542 1668 542 1668 750 c 256
 1668 958 1668 958 1565 1134.5 c 0
 1462 1311 1462 1311 1285.5 1414 c 0
 1109 1517 1109 1517 901 1517 c 256
901 1417 m 256
 1035 1417 1035 1417 1158.5 1363.5 c 0
 1282 1310 1282 1310 1371.5 1220.5 c 0
 1461 1131 1461 1131 1514.5 1007.5 c 0
 1568 884 1568 884 1568 750 c 256
 1568 571 1568 571 1476.5 417 c 0
 1385 263 1385 263 1231 173 c 0
 1077 83 1077 83 901 83 c 256
 767 83 767 83 643.5 136.5 c 0
 520 190 520 190 430.5 279.5 c 0
 341 369 341 369 287.5 492.5 c 0
 234 616 234 616 234 750 c 256
 234 884 234 884 287.5 1007.5 c 0
 341 1131 341 1131 430.5 1220.5 c 0
 520 1310 520 1310 643.5 1363.5 c 0
 767 1417 767 1417 901 1417 c 256
500 900 m 257
 874 900 l 257
 600 400 l 257
 901 420 l 257
 1200 400 l 257
 928 900 l 257
 1300 900 l 257
 1300 1050 l 257
 500 1050 l 257
 500 900 l 257
EndSplineSet
EndChar
StartChar: erase
Encoding: 253 57507 253
GlifName: erase
Width: 1400
VWidth: 0
Flags: W
LayerCount: 2
Fore
SplineSet
625 -329 m 257
 763 -92 763 -92 824 0 c 257
 1018 -222 l 257
 1196 -126 l 257
 1024 48 1024 48 937 148 c 257
 1110 394 1110 394 1300 600 c 257
 1037 600 l 257
 912 454 912 454 806 306 c 257
 783 336 783 336 705.5 429.5 c 0
 628 523 628 523 601 566 c 257
 510 430 510 430 500 376 c 257
 523 342 523 342 550 306.5 c 0
 577 271 577 271 622.5 215 c 0
 668 159 668 159 680 144 c 257
 638 82 l 257
 500 -150 l 257
 625 -329 l 257
1200 1100 m 257
 1000 1100 l 257
 1000 1300 l 257
 1200 1100 l 257
1300 700 m 257
 1300 1140 l 257
 1040 1400 l 257
 100 1400 l 257
 100 -100 l 257
 380 -100 l 257
 400 0 l 257
 200 0 l 257
 200 1300 l 257
 900 1300 l 257
 900 1000 l 257
 1200 1000 l 257
 1200 700 l 257
 1300 700 l 257
EndSplineSet
EndChar
StartChar: trash
Encoding: 531 57509 531
GlifName: trash
Width: 1500
VWidth: 0
Flags: W
LayerCount: 2
Fore
SplineSet
300 0 m 257
 1200 0 l 257
 1300 1100 l 257
 200 1100 l 257
 300 0 l 257
700 100 m 257
 600 100 l 257
 554 1000 l 257
 700 1000 l 257
 700 100 l 257
800 1000 m 257
 947 1000 l 257
 900 100 l 257
 800 100 l 257
 800 1000 l 257
1120 100 m 257
 1000 100 l 257
 1043 1000 l 257
 1200 1000 l 257
 1120 100 l 257
457 1000 m 257
 500 100 l 257
 380 100 l 257
 300 1000 l 257
 457 1000 l 257
1300 1160 m 257
 1350 1200 l 257
 1300 1300 l 257
 1100 1300 l 257
 1100 1400 l 258
 1100 1445 1100 1445 1081.5 1472.5 c 0
 1063 1500 1063 1500 1023 1500 c 258
 500 1500 l 258
 458 1500 458 1500 429 1470.5 c 0
 400 1441 400 1441 400 1400 c 258
 400 1300 l 257
 200 1300 l 257
 150 1200 l 257
 200 1160 l 257
 1300 1160 l 257
500 1400 m 257
 1000 1400 l 257
 1000 1300 l 257
 500 1300 l 257
 500 1400 l 257
EndSplineSet
EndChar
StartChar: import
Encoding: 317 57510 317
GlifName: import
Width: 1700
VWidth: 0
Flags: W
LayerCount: 2
Fore
SplineSet
774 800 m 257
 878 788 l 257
 800 863 l 257
 800 1000 l 257
 1300 700 l 257
 800 400 l 257
 800 535 l 257
 878 610 l 257
 774 600 l 257
 100 600 l 257
 100 800 l 257
 774 800 l 257
500 1400 m 257
 500 920 l 257
 700 900 l 257
 700 1200 l 257
 1400 1200 l 257
 1400 200 l 257
 700 200 l 257
 700 500 l 257
 500 480 l 257
 500 0 l 257
 1600 0 l 257
 1600 1400 l 257
 500 1400 l 257
EndSplineSet
EndChar
StartChar: close
Encoding: 198 57516 198
GlifName: close
Width: 1400
VWidth: 0
Flags: W
LayerCount: 2
Fore
SplineSet
134 550 m 256
 134 434 134 434 178.5 329 c 0
 223 224 223 224 299 148.5 c 0
 375 73 375 73 479.5 28 c 0
 584 -17 584 -17 700 -17 c 256
 815 -17 815 -17 920 28 c 0
 1025 73 1025 73 1100.5 148.5 c 0
 1176 224 1176 224 1221 329 c 0
 1266 434 1266 434 1266 549 c 256
 1266 704 1266 704 1190.5 834.5 c 0
 1115 965 1115 965 984.5 1041 c 0
 854 1117 854 1117 699 1117 c 256
 545 1117 545 1117 415 1041 c 0
 285 965 285 965 209.5 834.5 c 0
 134 704 134 704 134 550 c 256
967 742 m 257
 770 552 l 257
 971 359 l 257
 887 276 l 257
 700 470 l 257
 504 279 l 257
 427 355 l 257
 630 546 l 257
 424 739 l 257
 507 822 l 257
 700 629 l 257
 890 819 l 257
 967 742 l 257
EndSplineSet
EndChar
StartChar: info
Encoding: 320 57520 320
GlifName: info
Width: 1800
VWidth: 0
Flags: W
LayerCount: 2
Fore
SplineSet
908 219 m 257
 975 221 975 221 1041.5 258.5 c 0
 1108 296 1108 296 1157 350 c 257
 1073 431 l 257
 981 336 981 336 909 336 c 256
 866 336 866 336 848 371.5 c 0
 830 407 830 407 830 453 c 256
 830 514 830 514 864.5 672 c 0
 899 830 899 830 899 896 c 256
 899 940 899 940 871.5 967.5 c 0
 844 995 844 995 800 995 c 256
 756 995 756 995 703 968.5 c 0
 650 942 650 942 621 917 c 257
 692 824 l 257
 731 854 731 854 779 873 c 257
 761 769 761 769 740 673 c 0
 719 577 719 577 709.5 529.5 c 0
 700 482 700 482 700 448 c 256
 700 354 700 354 757.5 286.5 c 0
 815 219 815 219 908 219 c 257
867 1517 m 256
 1075 1517 1075 1517 1251.5 1414.5 c 0
 1428 1312 1428 1312 1531 1135 c 0
 1634 958 1634 958 1634 750 c 256
 1634 542 1634 542 1531 365 c 0
 1428 188 1428 188 1251.5 85.5 c 0
 1075 -17 1075 -17 867 -17 c 256
 659 -17 659 -17 482.5 85.5 c 0
 306 188 306 188 203 365 c 0
 100 542 100 542 100 750 c 256
 100 958 100 958 203 1135 c 0
 306 1312 306 1312 482.5 1414.5 c 0
 659 1517 659 1517 867 1517 c 256
873 1304 m 256
 835 1304 835 1304 808 1276.5 c 0
 781 1249 781 1249 781 1213 c 256
 781 1176 781 1176 810 1148.5 c 0
 839 1121 839 1121 876 1121 c 256
 913 1121 913 1121 939 1149 c 0
 965 1177 965 1177 965 1213 c 256
 965 1250 965 1250 937 1277 c 0
 909 1304 909 1304 873 1304 c 256
EndSplineSet
EndChar
StartChar: ff
Encoding: 265 64256 265
GlifName: ff
Width: 1200
VWidth: 0
Flags: W
LayerCount: 2
Fore
SplineSet
20 1100 m 257
 150 1100 l 257
 150 1142 l 257
 150 1230 150 1230 171.5 1299.5 c 128
 193 1369 193 1369 239 1417.5 c 128
 285 1466 285 1466 357.5 1491.5 c 128
 430 1517 430 1517 532 1517 c 257
 606 1517 606 1517 659.5 1507.5 c 128
 713 1498 713 1498 752 1483 c 257
 797 1548 797 1548 875 1582.5 c 128
 953 1617 953 1617 1073 1617 c 257
 1125 1617 1125 1617 1171 1607.5 c 128
 1217 1598 1217 1598 1256.5 1582 c 128
 1296 1566 1296 1566 1329.5 1545 c 128
 1363 1524 1363 1524 1391 1501 c 257
 1255 1341 l 257
 1217 1368 1217 1368 1183 1380.5 c 128
 1149 1393 1149 1393 1105 1393 c 257
 1061 1393 1061 1393 1032 1356 c 128
 1003 1319 1003 1319 1003 1233 c 257
 1003 1100 l 257
 1247 1100 l 257
 1220 876 l 257
 1017 876 l 257
 1017 0 l 257
 691 0 l 257
 691 1242 l 257
 691 1251 691 1251 691 1259.5 c 128
 691 1268 691 1268 692 1277 c 257
 672 1285 672 1285 650.5 1289 c 128
 629 1293 629 1293 594 1293 c 257
 567 1293 567 1293 543 1284 c 128
 519 1275 519 1275 501 1256 c 128
 483 1237 483 1237 472.5 1206.5 c 128
 462 1176 462 1176 462 1133 c 257
 462 1100 l 257
 563 1100 l 257
 563 876 l 257
 476 876 l 257
 476 0 l 257
 150 0 l 257
 150 876 l 257
 20 876 l 257
 20 1100 l 257
EndSplineSet
EndChar
StartChar: fl
Encoding: 276 64258 276
GlifName: fl
Width: 1300
VWidth: 0
Flags: W
LayerCount: 2
Fore
SplineSet
10 1100 m 257
 150 1100 l 257
 150 1242 l 257
 150 1330 150 1330 174.5 1399.5 c 128
 199 1469 199 1469 249 1517.5 c 128
 299 1566 299 1566 374.5 1591.5 c 128
 450 1617 450 1617 552 1617 c 257
 641 1617 641 1617 719 1594.5 c 128
 797 1572 797 1572 856.5 1527.5 c 128
 916 1483 916 1483 953 1417.5 c 128
 990 1352 990 1352 997 1266 c 257
 997 403 l 257
 997 360 997 360 1000 324 c 128
 1003 288 1003 288 1012.5 262.5 c 128
 1022 237 1022 237 1040 223 c 128
 1058 209 1058 209 1088 209 c 257
 1102 209 1102 209 1116.5 211.5 c 128
 1131 214 1131 214 1144.5 218 c 128
 1158 222 1158 222 1169 225.5 c 128
 1180 229 1180 229 1187 232 c 257
 1243 35 l 257
 1232 29 1232 29 1212 20.5 c 128
 1192 12 1192 12 1165 3.5 c 128
 1138 -5 1138 -5 1104.5 -11 c 128
 1071 -17 1071 -17 1034 -17 c 257
 923 -17 923 -17 852 15.5 c 128
 781 48 781 48 740.5 105.5 c 128
 700 163 700 163 685 241.5 c 128
 670 320 670 320 670 411 c 257
 670 1379 l 257
 658 1387 658 1387 636.5 1395 c 128
 615 1403 615 1403 584 1403 c 257
 562 1403 562 1403 540 1392.5 c 128
 518 1382 518 1382 501 1361 c 128
 484 1340 484 1340 473 1308 c 128
 462 1276 462 1276 462 1233 c 257
 462 1100 l 257
 550 1100 l 257
 550 876 l 257
 476 876 l 257
 476 0 l 257
 150 0 l 257
 150 876 l 257
 10 876 l 257
 10 1100 l 257
EndSplineSet
EndChar
StartChar: ffi
Encoding: 266 64259 266
GlifName: ffi
Width: 1600
VWidth: 0
Flags: W
LayerCount: 2
Fore
SplineSet
463 876 m 257
 463 0 l 257
 137 0 l 257
 137 876 l 257
 -3 876 l 257
 -3 1100 l 257
 137 1100 l 257
 137 1114 l 257
 137 1202 137 1202 158.5 1276 c 128
 180 1350 180 1350 226 1403.5 c 128
 272 1457 272 1457 344.5 1487 c 128
 417 1517 417 1517 519 1517 c 257
 547 1517 547 1517 578.5 1511 c 128
 610 1505 610 1505 640 1496 c 128
 670 1487 670 1487 696.5 1475.5 c 128
 723 1464 723 1464 740 1452 c 257
 762 1479 762 1479 792.5 1508 c 128
 823 1537 823 1537 863.5 1561 c 128
 904 1585 904 1585 956 1601 c 128
 1008 1617 1008 1617 1073 1617 c 257
 1206 1617 1206 1617 1325 1588 c 128
 1444 1559 1444 1559 1529 1500 c 257
 1529 1212 l 257
 1208 1212 l 257
 1208 1405 l 257
 1175 1411 1175 1411 1149 1411 c 257
 1114 1411 1114 1411 1088 1399.5 c 128
 1062 1388 1062 1388 1045 1363 c 128
 1028 1338 1028 1338 1020 1297 c 128
 1012 1256 1012 1256 1012 1198 c 257
 1012 1100 l 257
 1523 1100 l 257
 1523 0 l 257
 1207 0 l 257
 1207 876 l 257
 1017 876 l 257
 1017 0 l 257
 691 0 l 257
 691 876 l 257
 463 876 l 257
691 1207 m 257
 691 1219 691 1219 691 1241 c 128
 691 1263 691 1263 693 1277 c 257
 669 1282 669 1282 645 1286 c 128
 621 1290 621 1290 598 1290 c 257
 569 1290 569 1290 543.5 1282 c 128
 518 1274 518 1274 499 1253 c 128
 480 1232 480 1232 469 1196 c 128
 458 1160 458 1160 458 1105 c 257
 458 1100 l 257
 691 1100 l 257
 691 1207 l 257
EndSplineSet
EndChar
StartChar: st
Encoding: 502 64262 502
GlifName: st
Width: 1600
VWidth: 0
Flags: W
LayerCount: 2
Fore
SplineSet
920 1100 m 257
 920 1279 l 257
 1232 1463 l 257
 1232 1100 l 257
 1522 1100 l 257
 1495 876 l 257
 1236 876 l 257
 1236 388 l 257
 1236 337 1236 337 1239 302.5 c 128
 1242 268 1242 268 1249.5 247 c 128
 1257 226 1257 226 1269 217 c 128
 1281 208 1281 208 1299 208 c 257
 1320 208 1320 208 1339 212 c 128
 1358 216 1358 216 1373 221 c 257
 1391 227 1391 227 1406 235 c 257
 1501 72 l 257
 1489 60 1489 60 1464.5 44.5 c 128
 1440 29 1440 29 1407 15.5 c 128
 1374 2 1374 2 1333.5 -7 c 128
 1293 -16 1293 -16 1250 -16 c 257
 1142 -16 1142 -16 1077 18 c 128
 1012 52 1012 52 977 110 c 128
 942 168 942 168 931 245.5 c 128
 920 323 920 323 920 410 c 257
 920 883 l 257
 460 883 l 257
 401 883 401 883 372 872.5 c 128
 343 862 343 862 343 822 c 257
 343 796 343 796 365 776 c 128
 387 756 387 756 423 738 c 128
 459 720 459 720 505.5 702 c 128
 552 684 552 684 600 662 c 128
 648 640 648 640 694.5 613.5 c 128
 741 587 741 587 777 551.5 c 128
 813 516 813 516 835 470 c 128
 857 424 857 424 857 364 c 257
 857 260 857 260 821 188 c 128
 785 116 785 116 722 70 c 128
 659 24 659 24 573.5 3.5 c 128
 488 -17 488 -17 390 -17 c 257
 352 -17 352 -17 301 -8 c 128
 250 1 250 1 197.5 16 c 128
 145 31 145 31 96 51.5 c 128
 47 72 47 72 13 96 c 257
 113 286 l 257
 149 268 149 268 188.5 252 c 128
 228 236 228 236 266 224.5 c 128
 304 213 304 213 339 206.5 c 128
 374 200 374 200 401 200 c 257
 429 200 429 200 455.5 208 c 128
 482 216 482 216 502 232.5 c 128
 522 249 522 249 534 274.5 c 128
 546 300 546 300 546 336 c 257
 546 372 546 372 524.5 398.5 c 128
 503 425 503 425 467.5 447 c 128
 432 469 432 469 386.5 488 c 128
 341 507 341 507 293.5 528.5 c 128
 246 550 246 550 200.5 575 c 128
 155 600 155 600 119.5 633.5 c 128
 84 667 84 667 62.5 710.5 c 128
 41 754 41 754 41 813 c 257
 41 894 41 894 71.5 949 c 128
 102 1004 102 1004 157.5 1037.5 c 128
 213 1071 213 1071 291 1085.5 c 128
 369 1100 369 1100 463 1100 c 257
 920 1100 l 257
EndSplineSet
EndChar
